	<svg xmlns="http://www.w3.org/2000/svg" xmlns:xlink="http://www.w3.org/1999/xlink" width="1646.84" height="1286.67" viewBox="0 0 1646.84 1286.67"><defs><style>.cls-1{opacity:0.1;isolation:isolate;fill:url(#linear-gradient);}.cls-2{fill:#ffd63b;}.cls-3{fill:none;stroke:#fff;stroke-linecap:round;stroke-width:4px;}</style><linearGradient id="linear-gradient" x1="8469.227" y1="8551.321" x2="8469.207" y2="8552.32" gradientTransform="matrix(147.16, 147.16, 409.83, -409.83, -4750887.629, 2258694.142)" gradientUnits="userSpaceOnUse"><stop offset="0" stop-color="#fff"/><stop offset="1" stop-color="#fff" stop-opacity="0"/></linearGradient><symbol id="el" data-name="el" viewBox="0 0 470.481 470.316"><path class="cls-1" d="M29.974,293.256l263-263,.09.08a104,104,0,0,1,146.83,147.33h0q-1.77,1.77-3.61,3.44l-259.23,259.23a104,104,0,0,1-147.08-147.07Z"/></symbol><symbol id="star" data-name="star" viewBox="0 0 16.45 16.44"><path class="cls-2" d="M15.42,0,13.73,7.8l2.72,7.52-7.8-1.7L1.13,16.44l1.69-7.9L0,1.02l7.9,1.7Z"/></symbol></defs><use width="470.481" height="470.316" transform="translate(1031.97 816.389)" xlink:href="#el"/><use width="470.481" height="470.316" transform="translate(0.486 535.874)" xlink:href="#el"/><use width="470.481" height="470.316" transform="translate(1178.13 -0.117)" xlink:href="#el"/><use width="470.481" height="470.316" transform="translate(564.134 587.117)" xlink:href="#el"/><line class="cls-3" x1="1084.92" y1="844.84" x2="1132.92" y2="796.84"/><line class="cls-3" x1="916.92" y1="388.84" x2="964.92" y2="340.84"/><line class="cls-3" x1="396.92" y1="660.84" x2="444.92" y2="612.84"/><g><animate attributeName="opacity" values="0;1;0" dur="3s" repeatCount="indefinite"/><use width="16.45" height="16.44" transform="translate(1396.92 492.84)" xlink:href="#star"/></g><g><animate attributeName="opacity" values="0;1;0" dur="1.8s" repeatCount="indefinite"/><use width="16.45" height="16.44" transform="translate(424.734 707.951) rotate(20.584) scale(0.824)" xlink:href="#star"/></g><g><animate attributeName="opacity" values="0;1;0" dur="2.7s" repeatCount="indefinite"/><use width="16.45" height="16.44" transform="translate(778.722 335.796) rotate(78.254) scale(0.669)" xlink:href="#star"/></g><g><animate attributeName="opacity" values="0;1;0" dur="1.4s" repeatCount="indefinite"/><use width="16.45" height="16.44" transform="translate(1041.21 665.133) scale(0.553)" xlink:href="#star"/></g><g><animate attributeName="opacity" values="0;1;0" dur="2.2s" repeatCount="indefinite"/><use width="16.45" height="16.44" transform="matrix(0.522, 0.227, -0.227, 0.522, 1156.964, 932.213)" xlink:href="#star"/></g><g><animate attributeName="opacity" values="0;1;0" dur="1.2s" repeatCount="indefinite"/><use width="16.45" height="16.44" transform="translate(689.217 983.45) scale(0.552)" xlink:href="#star"/></g></svg>