<svg xmlns="http://www.w3.org/2000/svg" xmlns:xlink="http://www.w3.org/1999/xlink" width="1646.84" height="1286.67" viewBox="0 0 1646.84 1286.67"><defs><style>.a,.b,.c,.d{opacity:0.1;isolation:isolate;}.a{fill:url(#a);}.b{fill:url(#b);}.c{fill:url(#c);}.d{fill:url(#d);}.e{fill:none;stroke:#fff;stroke-linecap:round;stroke-width:4px;}.f{fill:#ffd63b;}</style><linearGradient id="a" x1="184.504" y1="-39.51" x2="184.484" y2="-40.51" gradientTransform="translate(-42135.038 -10518.481) rotate(45) scale(208.116 579.587)" gradientUnits="userSpaceOnUse"><stop offset="0" stop-color="#fff"/><stop offset="1" stop-color="#fff" stop-opacity="0"/></linearGradient><linearGradient id="b" x1="184.504" y1="-39.51" x2="184.484" y2="-40.51" gradientTransform="translate(-43311.038 -9982.481) rotate(45) scale(208.116 579.587)" xlink:href="#a"/><linearGradient id="c" x1="184.504" y1="-39.51" x2="184.484" y2="-40.51" gradientTransform="translate(-42279.038 -9702.481) rotate(45) scale(208.116 579.587)" xlink:href="#a"/><linearGradient id="d" x1="184.504" y1="-39.51" x2="184.484" y2="-40.51" gradientTransform="translate(-42748.038 -9931.481) rotate(45) scale(208.116 579.587)" xlink:href="#a"/></defs><title>bg</title><path class="a" d="M1206.46,293.13l263-263,.09.08a104,104,0,0,1,146.79,147.37h0q-1.77,1.77-3.61,3.44L1353.54,440.21a104,104,0,0,1-147.08-147.07Z"/><path class="b" d="M30.46,829.13l263-263,.09.08A104,104,0,1,1,440.38,713.54h0q-1.77,1.77-3.61,3.44L177.54,976.21A104,104,0,0,1,30.46,829.14Z"/><path class="c" d="M1062.46,1109.13l263-263,.09.08a104,104,0,1,1,146.79,147.37q-1.77,1.77-3.61,3.44L1209.5,1256.25a104,104,0,0,1-148.05-146.1q.481-.489.97-.97Z"/><path class="d" d="M593.46,880.13l263-263,.09.09a104,104,0,0,1,146.79,147.36q-1.77,1.77-3.61,3.44L740.54,1027.21A104,104,0,0,1,593.46,880.14Z"/><line class="e" x1="1084.92" y1="844.84" x2="1132.92" y2="796.84"/><line class="e" x1="916.92" y1="388.84" x2="964.92" y2="340.84"/><line class="e" x1="396.92" y1="660.84" x2="444.92" y2="612.84"/><path class="f" d="M424.42,708.48l5.64,3.76,6.86.09L433.07,718l-.1,6.86-5.64-3.76-6.86-.19,3.76-5.64Z"/><path class="f" d="M778.1,335.77v5.54l2.82,4.7-5.45-.09-4.7,2.91.09-5.54L768,338.68h5.54Z"/><path class="f" d="M1412.34,492.84l-1.69,7.8,2.72,7.52-7.8-1.7-7.52,2.82,1.69-7.9-2.82-7.52,7.9,1.7Z"/><path class="f" d="M1156.74,932.84l3.67,2.63,4.51.19-2.63,3.66-.19,4.52-3.67-2.64-4.51-.18,2.63-3.67Z"/><path class="f" d="M697.85,983.45l-1.06,4.39,1.51,4.25L693.92,991l-4.26,1.52,1.07-4.39-1.52-4.25L693.6,985Z"/><path class="f" d="M1049.85,665.13l-1.06,4.39,1.51,4.25-4.38-1.07-4.26,1.52,1.07-4.38-1.52-4.26,4.39,1.07Z"/></svg>