<svg xmlns="http://www.w3.org/2000/svg" xmlns:xlink="http://www.w3.org/1999/xlink" width="360" height="520" viewBox="0 0 360 520"><defs><style>.cls-1{fill:none;stroke:#ffd131;stroke-linecap:round;stroke-miterlimit:10;stroke-width:2.995px;}.cls-2{opacity:0.26;filter:url(#blur);}.cls-3{fill:#19427d;}.cls-4{fill:url(#grd_11);}.cls-5{fill:url(#grd_10);}.cls-6{fill:url(#grd_copy_3);}.cls-7{fill:url(#grd_5);}.cls-8{fill:url(#grd_6);}.cls-9{opacity:0.24;}.cls-10{fill:url(#linear-gradient);}.cls-11{fill:#fff;}.cls-12{fill:#ff5f00;}.cls-13{fill:#eb001b;}.cls-14{fill:#f79e1b;}.cls-15{fill:url(#linear-gradient-2);}.cls-16{fill:url(#linear-gradient-3);}.cls-17{fill:url(#linear-gradient-4);}.cls-18{fill:url(#linear-gradient-5);}.cls-19{fill:url(#linear-gradient-6);}.cls-20{fill:#ffd131;}</style><style type="text/css">@import url(../css/svg-anim.css);</style><filter id="blur" name="blur"><feGaussianBlur stdDeviation="5"/></filter><linearGradient id="grd_11" x1="73.023" y1="242.369" x2="269.047" y2="242.369" gradientUnits="userSpaceOnUse"><stop offset="0" stop-color="#0b0310"/><stop offset="1" stop-color="#1a4879"/></linearGradient><linearGradient id="grd_10" x1="74.186" y1="243.132" x2="270.211" y2="243.132" gradientUnits="userSpaceOnUse"><stop offset="0" stop-color="#003777"/><stop offset="1" stop-color="#2970d7"/></linearGradient><linearGradient id="grd_copy_3" x1="74.186" y1="202.72" x2="270.211" y2="202.72" gradientUnits="userSpaceOnUse"><stop offset="0"/><stop offset="1" stop-color="#16396c"/></linearGradient><linearGradient id="grd_5" x1="115.559" y1="257.526" x2="311.583" y2="257.526" gradientUnits="userSpaceOnUse"><stop offset="0" stop-color="#210a2f"/><stop offset="1" stop-color="#1e538b"/></linearGradient><linearGradient id="grd_6" x1="116.723" y1="258.289" x2="312.747" y2="258.289" gradientUnits="userSpaceOnUse"><stop offset="0" stop-color="#00408a"/><stop offset="1" stop-color="#2d7aeb"/></linearGradient><linearGradient id="linear-gradient" x1="135.779" y1="324.389" x2="254.342" y2="254.789" gradientUnits="userSpaceOnUse"><stop offset="0" stop-color="#b8cce0"/><stop offset="1" stop-color="#e6ecf2"/></linearGradient><linearGradient id="linear-gradient-2" x1="133.886" y1="341.964" x2="157.588" y2="341.964" xlink:href="#linear-gradient"/><linearGradient id="linear-gradient-3" x1="134.035" y1="346.281" x2="199.692" y2="346.281" xlink:href="#linear-gradient"/><linearGradient id="linear-gradient-4" x1="280.842" y1="170.532" x2="295.719" y2="170.532" xlink:href="#linear-gradient"/><linearGradient id="linear-gradient-5" x1="134.355" y1="265.305" x2="162.187" y2="265.305" xlink:href="#linear-gradient"/><linearGradient id="linear-gradient-6" x1="134.369" y1="265.306" x2="162.255" y2="265.306" gradientUnits="userSpaceOnUse"><stop offset="0" stop-color="#96acc2"/><stop offset="1" stop-color="#b2c3d4"/></linearGradient></defs><title>cards</title><g id="floor"><path class="cls-1" d="M124.051,372.147c3.534,2.1,3.534,5.5,0,7.605a13.783,13.783,0,0,1-12.8,0c-3.534-2.1-3.534-5.5,0-7.605A13.783,13.783,0,0,1,124.051,372.147Zm166.059-8.356c2.774,1.649,2.774,4.321,0,5.97a10.817,10.817,0,0,1-10.045,0c-2.774-1.649-2.774-4.321,0-5.97A10.817,10.817,0,0,1,290.11,363.791Zm-111.323,5.255L181.775,377m-8.19-3.091,13.391-1.776m-56.351,47.475,15.389,6.41m-13.087,1.368,10.786-9.146m147.055-108.3,10.832,4.511m-9.212.963,7.592-6.437"/><g class="cls-2"><path class="cls-3" d="M68.815,405.327,255.5,295.308a7.15,7.15,0,0,1,7.337.028l29.358,17.6a7.816,7.816,0,0,1,.042,13.252l-183.991,112a7.151,7.151,0,0,1-7.48-.006L68.715,418.6A7.816,7.816,0,0,1,68.815,405.327Z"/></g></g><g id="cards"><g id="cardBack"><path class="cls-4" d="M79.958,210.11,258.115,103.3a7.292,7.292,0,0,1,10.932,6.553v152.3a14.51,14.51,0,0,1-6.935,12.472L83.955,381.434a7.292,7.292,0,0,1-10.932-6.553v-152.3A14.513,14.513,0,0,1,79.958,210.11Z"/><path class="cls-5" d="M81.121,210.873,259.279,104.067a7.292,7.292,0,0,1,10.932,6.553v152.3a14.51,14.51,0,0,1-6.935,12.471L85.119,382.2a7.292,7.292,0,0,1-10.933-6.553v-152.3A14.513,14.513,0,0,1,81.121,210.873Z"/><polygon class="cls-6" points="74.186 246.31 270.211 128.633 270.211 159.29 74.186 276.806 74.186 246.31"/></g><g id="cardFront"><path class="cls-7" d="M122.494,225.266l178.157-106.8a7.292,7.292,0,0,1,10.932,6.553v152.3a14.51,14.51,0,0,1-6.935,12.472L126.491,396.59a7.291,7.291,0,0,1-10.932-6.553v-152.3A14.513,14.513,0,0,1,122.494,225.266Z"/><path class="cls-8" d="M123.657,226.029l178.158-106.8a7.292,7.292,0,0,1,10.932,6.553v152.3a14.513,14.513,0,0,1-6.935,12.472L127.655,397.353a7.291,7.291,0,0,1-10.932-6.553V238.5A14.512,14.512,0,0,1,123.657,226.029Z"/><path class="cls-9" d="M247.355,254.374l-1.76,1.055a.956.956,0,0,0-.449.807l.009,3.125a1.915,1.915,0,0,0-.661.7,1.837,1.837,0,0,0-.244.936l.007,2.572c0,.659.348.872.911.535l2.66-1.595a1.889,1.889,0,0,0,.9-1.622l-.007-2.572c0-.338-.083-.557-.247-.642a.669.669,0,0,0-.663.1l-.008-3.125c0-.281-.145-.451-.452-.267m-6.951,4.167-2.238,1.341a.928.928,0,0,0-.448.807c0,.391.216.412.451.271l1.334-.8.017,6.246-1.334.8a.928.928,0,0,0-.448.807c0,.39.216.412.451.271l3.568-2.139a.936.936,0,0,0,.452-.813l-.007-2.722c0-.313-.118-.468-.455-.265a.878.878,0,0,0-.449.807l.006,2.185-.88.527-.02-7.324m-8.305,4.978a.922.922,0,0,0-.453.809l.014,5.123,2.661-1.594.006,2.2c0,.346.127.466.455.269a.869.869,0,0,0,.452-.813l-.006-2.2a.937.937,0,0,0,.452-.813c0-.391-.22-.411-.455-.27l-.008-3.121c0-.268-.111-.475-.456-.269a.929.929,0,0,0-.452.813l.009,3.121-1.757,1.053-.011-4.041c0-.268-.107-.473-.451-.267m-10.386,6.226-2.664,1.6a2.084,2.084,0,0,0-.9,1.62l.017,6.246c0,.6.392.845.907.537l2.664-1.6a2.042,2.042,0,0,0,.9-1.62l-.017-6.247c0-.594-.409-.835-.907-.536m-6.525,3.911-2.66,1.595a2.085,2.085,0,0,0-.905,1.622l.018,6.246c0,.6.391.846.91.535l2.66-1.595a2.038,2.038,0,0,0,.9-1.622l-.017-6.246c0-.594-.412-.833-.91-.535m-6.521,3.909-2.664,1.6a2.085,2.085,0,0,0-.9,1.62l.017,6.247c0,.6.392.845.907.536l2.664-1.6a2.04,2.04,0,0,0,.9-1.62l-.017-6.246c0-.594-.409-.835-.907-.537m-6.525,3.912-2.66,1.594a2.087,2.087,0,0,0-.905,1.623l.017,6.246c0,.6.392.845.911.534l2.66-1.594a2.041,2.041,0,0,0,.9-1.623l-.017-6.246c0-.594-.412-.833-.91-.534M189.1,289.3l-2.664,1.6a2.084,2.084,0,0,0-.9,1.62l.017,6.246c0,.6.392.846.907.537l2.664-1.6a2.046,2.046,0,0,0,.9-1.622l-.017-6.246c0-.594-.412-.833-.91-.535m-6.525,3.911-3.114,1.867a.936.936,0,0,0-.452.809c0,.391.22.411.455.269l3.114-1.866,0,1.794a1.115,1.115,0,0,1-.448,1.06l-1.777,1.065a.934.934,0,0,0-.452.809c0,.391.22.41.455.269l1.777-1.065c.252-.151.451-.087.452.519l0,1.8-3.114,1.867a.934.934,0,0,0-.452.809c0,.39.22.41.455.269l3.114-1.867a2.017,2.017,0,0,0,.9-1.622l0-2.075c0-.431-.077-.7-.358-.837a2.234,2.234,0,0,0,.352-1.259l-.006-2.075c0-.615-.391-.845-.91-.535m-6.63,3.975-3.009,1.8a.929.929,0,0,0-.448.807c0,.391.216.413.451.272l3.118-1.869.007,2.584-2.545,1.525a1.994,1.994,0,0,0-1.019,1.834l.009,3.52,4.018-2.408a.937.937,0,0,0,.452-.813c0-.387-.22-.407-.455-.266l-3.114,1.867-.007-2.584,2.555-1.531a1.868,1.868,0,0,0,.732-.741,1.955,1.955,0,0,0,.277-1.132l-.006-2.214c0-.386-.029-.663-.282-.792-.226-.114-.434-.042-.734.138m-7.292,4.371-2.238,1.342a.934.934,0,0,0-.452.809c0,.39.22.41.455.269l1.33-.8.017,6.246-1.33.8a.936.936,0,0,0-.452.809c0,.391.22.411.455.27L170,309.16a.937.937,0,0,0,.452-.813l-.008-2.723c0-.313-.12-.465-.455-.265a.888.888,0,0,0-.452.809l.006,2.185-.876.526-.02-7.325m-13.05,7.823-2.234,1.339a.936.936,0,0,0-.452.809c0,.391.22.41.455.269l1.33-.8.017,6.246-1.33.8a.934.934,0,0,0-.452.809c0,.39.22.41.455.269l3.568-2.139a.936.936,0,0,0,.452-.813l-.008-2.722c0-.313-.12-.466-.455-.265a.882.882,0,0,0-.452.809l.006,2.185-.88.527-.02-7.324m-5.191,3.112-3.124,1.873.013,4.74,2.67-1.6.007,2.584-2.09,1.254a1.156,1.156,0,0,1-.482.072l-.273.021a.567.567,0,0,0-.287.087,1.057,1.057,0,0,0-.435.8c0,.379.274.313.52.3l.342-.021a1.1,1.1,0,0,0,.6-.165l2.009-1.2a1.753,1.753,0,0,0,.787-.839,1.916,1.916,0,0,0,.216-.973l-.006-2.311c0-.379-.029-.623-.286-.75-.215-.12-.434-.042-.724.132l-1.664,1-.007-2.584,2.217-1.329a.936.936,0,0,0,.452-.813c0-.387-.22-.406-.455-.265m-6.975,4.181-3.117,1.869a.926.926,0,0,0-.449.807c0,.39.216.412.452.271l3.117-1.869,0,1.8a1.118,1.118,0,0,1-.452,1.061l-1.777,1.065a.929.929,0,0,0-.448.807c0,.391.216.413.451.272l1.777-1.066c.253-.151.454-.088.456.518l0,1.794-3.117,1.869a.928.928,0,0,0-.449.807c0,.391.216.413.452.271l3.117-1.868a2.021,2.021,0,0,0,.9-1.62l-.006-2.076c0-.431-.073-.7-.354-.839a2.213,2.213,0,0,0,.348-1.256l0-2.076c0-.614-.392-.845-.907-.536m-6.071,3.639-3.124,1.873.013,4.741,2.67-1.6.007,2.584-2.091,1.253a1.151,1.151,0,0,1-.481.073l-.273.021a.579.579,0,0,0-.29.088,1.047,1.047,0,0,0-.432.8c0,.378.274.312.517.3l.345-.023a1.085,1.085,0,0,0,.6-.162l2.012-1.207a1.76,1.76,0,0,0,.787-.838,1.918,1.918,0,0,0,.216-.973l-.006-2.312c0-.378-.029-.622-.286-.75-.215-.119-.434-.041-.724.133l-1.668,1-.007-2.583,2.221-1.332a.936.936,0,0,0,.452-.813c0-.386-.22-.406-.455-.265m114.324-61.2,0-1.664,2.664-1.6,0,1.664-2.664,1.6m-6.521,3.909-.007-2.584,2.66-1.594.007,2.584-2.66,1.594m-58.713,35.2-.017-6.247,2.664-1.6.017,6.246-2.664,1.6M199.5,290.4l-.017-6.246,2.66-1.595.017,6.246-2.66,1.6m6.521-3.909-.017-6.246,2.664-1.6.017,6.246-2.664,1.6m6.525-3.911-.017-6.247,2.66-1.594.017,6.246-2.66,1.6m6.521-3.91-.017-6.246,2.664-1.6.017,6.247-2.664,1.6m26.99-19.847-.008-2.584.853-.511.007,2.584-.852.511m5.634-7.046-.542.325a.852.852,0,0,0-.387.77l.019,7.187c0,.5.166.581.589.328l3.3-1.977a1.058,1.058,0,0,0,.585-1.032l-.007-2.421c0-.5-.09-.671-.544-.4l-3.025,1.813-.01-3.5a.983.983,0,0,0,.452-.813c0-.281-.192-.423-.428-.282"/><path class="cls-10" d="M247.665,253.829l-1.76,1.055a.956.956,0,0,0-.449.807l.008,3.125a1.9,1.9,0,0,0-.66.7,1.824,1.824,0,0,0-.244.936l.007,2.572c0,.659.348.872.91.534l2.661-1.594a1.891,1.891,0,0,0,.9-1.623l-.007-2.571c0-.338-.083-.558-.248-.643a.668.668,0,0,0-.662.1l-.009-3.125c0-.281-.144-.451-.451-.267M240.713,258l-2.237,1.342a.929.929,0,0,0-.449.807c0,.39.217.412.452.271l1.334-.8.017,6.246-1.334.8a.93.93,0,0,0-.449.807c0,.391.217.413.452.272l3.568-2.139a.937.937,0,0,0,.452-.813l-.008-2.722c0-.314-.117-.468-.455-.266a.884.884,0,0,0-.449.807l.006,2.186-.88.527-.02-7.325m-8.305,4.979a.918.918,0,0,0-.452.809l.014,5.123,2.661-1.6.006,2.2c0,.346.127.465.455.269a.869.869,0,0,0,.452-.813l-.006-2.2a.939.939,0,0,0,.452-.814c0-.39-.22-.41-.455-.269l-.009-3.121c0-.269-.11-.476-.455-.269a.924.924,0,0,0-.452.813l.009,3.121-1.757,1.053-.011-4.041c0-.268-.107-.474-.452-.267M222.023,269.2l-2.664,1.6a2.083,2.083,0,0,0-.9,1.621l.017,6.246c0,.6.392.845.907.536l2.664-1.6a2.038,2.038,0,0,0,.9-1.621l-.017-6.246c0-.594-.408-.835-.906-.536m-6.525,3.911-2.661,1.6a2.085,2.085,0,0,0-.9,1.622l.017,6.246c0,.6.392.845.91.535l2.661-1.595a2.041,2.041,0,0,0,.9-1.622l-.017-6.247c0-.594-.412-.833-.91-.534m-6.521,3.909-2.664,1.6a2.081,2.081,0,0,0-.9,1.62l.017,6.246c0,.6.392.846.907.537l2.663-1.6a2.036,2.036,0,0,0,.9-1.62l-.017-6.246c0-.594-.409-.835-.906-.537m-6.525,3.911-2.661,1.6a2.084,2.084,0,0,0-.9,1.622l.017,6.247c0,.6.392.845.91.534l2.661-1.595a2.039,2.039,0,0,0,.9-1.622l-.017-6.246c0-.594-.412-.833-.91-.535m-13.046,7.821-2.664,1.6a2.081,2.081,0,0,0-.9,1.62l.017,6.246c0,.6.392.845.907.537l2.664-1.6a2.046,2.046,0,0,0,.9-1.622l-.017-6.247c0-.594-.412-.833-.91-.534m-6.525,3.911-3.114,1.867a.934.934,0,0,0-.452.809c0,.39.22.41.455.269l3.114-1.867.005,1.8a1.115,1.115,0,0,1-.448,1.059l-1.777,1.065a.935.935,0,0,0-.452.81c0,.39.219.41.455.269l1.777-1.065c.252-.152.45-.087.452.519l.005,1.8-3.114,1.866a.936.936,0,0,0-.452.809c0,.391.22.411.455.27l3.114-1.867a2.023,2.023,0,0,0,.9-1.622l0-2.075c0-.432-.078-.7-.358-.838a2.231,2.231,0,0,0,.352-1.258l-.006-2.075c0-.615-.392-.846-.91-.535m-6.631,3.975-3.008,1.8a.929.929,0,0,0-.449.807c0,.391.217.412.452.271l3.118-1.868.007,2.584-2.545,1.525a2,2,0,0,0-1.02,1.834l.01,3.52,4.018-2.409a.936.936,0,0,0,.452-.813c0-.386-.22-.406-.455-.265l-3.114,1.867-.007-2.584,2.554-1.532a1.866,1.866,0,0,0,.733-.74,1.957,1.957,0,0,0,.277-1.132l-.006-2.214c0-.387-.029-.663-.282-.793-.226-.113-.434-.041-.735.139m-7.292,4.371-2.237,1.341a.936.936,0,0,0-.452.809c0,.391.219.411.455.27l1.33-.8.017,6.246-1.33.8a.934.934,0,0,0-.452.809c0,.391.219.41.455.269l3.567-2.138a.936.936,0,0,0,.453-.814l-.008-2.722c0-.313-.121-.465-.455-.265a.887.887,0,0,0-.452.809l.006,2.185-.877.526-.02-7.325m-13.049,7.823-2.234,1.339a.932.932,0,0,0-.452.809c0,.39.219.41.455.269l1.33-.8.017,6.246-1.33.8a.933.933,0,0,0-.452.809c0,.391.219.411.455.27l3.567-2.139a.935.935,0,0,0,.453-.813l-.008-2.722c0-.314-.121-.466-.455-.266a.882.882,0,0,0-.452.809l.006,2.186-.88.527-.02-7.324m-5.191,3.111-3.125,1.873.013,4.741,2.671-1.6.007,2.584-2.091,1.253a1.151,1.151,0,0,1-.481.073l-.274.021a.562.562,0,0,0-.286.086,1.054,1.054,0,0,0-.435.8c0,.379.274.313.52.3l.341-.022a1.1,1.1,0,0,0,.6-.164l2.009-1.2a1.762,1.762,0,0,0,.787-.839,1.916,1.916,0,0,0,.216-.973l-.006-2.312c0-.378-.029-.622-.286-.749-.216-.12-.434-.042-.724.132l-1.664,1-.007-2.584,2.217-1.329a.937.937,0,0,0,.452-.813c0-.387-.22-.407-.455-.266m-6.975,4.182-3.118,1.868a.927.927,0,0,0-.448.807c0,.391.216.413.451.272l3.118-1.869,0,1.794a1.122,1.122,0,0,1-.452,1.062l-1.777,1.065a.929.929,0,0,0-.449.807c0,.391.217.412.452.271l1.777-1.065c.252-.151.454-.089.456.518l0,1.794-3.118,1.869a.926.926,0,0,0-.448.807c0,.391.216.412.451.271l3.118-1.869a2.021,2.021,0,0,0,.9-1.62l-.006-2.075c0-.431-.074-.7-.354-.839a2.222,2.222,0,0,0,.348-1.257l-.006-2.075c0-.614-.391-.845-.906-.536m-6.071,3.639-3.125,1.873.013,4.74,2.671-1.6.007,2.584-2.091,1.254a1.134,1.134,0,0,1-.481.072l-.274.021a.581.581,0,0,0-.29.089,1.049,1.049,0,0,0-.431.8c0,.378.274.312.516.3l.345-.023a1.09,1.09,0,0,0,.6-.163l2.012-1.206a1.767,1.767,0,0,0,.787-.839,1.916,1.916,0,0,0,.216-.973l-.006-2.311c0-.378-.029-.623-.286-.75-.216-.119-.434-.041-.724.132l-1.668,1-.007-2.584,2.221-1.331a.936.936,0,0,0,.452-.813c0-.387-.22-.406-.455-.265M252,258.569l0-1.664,2.664-1.6,0,1.664-2.664,1.6m-6.522,3.909-.007-2.584,2.661-1.6.007,2.584-2.661,1.6m-58.712,35.195-.017-6.246,2.664-1.6.017,6.246-2.664,1.6m13.049-7.822-.017-6.247,2.661-1.594.017,6.246-2.661,1.6m6.522-3.909-.017-6.247,2.663-1.6.018,6.247-2.664,1.6m6.524-3.912-.017-6.246,2.661-1.595.017,6.246-2.661,1.595m6.522-3.909-.017-6.246,2.664-1.6.017,6.246-2.664,1.6m26.989-19.847-.007-2.584.853-.511.007,2.584-.853.511M252,251.228l-.542.325a.855.855,0,0,0-.388.77l.02,7.186c0,.5.166.582.588.328l3.3-1.977a1.054,1.054,0,0,0,.584-1.031l-.006-2.421c0-.5-.091-.671-.544-.4l-3.026,1.813-.009-3.5a.986.986,0,0,0,.452-.814c0-.28-.193-.422-.428-.281"/><path class="cls-12" d="M288.813,256.05a21.346,21.346,0,0,0-3.618,11.134c.01,3.63,1.443,6.012,3.667,6.768a21.343,21.343,0,0,0,3.618-11.135c-.009-3.631-1.443-6.012-3.667-6.767"/><path class="cls-13" d="M282.911,257.143c-5.274,3.161-9.534,10.824-9.516,17.115s4.3,8.83,9.578,5.669a18.986,18.986,0,0,0,5.889-5.966l0,0,0-.007c-2.224-.756-3.657-3.138-3.667-6.768a21.346,21.346,0,0,1,3.618-11.134h0l0-.008c-1.627-.55-3.677-.232-5.9,1.1"/><path class="cls-14" d="M294.7,250.074a18.992,18.992,0,0,0-5.89,5.967l0,.008h0c2.224.755,3.658,3.136,3.667,6.767a21.343,21.343,0,0,1-3.618,11.135l0,.007,0,0c1.628.549,3.678.231,5.9-1.1,5.272-3.16,9.533-10.823,9.516-17.115s-4.306-8.829-9.578-5.669"/><path class="cls-9" d="M135.733,345.128,134,346.167a.729.729,0,0,0-.347.629c0,.3.17.314.349.207l1.032-.619.014,4.838-1.033.618a.728.728,0,0,0-.346.63c0,.3.17.32.349.212l2.764-1.657a.729.729,0,0,0,.352-.633l-.006-2.111c0-.238-.09-.361-.354-.2a.683.683,0,0,0-.346.623l0,1.69-.685.411-.016-5.674m5.656-3.39-2.333,1.4a.728.728,0,0,0-.346.63c0,.295.17.313.349.206l2.417-1.449,0,2-1.974,1.184a1.541,1.541,0,0,0-.788,1.416l.008,2.733,3.112-1.866a.731.731,0,0,0,.352-.632c0-.3-.17-.32-.354-.21l-2.412,1.446-.006-2,1.98-1.187a1.487,1.487,0,0,0,.569-.573,1.527,1.527,0,0,0,.213-.877l0-1.715c0-.3-.023-.516-.218-.619-.18-.081-.338-.03-.57.109m5.5-3.3a.961.961,0,0,0-.346.529l-2.608,6.938a1.522,1.522,0,0,0-.152.525c0,.22.175.291.349.187a.872.872,0,0,0,.341-.5l2.682-7.12a1.089,1.089,0,0,0,.078-.375c0-.213-.165-.291-.344-.184m5.045-3.024-2.417,1.449.01,3.675,2.07-1.24,0,2-1.622.972a.868.868,0,0,1-.374.061l-.211.013a.454.454,0,0,0-.221.07.812.812,0,0,0-.336.616c0,.3.211.245.4.232l.264-.014a.914.914,0,0,0,.464-.127l1.559-.934a1.39,1.39,0,0,0,.61-.655,1.467,1.467,0,0,0,.166-.755l0-1.79c0-.289-.023-.478-.218-.581-.169-.094-.338-.03-.564.1l-1.291.774-.005-2,1.717-1.03a.724.724,0,0,0,.351-.626c0-.3-.169-.32-.354-.209m2.659,4.089,2.065-1.238-.013-4.838-2.065,1.238.013,4.838m2.049-6.911c.385-.231.7-.043.7.415l.013,4.838a1.582,1.582,0,0,1-.7,1.262l-2.064,1.238c-.4.239-.7.049-.7-.423l-.013-4.837a1.61,1.61,0,0,1,.7-1.256l2.064-1.237"/><path class="cls-15" d="M135.965,344.472l-1.732,1.039a.729.729,0,0,0-.347.629c0,.3.17.314.349.207l1.032-.619.014,4.838-1.033.619a.725.725,0,0,0-.346.629c0,.3.17.32.349.212l2.764-1.657a.727.727,0,0,0,.352-.632l-.006-2.111c0-.239-.09-.361-.354-.2a.683.683,0,0,0-.346.623l0,1.691-.685.41-.016-5.674m5.656-3.39-2.333,1.4a.728.728,0,0,0-.346.63c0,.295.17.313.349.206l2.417-1.449,0,2-1.974,1.184a1.541,1.541,0,0,0-.788,1.416l.008,2.733,3.112-1.865a.733.733,0,0,0,.352-.633c0-.3-.17-.32-.354-.209l-2.412,1.445-.006-2,1.98-1.186a1.491,1.491,0,0,0,.569-.574,1.526,1.526,0,0,0,.213-.877l0-1.715c0-.3-.023-.515-.218-.618-.18-.082-.338-.031-.57.108m5.5-3.3a.965.965,0,0,0-.346.529l-2.608,6.938a1.522,1.522,0,0,0-.152.525c0,.22.175.291.349.187a.872.872,0,0,0,.341-.5l2.682-7.12a1.088,1.088,0,0,0,.078-.374c0-.214-.165-.292-.344-.185m5.045-3.024-2.417,1.449.01,3.676,2.07-1.241,0,2-1.622.972a.854.854,0,0,1-.374.061l-.211.013a.465.465,0,0,0-.221.07.812.812,0,0,0-.336.617c0,.3.211.244.4.231l.264-.013a.934.934,0,0,0,.464-.127l1.559-.935a1.385,1.385,0,0,0,.61-.655,1.467,1.467,0,0,0,.166-.755l0-1.79c0-.289-.023-.478-.218-.581-.169-.093-.338-.03-.564.106l-1.291.773-.005-2,1.717-1.029a.727.727,0,0,0,.351-.627c0-.3-.169-.319-.354-.209m2.659,4.089,2.065-1.238-.013-4.838-2.065,1.238.013,4.838m2.049-6.911c.385-.231.7-.043.7.416l.013,4.837a1.581,1.581,0,0,1-.7,1.262l-2.064,1.238c-.4.24-.7.049-.7-.422l-.013-4.838a1.61,1.61,0,0,1,.7-1.256l2.064-1.237"/><path class="cls-9" d="M190.162,326.634a1.137,1.137,0,0,0-.591,1.062l.022,7.893a1.372,1.372,0,0,1-.734,1.437l-2.013,1.207c-.535.321-.737.243-.74-.554l-.021-7.893c0-.453-.169-.607-.595-.352a1.131,1.131,0,0,0-.59,1.062l.021,7.894c0,.652.061,1.125.454,1.419.415.3.876.2,1.474-.162l2.014-1.207a3.72,3.72,0,0,0,1.471-1.6,3.8,3.8,0,0,0,.444-1.958l-.022-7.893c0-.453-.168-.607-.594-.352m-27.9,16.723-.656.393a1.037,1.037,0,0,0-.528.956l0,.652c0,.48.226.5.531.314l.656-.393a1.034,1.034,0,0,0,.533-.953v-.652c0-.48-.232-.5-.537-.317M137.59,358.148l-3.936,2.359.029,10.3c0,.453.168.607.594.352a1.139,1.139,0,0,0,.591-1.063l-.01-3.452,2.6-1.559a3.609,3.609,0,0,0,1.586-1.631,3.941,3.941,0,0,0,.478-2.1l0-1.922c0-.769-.05-1.263-.563-1.525-.427-.226-.819-.087-1.365.24m15.828-8.911-1.2.721a1.352,1.352,0,0,0-.781,1.149c0,.6.456.407.784.21l.9-.541.021,7.715-.9.541a1.342,1.342,0,0,0-.78,1.149c0,.6.456.407.784.21l2.894-1.734a1.381,1.381,0,0,0,.786-1.152c0-.584-.41-.435-.79-.207l-.851.51-.022-8.12c0-.81-.193-.84-.843-.451m18.228-8.114-1.95,1.169a3.3,3.3,0,0,0-1.56,2.661c0,.878.371,1.1,1,1.057l2.685-.145c.265-.021.594,0,.595.324a1.361,1.361,0,0,1-.824,1.244l-.118.07-1.542.924c-.356.214-.713.4-.915.254a.365.365,0,0,0-.438.021,1.342,1.342,0,0,0-.6,1.039c0,.336.312.4.525.475.427.143.83-.071,1.428-.43l1.755-1.051a3.657,3.657,0,0,0,1.864-3.146c0-.975-.384-1.3-1.115-1.256l-2.853.162c-.167.018-.311.015-.311-.212a.774.774,0,0,1,.467-.66c.062-.038.123-.071.176-.1l1.732-1.038c.305-.183.506-.276.7-.15a.393.393,0,0,0,.489-.012,1.336,1.336,0,0,0,.58-1.028c0-.384-.244-.4-.457-.489-.427-.17-.686-.056-1.313.32m-9.683,5.8-1.2.717a1.343,1.343,0,0,0-.781,1.149c0,.59.451.41.785.21l.9-.541.013,4.907-.9.542a1.342,1.342,0,0,0-.781,1.148c0,.6.451.411.785.211l2.893-1.735a1.37,1.37,0,0,0,.781-1.148c0-.584-.405-.438-.784-.211l-.852.511-.014-5.32c0-.81-.193-.833-.849-.44m-16.379,9.818-.9.542a4.2,4.2,0,0,0-1.609,1.727,3.378,3.378,0,0,0-.72,2.206l.007,2.56c0,.892.193,1.115.788,1.357s.83.21,1.555-.224l.9-.542a3.828,3.828,0,0,0,1.551-1.638,3.691,3.691,0,0,0,.778-2.3l-.007-2.56c0-.906-.159-1.129-.73-1.336a1.441,1.441,0,0,0-1.613.2m34.148-17.252-.857.514a1.252,1.252,0,0,0-.615.636,1.413,1.413,0,0,0-.13.718l0,.789c0,.268,0,.426.134.56.167.167.357.053.616-.1l.857-.514a1.252,1.252,0,0,0,.615-.636,1.466,1.466,0,0,0,.125-.715l0-.789c0-.275,0-.426-.128-.562-.168-.168-.358-.054-.617.1M144.7,363.553a.729.729,0,0,1-.783.1c-.335-.136-.416-.273-.417-.555l-.007-2.56a1.908,1.908,0,0,1,.412-1.058,2.112,2.112,0,0,1,.782-.833l.9-.542a.736.736,0,0,1,.783-.1c.335.143.416.273.417.562l.007,2.56a1.884,1.884,0,0,1-.412,1.051,2.134,2.134,0,0,1-.782.84l-.9.541m50.748-32.888.916-4.386.023-.013.925,3.281-1.864,1.118m-60.592,34.568-.011-4.022,2.635-1.58c.7-.417.852-.3.855.513l0,1.976a1.427,1.427,0,0,1-.849,1.533l-2.635,1.58m61.51-42.317a1.516,1.516,0,0,0-.6,1.083l-2.3,10.975c-.086.388.237.566.571.366a1.665,1.665,0,0,0,.637-1.09l.45-1.975,2.525-1.514.442,1.44c.082.288.272.545.641.325a1.225,1.225,0,0,0,.567-1.049l-2.316-8.209c-.081-.323-.226-.586-.617-.352"/><path class="cls-16" d="M190.542,325.859a1.137,1.137,0,0,0-.59,1.062l.021,7.894a1.37,1.37,0,0,1-.733,1.436l-2.014,1.207c-.535.321-.737.243-.739-.553l-.022-7.894c0-.453-.168-.607-.594-.352a1.131,1.131,0,0,0-.591,1.063l.022,7.893c0,.652.06,1.126.453,1.42.416.3.877.2,1.475-.163l2.014-1.207a3.719,3.719,0,0,0,1.47-1.6,3.8,3.8,0,0,0,.444-1.958l-.021-7.893c0-.453-.169-.607-.595-.352m-27.9,16.723-.655.393a1.037,1.037,0,0,0-.528.956l0,.652c0,.48.226.5.531.314l.656-.393a1.035,1.035,0,0,0,.533-.952l0-.652c0-.481-.232-.5-.537-.318M137.97,357.374l-3.935,2.358.028,10.3c0,.453.169.607.595.352a1.137,1.137,0,0,0,.59-1.062l-.009-3.453,2.6-1.559a3.6,3.6,0,0,0,1.586-1.631,3.943,3.943,0,0,0,.479-2.1l-.006-1.922c0-.768-.049-1.263-.563-1.525-.427-.226-.818-.087-1.365.241m15.829-8.911-1.2.72a1.35,1.35,0,0,0-.78,1.149c0,.6.456.407.784.21l.9-.541.021,7.715-.9.541a1.345,1.345,0,0,0-.781,1.149c0,.6.457.407.785.211l2.893-1.735a1.384,1.384,0,0,0,.787-1.152c0-.584-.41-.435-.79-.207l-.852.51-.022-8.12c0-.81-.192-.84-.842-.45m18.228-8.115-1.951,1.169a3.3,3.3,0,0,0-1.56,2.661c0,.878.372,1.1,1,1.057l2.685-.145c.265-.021.593,0,.594.325a1.36,1.36,0,0,1-.824,1.243l-.117.07-1.542.925c-.357.213-.714.4-.916.253a.365.365,0,0,0-.438.022,1.341,1.341,0,0,0-.6,1.038c0,.336.312.4.526.475.426.143.829-.071,1.428-.429l1.754-1.052a3.658,3.658,0,0,0,1.865-3.146c0-.975-.384-1.3-1.116-1.256l-2.852.163c-.167.017-.311.014-.312-.212a.774.774,0,0,1,.467-.661c.063-.038.123-.071.176-.1l1.732-1.038c.305-.183.507-.276.7-.15a.4.4,0,0,0,.49-.011,1.339,1.339,0,0,0,.579-1.028c0-.385-.243-.4-.457-.49-.426-.17-.685-.056-1.312.32m-9.683,5.8-1.2.717a1.342,1.342,0,0,0-.78,1.149c0,.59.45.41.784.21l.9-.541.014,4.908-.9.541a1.342,1.342,0,0,0-.78,1.149c0,.6.45.41.784.21l2.894-1.735a1.372,1.372,0,0,0,.781-1.148c0-.584-.405-.438-.785-.211l-.851.511-.015-5.32c0-.81-.192-.833-.848-.44m-16.379,9.819-.9.541a4.185,4.185,0,0,0-1.608,1.728,3.368,3.368,0,0,0-.72,2.2l.007,2.56c0,.893.193,1.115.787,1.357s.83.21,1.555-.224l.9-.542a3.834,3.834,0,0,0,1.551-1.638,3.681,3.681,0,0,0,.777-2.3l-.007-2.56c0-.906-.158-1.129-.729-1.336a1.442,1.442,0,0,0-1.613.2m34.148-17.253-.858.514a1.252,1.252,0,0,0-.614.637,1.409,1.409,0,0,0-.131.717l0,.79c0,.267,0,.425.134.559.168.167.358.054.617-.1l.857-.514a1.248,1.248,0,0,0,.615-.636,1.462,1.462,0,0,0,.124-.714l0-.79c0-.274,0-.425-.128-.562-.168-.168-.357-.054-.616.1m-35.034,24.061a.73.73,0,0,1-.784.1c-.334-.136-.416-.273-.416-.555l-.007-2.56a1.9,1.9,0,0,1,.412-1.058,2.11,2.11,0,0,1,.781-.833l.9-.541a.737.737,0,0,1,.784-.106c.334.144.415.274.416.562l.007,2.56a1.886,1.886,0,0,1-.412,1.052,2.135,2.135,0,0,1-.781.839l-.9.542m50.747-32.889.916-4.385.023-.014.925,3.282-1.864,1.117m-60.591,34.568-.011-4.022,2.635-1.58c.7-.417.852-.3.854.513l.006,1.977a1.429,1.429,0,0,1-.849,1.533l-2.635,1.579m61.509-42.317a1.523,1.523,0,0,0-.6,1.083l-2.3,10.975c-.085.388.238.566.572.366a1.66,1.66,0,0,0,.636-1.09l.45-1.975,2.526-1.513.442,1.44c.081.288.272.545.64.324a1.226,1.226,0,0,0,.568-1.049l-2.316-8.209c-.082-.322-.226-.586-.618-.352"/><path class="cls-17" d="M288.91,163.783a2.184,2.184,0,0,0-.93,2.2c.219.523.551.927.781,1.443a8.967,8.967,0,0,1,.536,1.617,17.9,17.9,0,0,1-.4,8.55c-.218.793-.479,1.589-.732,2.385-.2.634-.343,1.245-.038,1.562a.624.624,0,0,0,.8,0,1.845,1.845,0,0,0,.356-.286,4.977,4.977,0,0,0,.872-1.815,25.677,25.677,0,0,0,1.523-8.375,15.4,15.4,0,0,0-.573-4.368,9.5,9.5,0,0,0-.7-1.715,8.506,8.506,0,0,0-.448-.751c-.136-.2-.259-.468-.478-.542a.681.681,0,0,0-.576.1m-3.662,4.424a2.2,2.2,0,0,0-.968,1.8c.02.457.341.743.509,1.055a6.658,6.658,0,0,1,.453,1.057,11.235,11.235,0,0,1-.205,6.359c-.291,1.019-1.1,2.594-.47,3.09a.555.555,0,0,0,.67,0,2.97,2.97,0,0,0,1.02-1.423,18,18,0,0,0,1.311-6.686l.029-.015a12.861,12.861,0,0,0-.518-3.322,7.5,7.5,0,0,0-.563-1.246c-.193-.341-.378-.762-.764-.8a.827.827,0,0,0-.5.136m-3.453,4.146a2.176,2.176,0,0,0-.922,1.376c-.16.83.348,1.086.589,1.56a4.824,4.824,0,0,1,.269,2.375,9.132,9.132,0,0,1-.707,2.53c-.279.73-.2,1.461.326,1.465a.953.953,0,0,0,.479-.153,1.919,1.919,0,0,0,.634-.65,11.326,11.326,0,0,0,.964-2.611,9.049,9.049,0,0,0,.317-2.474,5.6,5.6,0,0,0-.49-2.446c-.235-.489-.571-1.238-1.176-1.092a1.041,1.041,0,0,0-.283.12m10.683-12.924a1.838,1.838,0,0,0-.337.269c-1.408,1.384-.106,2.7.228,3.4a17.518,17.518,0,0,1,1.238,9.2,30.256,30.256,0,0,1-1.079,5.462c-.268.915-.619,1.83-.894,2.743-.248.828.08,1.452.719,1.2a2.084,2.084,0,0,0,.937-.983,11.518,11.518,0,0,0,.516-1.4c.342-1.014.641-2.028.894-3.033a33.029,33.029,0,0,0,.975-6.121,19.1,19.1,0,0,0-1.365-8.89,10.547,10.547,0,0,0-.859-1.589.653.653,0,0,0-.973-.26"/><path class="cls-18" d="M136.985,255.46l21.734-13.028a2.313,2.313,0,0,1,3.468,2.079V270.42a5.5,5.5,0,0,1-2.624,4.726L137.9,288.176a2.313,2.313,0,0,1-3.471-2.07l-.071-25.9A5.506,5.506,0,0,1,136.985,255.46Z"/><path class="cls-19" d="M162.255,265.553v-.622l-8.774,5.259c-1.022.614-1.86.118-1.864-1.1l-.014-5.441,10.631-6.373,0-.621L151.6,263.026l-.015-5.441a4.284,4.284,0,0,1,1.852-3.33L162.21,249l0-.622-8.515,5.105-.022-8.021-.52.312.021,8.038a5.558,5.558,0,0,0-2.108,4.089l.006,2.1a.959.959,0,0,0-.714.155l-4.114,2.467a2.387,2.387,0,0,0-.708.693l-.006-2.093c0-1.458-.939-2.108-2.128-1.55l-.022-8.038-.521.312.022,8.021-8.51,5.1v.621l8.773-5.259c1.023-.613,1.856-.114,1.86,1.106l.009,3.3.006,2.143-10.627,6.37,0,.622,10.626-6.37.006,2.144.009,3.3a4.274,4.274,0,0,1-1.847,3.328l-8.773,5.259v.621l8.511-5.1.022,8.015.521-.312-.022-8.032a5.557,5.557,0,0,0,2.113-4.093l-.006-2.092a.961.961,0,0,0,.709-.157L150.378,268a2.414,2.414,0,0,0,.712-.7l.006,2.1c0,1.461.933,2.109,2.123,1.552l.022,8.033.521-.313-.022-8.015Zm-11.879,1.828-4.115,2.467c-.389.233-.709.044-.71-.426l-.014-4.909a1.64,1.64,0,0,1,.706-1.276l4.115-2.466c.394-.236.714-.047.715.423l.007,2.559.007,2.35A1.639,1.639,0,0,1,150.376,267.381Z"/><path class="cls-20" d="M295.563,202.591C275.194,214.8,256.75,216,243.354,208.077c-11.808-7-19.671-21.073-21.4-40.978l-5.621,3.372c1.749,21.729,10.258,37.117,23.073,44.7,14.4,8.522,34.28,7.225,56.177-5.905a123.806,123.806,0,0,0,17.158-12.512v-6.867A116.135,116.135,0,0,1,295.563,202.591Z"/></g></g></svg>