<svg xmlns="http://www.w3.org/2000/svg" xmlns:xlink="http://www.w3.org/1999/xlink" width="927" height="1080" viewBox="0 0 927 1080"><defs><style>.a,.c,.e,.p,.r,.s{fill:none;}.b{fill:url(#a);}.c{stroke:#c5f74b;}.c,.e,.p,.r,.s{stroke-miterlimit:10;}.d{fill:url(#b);}.e{stroke:#4bb3f7;}.f{clip-path:url(#c);}.g{fill:url(#d);}.h{fill:url(#f);}.i{fill:url(#g);}.j{fill:url(#h);}.k{clip-path:url(#i);}.l{fill:url(#j);}.m{fill:url(#k);}.n{fill:url(#l);}.o{fill:url(#m);}.p,.r{stroke:#d8a700;}.p{stroke-width:4px;}.q{fill:#fec315;}.s{stroke-width:3px;stroke:url(#n);}.t{fill:url(#o);}.u{fill:url(#p);}.v{fill:url(#q);}.w{fill:url(#r);}.x{fill:url(#s);}.y{fill:url(#t);}.z{fill:url(#u);}.aa{fill:url(#v);}.ab{fill:url(#w);}.ac{fill:url(#x);}.ad{fill:#e65440;}.ae{fill:#ff5d47;}.af{fill:url(#y);}.ag{fill:url(#z);}.ah{fill:url(#aa);}.ai{fill:url(#ab);}.aj{fill:url(#ac);}.ak{fill:url(#ad);}.al{fill:url(#ae);}.am{fill:url(#af);}.an{fill:url(#ag);}.ao{fill:url(#ah);}.ap{fill:url(#ai);}.aq{fill:url(#aj);}.ar{fill:url(#ak);}.as{fill:url(#al);}.at{fill:url(#am);}.au{fill:url(#an);}.av{fill:url(#ao);}.aw{fill:url(#ap);}.ax{fill:url(#aq);}.ay{fill:url(#ar);}.az{fill:url(#as);}.ba{fill:url(#at);}.bb{fill:url(#au);}.bc{fill:url(#av);}.bd{fill:url(#aw);}.be{fill:url(#ax);}.bf{fill:url(#ay);}.bg{fill:url(#az);}.bh{fill:url(#ba);}.bi{fill:url(#bb);}.bj{fill:url(#bc);}.bk{fill:url(#bd);}</style><linearGradient id="a" x1="36" y1="153" x2="36" gradientUnits="userSpaceOnUse"><stop offset="0" stop-color="#69bc00"/><stop offset="1" stop-color="#afd300"/></linearGradient><linearGradient id="b" x1="36" y1="153" x2="36" gradientUnits="userSpaceOnUse"><stop offset="0" stop-color="#004ebc"/><stop offset="1" stop-color="#009dd3"/></linearGradient><clipPath id="c"><rect class="a" y="-1314" width="1920" height="1080"/></clipPath><radialGradient id="d" cx="531" cy="-511" r="1198" gradientUnits="userSpaceOnUse"><stop offset="0" stop-color="#2bb9de"/><stop offset="1" stop-color="#2bb9de" stop-opacity="0"/></radialGradient><linearGradient id="f" x1="962.695" y1="1989.75" x2="1207.376" y2="1989.75" gradientTransform="translate(563.876 2117.922) rotate(-165.803)" gradientUnits="userSpaceOnUse"><stop offset="0" stop-color="#2bb9de"/><stop offset="1" stop-color="#0a62c7"/></linearGradient><linearGradient id="g" x1="117.192" y1="1974.9" x2="365.584" y2="1974.9" gradientTransform="translate(1151.512 1723.948) rotate(158.197)" xlink:href="#f"/><linearGradient id="h" x1="-506.566" y1="1495.272" x2="-287.3" y2="1495.272" gradientTransform="translate(1395.349 1059.813) rotate(122.197)" xlink:href="#f"/><clipPath id="i"><rect class="a" width="927" height="1080"/></clipPath><linearGradient id="j" x1="8446.67" y1="494.575" x2="9131.835" y2="494.575" gradientTransform="matrix(-0.984, -0.176, -0.176, 0.984, 8876.521, 1572.999)" gradientUnits="userSpaceOnUse"><stop offset="0" stop-color="#fee215"/><stop offset="1" stop-color="#2bb9de" stop-opacity="0"/></linearGradient><linearGradient id="k" x1="129.29" y1="-234" x2="129.29" y2="-1124.111" gradientTransform="translate(-10.499 1314.131)" gradientUnits="userSpaceOnUse"><stop offset="0" stop-color="#0a62c7"/><stop offset="0.65" stop-color="#754c24"/></linearGradient><linearGradient id="l" x1="424.414" y1="-24.195" x2="424.414" y2="360.962" gradientTransform="matrix(1, 0, 0, 1, 0, 0)" xlink:href="#f"/><linearGradient id="m" x1="322.151" y1="-138.954" x2="322.151" y2="234.814" gradientTransform="translate(75.028 19.915) rotate(-3.385)" xlink:href="#f"/><linearGradient id="n" x1="512.945" y1="670.854" x2="543.967" y2="670.854" gradientTransform="translate(-66.155 -39.134) rotate(8.347)" gradientUnits="userSpaceOnUse"><stop offset="0" stop-color="#3bbc00"/><stop offset="1" stop-color="#7cd300"/></linearGradient><linearGradient id="o" x1="533.248" y1="543.224" x2="571.236" y2="543.224" gradientTransform="translate(-66.155 -39.134) rotate(8.347)" xlink:href="#a"/><linearGradient id="p" x1="512.64" y1="663.259" x2="550.628" y2="663.259" gradientTransform="matrix(0.92, 0.392, -0.392, 0.92, 157.769, -155.572)" xlink:href="#a"/><linearGradient id="q" x1="531.65" y1="756.73" x2="569.638" y2="756.73" gradientTransform="matrix(0.92, 0.392, -0.392, 0.92, 157.769, -155.572)" xlink:href="#a"/><linearGradient id="r" x1="582.891" y1="581.216" x2="620.878" y2="581.216" gradientTransform="matrix(-0.989, -0.145, -0.145, 0.989, 1039.674, 123.108)" xlink:href="#a"/><linearGradient id="s" x1="552.52" y1="655.231" x2="590.508" y2="655.231" gradientTransform="matrix(-0.995, 0.098, 0.098, 0.995, 847.107, -15.894)" xlink:href="#a"/><linearGradient id="t" x1="146.713" y1="915.722" x2="365.952" y2="915.722" gradientTransform="matrix(1, 0, 0, 1, 0, 0)" xlink:href="#f"/><linearGradient id="u" x1="-14.911" y1="891.811" x2="216.235" y2="891.811" gradientTransform="matrix(1, 0, 0, 1, 0, 0)" xlink:href="#f"/><linearGradient id="v" x1="-223.717" y1="926.673" x2="147.366" y2="926.673" gradientTransform="matrix(1, 0, 0, 1, 0, 0)" xlink:href="#f"/><linearGradient id="w" x1="520.428" y1="639.668" x2="710.493" y2="639.668" gradientTransform="translate(-699.385 1654.117) rotate(-93.803)" xlink:href="#f"/><linearGradient id="x" x1="146.713" y1="1014.933" x2="516.809" y2="1014.933" gradientTransform="matrix(1, 0, 0, 1, 0, 0)" xlink:href="#f"/><linearGradient id="y" x1="572.587" y1="886.911" x2="603.274" y2="886.911" gradientTransform="translate(-138.513 -49.986) rotate(15.039)" gradientUnits="userSpaceOnUse"><stop offset="0" stop-color="#5f74f5"/><stop offset="1" stop-color="#4d45f7"/></linearGradient><linearGradient id="z" x1="526.383" y1="913.654" x2="641.508" y2="913.654" xlink:href="#y"/><linearGradient id="aa" x1="637.313" y1="830.188" x2="655.858" y2="830.188" xlink:href="#y"/><linearGradient id="ab" x1="629.062" y1="822.029" x2="655.893" y2="822.029" xlink:href="#y"/><linearGradient id="ac" x1="290.267" y1="833.998" x2="536.374" y2="833.998" gradientTransform="translate(-138.513 -49.986) rotate(15.039)" gradientUnits="userSpaceOnUse"><stop offset="0" stop-color="#5d72ee"/><stop offset="1" stop-color="#433cd7"/></linearGradient><linearGradient id="ad" x1="297.931" y1="690.934" x2="338.374" y2="690.934" xlink:href="#ac"/><linearGradient id="ae" x1="605.47" y1="736.286" x2="605.497" y2="736.286" xlink:href="#ac"/><linearGradient id="af" x1="511.821" y1="837.733" x2="614.704" y2="837.733" xlink:href="#ac"/><linearGradient id="ag" x1="586.819" y1="679.842" x2="594.548" y2="679.842" xlink:href="#ac"/><linearGradient id="ah" x1="358.237" y1="920.014" x2="530.15" y2="920.014" xlink:href="#y"/><linearGradient id="ai" x1="366.21" y1="852.432" x2="384.993" y2="852.432" xlink:href="#y"/><linearGradient id="aj" x1="380.859" y1="849.749" x2="401.637" y2="849.749" xlink:href="#y"/><linearGradient id="ak" x1="393.826" y1="857.031" x2="421.394" y2="857.031" xlink:href="#y"/><linearGradient id="al" x1="455.051" y1="791.647" x2="547.238" y2="791.647" xlink:href="#y"/><linearGradient id="am" x1="544.602" y1="662.28" x2="544.612" y2="662.28" xlink:href="#y"/><linearGradient id="an" x1="1003.919" y1="670.655" x2="1032.314" y2="670.655" gradientTransform="translate(-153.561 -110.067) rotate(33.343)" xlink:href="#y"/><linearGradient id="ao" x1="961.166" y1="695.401" x2="1067.693" y2="695.401" gradientTransform="translate(-153.561 -110.067) rotate(33.343)" xlink:href="#y"/><linearGradient id="ap" x1="1063.811" y1="618.169" x2="1080.971" y2="618.169" gradientTransform="translate(-153.561 -110.067) rotate(33.343)" xlink:href="#y"/><linearGradient id="aq" x1="1056.176" y1="610.62" x2="1081.003" y2="610.62" gradientTransform="translate(-153.561 -110.067) rotate(33.343)" xlink:href="#y"/><linearGradient id="ar" x1="742.686" y1="621.694" x2="970.411" y2="621.694" gradientTransform="translate(-153.561 -110.067) rotate(33.343)" xlink:href="#ac"/><linearGradient id="as" x1="749.778" y1="489.316" x2="787.2" y2="489.316" gradientTransform="translate(-153.561 -110.067) rotate(33.343)" xlink:href="#ac"/><linearGradient id="at" x1="1034.346" y1="531.28" x2="1034.371" y2="531.28" gradientTransform="translate(-153.561 -110.067) rotate(33.343)" xlink:href="#ac"/><linearGradient id="au" x1="947.692" y1="625.15" x2="1042.891" y2="625.15" gradientTransform="translate(-153.561 -110.067) rotate(33.343)" xlink:href="#ac"/><linearGradient id="av" x1="1017.088" y1="479.053" x2="1024.24" y2="479.053" gradientTransform="translate(-153.561 -110.067) rotate(33.343)" xlink:href="#ac"/><linearGradient id="aw" x1="805.579" y1="701.286" x2="964.652" y2="701.286" gradientTransform="translate(-153.561 -110.067) rotate(33.343)" xlink:href="#y"/><linearGradient id="ax" x1="812.956" y1="638.752" x2="830.336" y2="638.752" gradientTransform="translate(-153.561 -110.067) rotate(33.343)" xlink:href="#y"/><linearGradient id="ay" x1="826.512" y1="636.269" x2="845.738" y2="636.269" gradientTransform="translate(-153.561 -110.067) rotate(33.343)" xlink:href="#y"/><linearGradient id="az" x1="838.51" y1="643.007" x2="864.019" y2="643.007" gradientTransform="translate(-153.561 -110.067) rotate(33.343)" xlink:href="#y"/><linearGradient id="ba" x1="895.162" y1="582.506" x2="980.463" y2="582.506" gradientTransform="translate(-153.561 -110.067) rotate(33.343)" xlink:href="#y"/><linearGradient id="bb" x1="978.025" y1="462.802" x2="978.034" y2="462.802" gradientTransform="translate(-153.561 -110.067) rotate(33.343)" xlink:href="#y"/><linearGradient id="bc" x1="220.435" y1="1193.582" x2="220.435" y2="908.347" xlink:href="#a"/><linearGradient id="bd" x1="15.852" y1="1267.87" x2="15.852" y2="905.142" gradientUnits="userSpaceOnUse"><stop offset="0" stop-color="#5faa00"/><stop offset="1" stop-color="#8daa00"/></linearGradient><symbol id="be" viewBox="0 0 72 153"><path class="d" d="M72,76.5C72,34.25,36,0,36,0S0,34.25,0,76.5,36,153,36,153,72,118.75,72,76.5Z"/><path class="e" d="M36,134V19m0,103.283L59.5,85.5M36.023,97.529l19.56-30.64M36.046,72.776l15.621-24.5m-15.6-.256L47.75,29.667M36.015,122.283,12.515,85.5m3.916-18.611,19.56,30.64m-.023-24.753-15.62-24.5m3.917-18.611,11.68,18.355"/></symbol><symbol id="bf" viewBox="0 0 72 153"><path class="b" d="M72,76.5C72,34.25,36,0,36,0S0,34.25,0,76.5,36,153,36,153,72,118.75,72,76.5Z"/><path class="c" d="M36,134V19m0,103.283L59.5,85.5M36.023,97.529l19.56-30.64M36.046,72.776l15.621-24.5m-15.6-.256L47.75,29.667M36.015,122.283,12.515,85.5m3.916-18.611,19.56,30.64m-.023-24.753-15.62-24.5m3.917-18.611,11.68,18.355"/></symbol></defs><title>charity_bg--tree</title><g class="f"><circle class="g" cx="531" cy="-511" r="1198"/></g><g class="f"><path class="h" d="M-103.287-120.829c-30,46-45,107-21,159,14,30,40,51,69,66,26,12,57,17,84,5,2,0,4,0,5-1,3-3,7-4,10-6,12-9,20-18,29-30,13-19,23-37,29-59,0-1,2-2,2-3a446.6,446.6,0,0,0,16-81c0-3,2-5,2-8,6-49,12-94,23-144a77.191,77.191,0,0,0,2-15c-35,1-68,5-102,14-1,0-2,2-3,2-52,14-98,41-133,83a30.388,30.388,0,0,1-5,7c-1,1-1,3-2,4l-3,3c-1,1-1,3-2,4Z"/><path class="i" d="M72.713,11.171c20,54,56,102,108,132,1,1,3,0,4,1,16,10,32,15,50,20a200.235,200.235,0,0,0,24,4,216.375,216.375,0,0,0,36,0c5-1,9-2,14-2,28-5,61-14,68-45a56.6,56.6,0,0,0-3-26c-6-16-15-28-25-42-21-26-40-51-63-75-4-4-7-9-11-13-2-2-3-5-5-7l-6-6c-2-2-3-5-5-7l-6-6c-24-32-47-60-65-95l-3-3c-10-19-18-37-28-56-4-8-6-15-10-23-5,7-12,13-18,19-2,2-4,4-5,7l-2,1c-2,4-5,7-8,10-1,2-3,4-4,6s-3,2-4,4a83.415,83.415,0,0,1-8,12c-5,10-10,18-15,28-1,2-1,5-2,7-17,37-22,77-17,118a155.25,155.25,0,0,0,4,21c2,5,3,11,5,16Z"/><path class="j" d="M298.713,27.171c55,26,117,38,179,30,2,0,5-2,7-2,25-3,48-10,70-23,18-10,36-22,45-42,0-1,2-1,2-2,2-6,3-12,2-18-4-12-16-18-27-23-16-6-33-10-50-15-139-35-271-80-380-170,0,22-1,43,3,65a281.7,281.7,0,0,0,7,31,292.069,292.069,0,0,0,19,49c15,29,34,54,58,77a253.167,253.167,0,0,0,65,43Z"/></g><g class="k"><path class="l" d="M379.7-14.879c91.956,33.572,164.122,151.246,154.285,253.161C520.832,374.528,371.032,379.921,306.387,542c-75.891,190.274,76.226,319.074-3.856,433.912C224.469,1087.852-19.7,1108.338-148.642,1002.22c-209.04-172.041-14.16-593.682-3.654-615.742C-45.194,161.6,204.473-78.852,379.7-14.879Z"/><path class="m" d="M287.953,341.405c80.1-54.576,146.19-75.6,145.976-76.057-.274-.586-110.526,30.414-223.468,121.505-31.531-43.642-11.978-105.638,38.009-126.059-54.806,18.575-76.244,84.519-45.432,132.137-.965.8-1.931,1.6-2.9,2.4A711.105,711.105,0,0,0,93.1,507.289,1615.116,1615.116,0,0,1,119.685,253.5c-23.064-.64-54.777-1.281-77.841-1.922C34.858,338.256,29.7,429.251,26.994,524.21A704.091,704.091,0,0,0-15.322,444.6c-.661-1.072-1.328-2.129-1.993-3.193,44.228-35.507,44.624-104.847-1.556-139.72C22.154,336.8,21.211,401.8-22.448,433.307-101,311.31-195.9,247.2-196.347,247.67c-.084.089,3.186,2.577,9.033,7.4,65.8,54.326,115.255,105.465,155.708,185.891C2.682,509.136,12.673,569.322,17.687,601.056a590.885,590.885,0,0,1,7.182,84.323q.014,6,.042,11.948c0,.2,0,.409,0,.607l.005,0c.667,137.6,6.959,258.47,16.93,382.2H188.876c-40.53-112.165-84.132-255.209-94.157-449.541,0-14.307,1.65-31.451,4.785-51C105.492,542.248,124.892,479.081,216.745,397a687.105,687.105,0,0,1,62.607-49.643c49.048,32.2,117.029,9.209,134.886-47.489C394.734,350.734,332.774,371.909,287.953,341.405Z"/><path class="n" d="M788.887,179.872c-25.2,8.037-51.949,6.512-76.716-2.61,2.679,21.837-.947,43.51-11.8,62.676-32.1,56.68-115.184,70.041-185.586,29.83a182.1,182.1,0,0,1-17.818-11.586,114.239,114.239,0,0,1-46.032,50.677c-44.3,25.989-100.215,19.873-142.062-11.086a114.537,114.537,0,0,1-59.353,24.145c-31.83,3.489-62.108-5.789-84.65-23.405a82.183,82.183,0,0,1-33.544,46.671c-42.311,28.556-105.7,17.168-147.365-24.61V-24.195H831.113a154.124,154.124,0,0,1,23.849,41.382C881.793,86.84,852.216,159.681,788.887,179.872Z"/><use width="72" height="153" transform="translate(124.309 283.754) rotate(178.592) scale(0.565)" xlink:href="#be"/><use width="72" height="153" transform="translate(599.988 228.461) rotate(154.225) scale(0.712)" xlink:href="#bf"/><use width="72" height="153" transform="translate(188.103 232.249) rotate(125.269) scale(0.581)" xlink:href="#be"/><use width="72" height="153" transform="translate(773.086 205.375) rotate(170.303) scale(0.489)" xlink:href="#bf"/><use width="72" height="153" transform="matrix(-0.455, 0.279, -0.279, -0.455, 160.703, 257.459)" xlink:href="#bf"/><use width="72" height="153" transform="translate(817.124 190.792) rotate(142.329) scale(0.581)" xlink:href="#be"/><use width="72" height="153" transform="translate(600.333 189.492) rotate(156.124) scale(0.581)" xlink:href="#be"/><path class="o" d="M892.594,20.432c-28.155,10.636-62.387,13-95.775,7.081,10.333,20.64,13.578,42.32,6.306,63.857C783.116,155.468,671.04,193.961,571,151.121a240.794,240.794,0,0,1-25.043-12.007c-9.224,25.524-27.138,49.984-54.03,68.188C435.012,247,354.57,240.137,300.33,200.228c-22.286,16.69-51.025,28.1-82.8,30.448-44.226,3.369-84.737-11.268-111.446-33.221-10.983,21.405-30.027,40.4-56.61,51.623-65.737,28.93-153.458-6.969-197.34-52.7C-109.975,94.3-48.95-5.918-55.42-111.566l942.712-53.866a219.135,219.135,0,0,1,31.5,36.012C961.851-68.866,965.219-7.233,892.594,20.432Z"/><path class="p" d="M184.76,622.1c-52.048,60.879-88.374,147.129-90.7,247.484"/><path class="q" d="M208.6,610.2c-7.648,7.642-20.78,15.748-24.231,12.366-3.52-3.459,3.378-18.7,11.49-26.648,8.051-7.977,13.356-6.218,16.43-2.567C215.39,597.087,216.237,602.5,208.6,610.2Z"/><path class="r" d="M184.573,622.323a341.545,341.545,0,0,1,27.712-28.97"/><path class="r" d="M193.054,612.718q8.523-2.26,17.047-4.137"/><path class="r" d="M203.091,602.223q1.538-5.986,3.292-11.947"/><path class="q" d="M192.206,659.942c-11.746.544-27.721-4.278-27.677-10.433.03-6.191,16.136-12.264,27.9-11.9,11.761.286,14.769,5.771,14.722,11.147C207.083,654.162,203.955,659.431,192.206,659.942Z"/><path class="r" d="M164.862,649.5q21.177-.829,42.289-.745"/><path class="r" d="M178.228,649.063q8.1,5.543,16.36,10.7"/><path class="r" d="M193.539,648.791q5.478-3.714,11.031-7.168"/><path class="q" d="M148.491,619.607c1.243,14,9.566,30.417,14.821,28.823,5.14-1.539,7.346-20.085,6.331-33.348-1.089-13.271-6.322-16.306-11.778-15.341C152.514,600.651,147.2,605.687,148.491,619.607Z"/><path class="r" d="M163.246,648.061a367.547,367.547,0,0,1-5.381-48.32"/><path class="r" d="M160.885,633.107q-6.454-7.925-12.579-16.331"/><path class="r" d="M158.921,615.609q2.928-7.02,6.118-13.9"/><path class="q" d="M173.884,699.54c-13.745,2.339-33.2-1.294-33.942-8.919-.768-7.672,17.491-17.356,31.407-18.436,13.9-1.183,18.078,5.111,18.689,11.648C190.624,690.421,187.638,697.247,173.884,699.54Z"/><path class="r" d="M140.333,690.558q24.823-4,49.705-6.725"/><path class="r" d="M156.014,688.158q10.245,5.69,20.648,10.828"/><path class="r" d="M174.01,685.72Q180,680.433,186.133,675.5"/><path class="q" d="M117.49,655.768c2.972,17.238,14.895,36.419,20.881,33.691,5.828-2.636,6.14-25.79,3.612-42.023-2.637-16.235-9.06-19.367-15.437-17.5C120.314,631.713,114.468,638.643,117.49,655.768Z"/><path class="r" d="M138.246,689.012a392.4,392.4,0,0,1-11.7-59.077"/><path class="r" d="M133.636,670.849q-8.537-8.933-16.67-18.572"/><path class="r" d="M129.375,649.453q2.721-9.066,5.841-17.961"/><path class="q" d="M157.884,753.586c-15.926,5.3-39.735,4.1-41.939-5.45-2.25-9.617,17.967-24.847,34.4-28.369,16.39-3.666,22.318,3.518,24.1,11.532C176.212,739.387,173.835,748.349,157.884,753.586Z"/><path class="r" d="M116.4,747.991q28.856-9.262,58.053-16.692"/><path class="r" d="M134.655,742.325q13.154,5.454,26.437,10.092"/><path class="r" d="M155.674,736.277q6.258-7.6,12.806-14.714"/><path class="q" d="M83.666,707.5c6.027,21.549,23.552,43.927,30.211,39.432,6.436-4.334,3.01-33.625-2.154-53.788-5.332-20.148-13.316-23.221-20.735-19.914C83.774,676.388,77.587,686.118,83.666,707.5Z"/><path class="r" d="M113.651,746.384a423.588,423.588,0,0,1-22.663-73.157"/><path class="r" d="M105.193,724.113q-11.568-9.957-22.656-20.986"/><path class="r" d="M96.948,697.616q1.983-11.938,4.6-23.676"/><path class="q" d="M148.892,818.394c-17.221,9.221-44.849,11.891-49.272.513-4.5-11.457,15.962-33.487,34.259-40.411,18.206-7.109,26.251.645,29.773,10.036C167.15,798.027,166.163,809.257,148.892,818.394Z"/><path class="r" d="M100.114,818.651q31.343-16.255,63.538-30.119"/><path class="r" d="M119.992,808.624q16.164,4.455,32.351,7.795"/><path class="r" d="M143,797.713q5.766-10.3,12.041-19.987"/><path class="q" d="M55.1,774.143c10.545,25.693,35.14,50.3,41.912,43.631,6.482-6.419-2.947-41.755-12-65.719-9.29-23.914-18.832-26.529-26.92-21.332C50.268,735.7,44.507,748.688,55.1,774.143Z"/><path class="r" d="M96.641,817.143a457.97,457.97,0,0,1-38.553-86.42"/><path class="r" d="M82.746,791.164Q67.658,780.8,53.061,768.924"/><path class="r" d="M68.73,759.861q.339-15.015,1.628-29.852"/><path class="p" d="M454.066,812.186c-39.784,46.518-67.571,112.4-69.428,189.066"/><path class="q" d="M472.284,803.092c-5.845,5.84-15.883,12.033-18.52,9.448-2.69-2.644,2.583-14.286,8.783-20.364,6.153-6.1,10.208-4.751,12.556-1.961C477.476,793.068,478.125,797.2,472.284,803.092Z"/><path class="r" d="M453.923,812.353a261.518,261.518,0,0,1,21.18-22.138"/><path class="r" d="M460.406,805.014q6.513-1.728,13.028-3.161"/><path class="r" d="M468.077,796.994q1.175-4.575,2.516-9.13"/><path class="q" d="M459.752,841.1c-8.977.413-21.185-3.275-21.151-7.978.024-4.731,12.334-9.368,21.325-9.093,8.988.22,11.287,4.412,11.25,8.521C471.123,836.688,468.731,840.715,459.752,841.1Z"/><path class="r" d="M438.856,833.115q16.183-.63,32.32-.562"/><path class="r" d="M449.07,832.787q6.194,4.236,12.5,8.181"/><path class="r" d="M460.772,832.582q4.188-2.838,8.432-5.477"/><path class="q" d="M426.347,810.273c.95,10.695,7.307,23.244,11.324,22.027,3.928-1.175,5.618-15.346,4.843-25.482-.832-10.142-4.831-12.462-9-11.724C429.423,795.788,425.365,799.635,426.347,810.273Z"/><path class="r" d="M437.621,832.018a281.216,281.216,0,0,1-4.109-36.924"/><path class="r" d="M435.818,820.59q-4.93-6.056-9.612-12.481"/><path class="r" d="M434.319,807.219q2.238-5.364,4.676-10.62"/><path class="q" d="M445.738,871.36c-10.5,1.783-25.373-1-25.938-6.826-.584-5.863,13.373-13.257,24.008-14.079,10.624-.9,13.816,3.91,14.281,8.907C458.536,864.4,456.251,869.613,445.738,871.36Z"/><path class="r" d="M420.1,864.486q18.974-3.052,37.99-5.124"/><path class="r" d="M432.085,862.657q7.827,4.351,15.777,8.281"/><path class="r" d="M445.839,860.8q4.578-4.039,9.268-7.806"/><path class="q" d="M402.65,837.9c2.268,13.172,11.375,27.832,15.95,25.749,4.455-2.013,4.7-19.7,2.77-32.11-2.013-12.406-6.921-14.8-11.8-13.376C404.811,819.518,400.343,824.811,402.65,837.9Z"/><path class="r" d="M418.505,863.3a300.067,300.067,0,0,1-8.93-45.144"/><path class="r" d="M414.986,849.424q-6.522-6.828-12.736-14.195"/><path class="r" d="M411.734,833.075q2.082-6.927,4.467-13.723"/><path class="q" d="M433.49,912.654c-12.175,4.045-30.371,3.118-32.05-4.181-1.716-7.35,13.742-18.978,26.3-21.664,12.528-2.795,17.056,2.7,18.419,8.821C447.5,901.812,445.683,908.66,433.49,912.654Z"/><path class="r" d="M401.787,908.361q22.056-7.065,44.375-12.731"/><path class="r" d="M415.741,904.04q10.052,4.173,20.2,7.723"/><path class="r" d="M431.808,899.427q4.785-5.807,9.793-11.239"/><path class="q" d="M376.786,877.411c4.6,16.465,17.982,33.569,23.073,30.138,4.921-3.309,2.315-25.691-1.626-41.1-4.069-15.4-10.172-17.746-15.842-15.221C376.877,853.643,372.147,861.075,376.786,877.411Z"/><path class="r" d="M399.687,907.133a324.176,324.176,0,0,1-17.3-55.9"/><path class="r" d="M393.232,890.114q-8.838-7.613-17.308-16.043"/><path class="r" d="M386.94,869.866q1.518-9.121,3.524-18.088"/><path class="q" d="M426.58,962.171c-13.167,7.035-34.283,9.06-37.656.365-3.432-8.755,12.219-25.576,26.207-30.858,13.917-5.425,20.062.5,22.749,7.682C440.547,946.618,439.786,955.2,426.58,962.171Z"/><path class="r" d="M389.3,962.341q23.964-12.4,48.578-22.981"/><path class="r" d="M404.5,954.69q12.35,3.412,24.72,5.973"/><path class="r" d="M422.088,946.365Q426.5,938.5,431.3,931.1"/><path class="q" d="M354.921,928.316c8.046,19.632,26.827,38.448,32.007,33.353,4.958-4.9-2.227-31.9-9.134-50.215-7.09-18.274-14.382-20.275-20.566-16.308C351.25,898.944,346.842,908.865,354.921,928.316Z"/><path class="r" d="M386.649,961.186a350.318,350.318,0,0,1-29.421-66.04"/><path class="r" d="M376.045,941.332q-11.526-7.927-22.675-17"/><path class="r" d="M365.349,917.411q.267-11.472,1.257-22.806"/><path class="s" d="M328.927,810.055c24.128-25.109,27.776-43.892,26.363-56.645-1.972-17.811-13.972-25.241-10.411-40.443,4.041-17.249,21.408-15.86,27.573-34.092,5.967-17.644-7.42-27.459-4.5-48.915,2.317-17.01,13.278-29.542,21.813-37.272"/><path class="t" d="M420.175,581.26a18.986,18.986,0,1,1-8.6-18.789l-5.652,11.573,11.345-5.947A18.918,18.918,0,0,1,420.175,581.26Z"/><path class="u" d="M404.287,670.464a18.986,18.986,0,1,1-3.534-20.357l-8.409,9.755L404.828,657A18.914,18.914,0,0,1,404.287,670.464Z"/><path class="v" d="M385.13,763.905a18.985,18.985,0,1,1-3.534-20.357l-8.41,9.755,12.485-2.866A18.919,18.919,0,0,1,385.13,763.905Z"/><path class="w" d="M341,608.042a18.985,18.985,0,1,0,13.63-15.528l2.09,12.709-9.159-8.956A18.922,18.922,0,0,0,341,608.042Z"/><path class="x" d="M323.434,693.892a18.985,18.985,0,1,0,9.483-18.356l5.092,11.83-11.047-6.483A18.912,18.912,0,0,0,323.434,693.892Z"/><path class="y" d="M365.713,891.3c-2,21-8,40-14,60-34,79-121,125-205,125,3-28,8-55,11-83,1-3,1-6,2-9,1-8,1-17,2-25,1-3,1-7,2-10,3-34,7-66,17-99,6-22,15-42,28-63a63.192,63.192,0,0,0,6.37-7.81L228.7,798q-1.365-14.97-2.73-29.93c5.61-4.44,11.77-7.6,18.74-10.77,6-3,12-2,18-2a90.119,90.119,0,0,1,25.69,4.45q-5.07,15.285-10.16,30.56l27.21-23.19a117.191,117.191,0,0,1,44.49,43.66q-9.795,10.95-19.56,21.89,13.215-4.065,26.43-8.11C364.733,845.492,366.713,868.392,365.713,891.3Z"/><path class="z" d="M215.713,924.3c-1,10-3,19-4,29-1,7-4,13-6,20-2,13-8,25-13,37,0,1-2,1-2,2-4,11-10,21-18,32-8,12-15,24-26,32-32-70-73-132-116-200-20-33-35-66-43-104-3.41-12.8-3.91-24.87.99-36.84l30.86,22.73q-8.175-19.74-16.34-39.49a74.805,74.805,0,0,1,28.49-10.4,128.447,128.447,0,0,1,40.13,1.34q3.78,13.41,7.57,26.8,3.21-11.7,6.43-23.39a155.6,155.6,0,0,1,14.87,5.25c4,2,7,3,11,5a198.1,198.1,0,0,1,38.95,29.97q.69,17.475,1.4,34.94,5.76-10.44,11.51-20.89a215.423,215.423,0,0,1,37.35,65.49l3.12,49.23q3.84-7.35,7.67-14.71v1.97C216.713,887.3,216.713,906.3,215.713,924.3Z"/><path class="aa" d="M145.713,1076.3c-5-3-9-7-14-10-6-4-10-9-16-12a3.491,3.491,0,0,1-1-2c-62-43-121-76-188-104-3-1-5-3-8-5-44-21-88-40-127-71a68.541,68.541,0,0,1-10.6-12.79q16.62-7.6,33.22-15.22-19.02-2.19-38.05-4.37a15.436,15.436,0,0,1,.43-3.62l3-9a89.61,89.61,0,0,1,15-19c7.98-6.53,15.96-12.53,25.09-17.23q14.655,11.61,29.32,23.22-5.625-15.06-11.25-30.12a230.729,230.729,0,0,1,23.84-5.87c60-7,118,16,166,49,3.61,2.41,7.23,4.82,10.84,7.44q2.55,19.05,5.09,38.1,5.22-11.97,10.44-23.95c29.63,26.9,50.75,58.97,66.63,95.41,7,18,14,36,18,56,1,7,3,13,4,20,2,13,3,25,4,37C146.713,1063.3,148.713,1070.3,145.713,1076.3Z"/><path class="ab" d="M-118.287,906.3c-20-3-40,0-60,2a213.029,213.029,0,0,0-61,12c-1,0-2,2-3,2-29,8-53,22-75,42-17,16-32,40-25,64,13,23,42,25,65,27,46,3,91,3,137,5,43,1,86,0,129,2,51,2,100,7,151,14h7c-11-17-21-34-36-49-1-1-1-3-2-4-29-32-60-57-97-79-6-3-12-6-17-8-36-18-74-29-113-30Z"/><path class="ac" d="M515.713,998.3a110.086,110.086,0,0,1-4.55,16.39l-31.83,4.59q12.495,5.295,25,10.59c-15.65,28.9-42.85,49.921-70.62,66.431-6,3-11,7-18,9-1,0-1,2-2,2-87,35-185,22-265-30h-2c16-13,32-23,48-36,10-9,20-16,30-25,28-22,52-43,82-63a374.111,374.111,0,0,1,97-46,130.2,130.2,0,0,1,20.46-3.96q-.945,12.255-1.88,24.51,8.88-12.45,17.77-24.89a76.906,76.906,0,0,1,28.65,7.34,86.748,86.748,0,0,1,20.81,15.69q-13.41,15-26.81,30.01,20.535-6.3,41.09-12.62-8.895,9.345-17.81,18.68,12.36-3.36,24.71-6.71C516.723,969.052,518.073,983.372,515.713,998.3Z"/><path class="ad" d="M467.01,790.316a25.551,25.551,0,0,0-10.159,8.081c-6.341,8.638-5.834,20.217-4.179,20.7.84.244,1.173-2.6,4.075-4.123,4.807-2.518,9.558,2.334,13.067.109,2.612-1.657,2.588-6,2.57-9.213A27.2,27.2,0,0,0,467.01,790.316Z"/><path class="ae" d="M466.173,787.9a15.649,15.649,0,0,0-9.736-5.119c-4.068-.4-10.04.869-11.1,4.324a5.072,5.072,0,0,0,1.138,4.875c1.1.989,2.32.643,2.651,1.465.489,1.216-2,2.427-2.123,4.592-.112,1.934,1.719,3.616,2.482,4.122,3.322,2.2,10.818-1.716,18.719-9.022Q467.188,790.518,466.173,787.9Z"/><path class="ad" d="M467.88,789.948a25.561,25.561,0,0,1,12.875-1.656c10.613,1.471,18.566,9.9,17.758,11.425-.41.772-2.685-.974-5.8.049-5.155,1.7-4.986,8.483-9.027,9.449-3.008.72-6.105-2.323-8.4-4.576A27.193,27.193,0,0,1,467.88,789.948Z"/><path class="ae" d="M466.729,787.664a15.651,15.651,0,0,1,3.113-10.55c2.547-3.2,7.618-6.6,10.836-4.951a5.071,5.071,0,0,1,2.7,4.213c-.057,1.479-1.155,2.113-.8,2.923.532,1.2,3.132.259,4.772,1.676,1.466,1.267,1.4,3.753,1.228,4.653-.735,3.918-8.769,6.564-19.514,7.141Z"/><ellipse class="ae" cx="469.248" cy="794.518" rx="1.574" ry="11.207" transform="translate(-272.33 245.414) rotate(-22.915)"/><path class="af" d="M182.489,961.952c10.823-.653,21.677-5.963,33.292-5.646C205.537,952.988,189.09,952.4,182.489,961.952Z"/><path class="ag" d="M245.71,918.823c.5,1.683,14.567,5.138,17.349,8.87-1.047-5.111-8.339-9.331-13.157-10.452a50.555,50.555,0,0,1,14.318-.647,52.136,52.136,0,0,0-16.2.362,3.17,3.17,0,0,0-1.911.365,66.594,66.594,0,0,0-6.473,1.695c1.89-1.547,4.229-3.859,6.554-6.23-1.74,5.275,8.3,4.413,8.5-8.442a6.438,6.438,0,0,1,.884-.632c-1.609.345-25.468,13.019-20.171,16.78a91.139,91.139,0,0,0-9.2,4.132,41.686,41.686,0,0,0,10.832-19.249c-4.839,7.057-12.307,13.33-14.891,21.448-3.821,2.172-7.568,4.583-11.224,7.147,1.776-7.249,2.248-17.241,2.388-19.261-.849,1.83-7.027,16.933-8.376,23.649-4.428,3.375-8.7,6.91-12.786,10.436,4.521-10.792,9.035-28.135,9.144-28.856-1.011,2.548-13.309,27.105-15.683,34.61q-.958.858-1.9,1.706c2.414-9,3.537-23.4,3.421-25.462-.685,2.981-7.805,24.04-8.9,30.422q-1.576,1.428-3.1,2.8-1.282,1.157-2.59,2.352c2.9-7.757,3.065-17.6,3.637-25.16-3.353,9.66-7.6,19.5-8.276,29.477-3.159,2.991-6.365,6.138-9.544,9.43,1.684-7.148,1.969-22.03.992-24.75-.025,4.606-6.307,25.008-4.074,27.956l.02.022q-1.3,1.4-2.59,2.824c2.444-6.962,1.789-15.337-3.627-20.452,3.8,8.647-.931,17.132-.856,25.579-1.985,2.349-3.922,4.751-5.789,7.2,1.406-9.236-1.523-21.022-7.447-26.188,4.676,9.03,1.5,20.946,4.155,30.67-12.94,18.284-31.99,37-27.764,58.486,3.371-21.488,21-37.585,31.223-53.978,7.808-1.191,16.213-4.541,24.518-5.268-6.863-1.763-15.8-2.422-21.85,1.146q3.787-5.676,8.065-11.108c7.229-2.782,31.7-5.536,34.857-4.585-4.4-2.615-20.357-3.56-30.008-1.336q3.343-3.93,6.936-7.777a103.654,103.654,0,0,1,32.107-9.364c-7.05-1-16.875-1.715-24.06,1.1q4.351-4.29,8.993-8.538c5.541-5.078,11.678-10.855,18.3-16.547,10.369-2.562,20.909-4.951,31.969-4.739-6.8-1.884-15.644-3.462-23.013-1.93.149-.324.293-.664.431-1.025,3.074-2.382,6.23-4.679,9.457-6.825,7.287,1.91,15.693,2.727,23.143,5.424-5.256-4.5-12.784-9.133-19.313-7.877a99.937,99.937,0,0,1,11.187-5.983,10.166,10.166,0,0,0-2.074,1.39c5.991,2.5,13.332,1.467,20.04,3.163-4.83-4.275-11.733-7.128-17.214-4.888a70.967,70.967,0,0,1,10.566-3.724A1.867,1.867,0,0,0,245.71,918.823Z"/><path class="ah" d="M279.855,920.487c-27.522-8.985-21.524,2.415,0,0Z"/><path class="ai" d="M283.863,905.7c-10,.895-24.422.231-30.414,9.791C261.817,914.321,277.317,910.236,283.863,905.7Z"/><path class="aj" d="M130.4,947.3c6.68-7.655,15.2-39.187,17.129-44.106-1.876,2.164-13.26,19.979-18.831,32.734-1.686-10.165-3.8-20.3-6.17-30.249,3.178-18.245,17.374-55.388,19.19-57.771-5.55,4.215-17.894,24.516-23.232,41.854-1.826-6.794-3.736-13.456-5.678-19.929.45-16.019,5.408-51.249,6.112-57-1.573,4.054-8.8,23.359-11.425,39.906-1.662-5.186-3.308-10.2-4.907-15.01.589-1.606-.1-3.633-1.7-5.911a.706.706,0,0,0,.749-.147c6.343-5.236,1.911-53.905,2.813-64.317-5.12,14.069-9.328,30.116-8.3,45.294-.009-.128.056.432.183,1.415a24.136,24.136,0,0,0-4.365-7.174c-2.492-6.8-5.157-13.677-8.037-20.538.362-19.811-5.1-44.02-9.587-62.653.239,10.262-1.757,25.606-1.049,39.65-3.084-6.028-6.381-11.939-9.919-17.655,1.5-9.952-5.013-43.515-5.523-45.135-.057,1.431-2.8,20.033-2.143,33.626-3.024-4.211-6.2-8.275-9.559-12.147C46.667,708.878,33.8,693.9,25.213,684.36c3.634,8.133,6.644,19.144,11.581,27.829a125.222,125.222,0,0,0-11.749-9.934c-.77-5.72-29.8-32.941-30.608-33.67,2.317,4.178,8.814,15.731,15.847,24.372q-3.614-1.893-7.411-3.525a9.366,9.366,0,0,1,1.073.294c.527-12.795-32.845-10.638-38.861-6.65,5.057-.943,28.478,4.144,36.305,6a106.044,106.044,0,0,1,9.838,5.025,41.943,41.943,0,0,0,6.939,6.753c-6.131.684-15.434,4.189-17.57,7.575,5.59-1.654,20.392.261,22.812-4.814a3.556,3.556,0,0,0,.135-.357c.143.015.288.044.429.048a1.541,1.541,0,0,0,.636-.094,125.862,125.862,0,0,1,12.355,11.222c-8.1-4.435-36.738-5.9-37.75-5.844,5.455,1.493,35.046,15.271,39.376,9.559a1.964,1.964,0,0,0,.468-1.5A163.552,163.552,0,0,1,55.619,738c-8.107-10.5-27.414-19.384-38.725-13.518,15.265-.349,25.89,15.845,39.768,17.484.916,4.018,2.524,6.605,5.174,6.493a.917.917,0,0,0,.2-.035c3.471,6.028,6.678,12.249,9.666,18.572-3.586-2.874-7.092-5.236-7.442-5.427-8.012-4.361-17.691-5.517-26.668-6.662,5.5,2.731,28.269,19.152,37.645,22.325a30.424,30.424,0,0,0,6.308,12.784q1.981,5.092,3.82,10.169c-14.166-12.566-36.721-24.6-40.581-25.9,3.985,2.474,33.57,26.758,45.506,40.009q1.167,3.47,2.284,6.89c.331,1.009.646,2.012.972,3.019-12.216-10.451-32.608-21.991-36.367-23.208,4.008,2.675,31.434,27.766,40.44,36.188q2.025,6.674,3.889,13.283C92,839.707,76.81,830.6,67.782,825.3c11.894,11.818,23.463,29.55,37.556,39.4q2.4,9.326,4.442,18.565c-2.018-3.165-3.874-5.68-4.038-5.856-6.83-7.38-17.521-12.322-27.252-14.416,6.8,4.349,27.262,31.642,34.094,33.788.262,1.355.508,2.709.757,4.062-6.872-9.477-17.845-16.581-27.845-13.2,15.31,2.055,20.9,17.879,30.3,27.8q1.6,10.593,2.674,21.173c-8.62-11.334-24.361-27.245-36.117-23.64,11.614.752,26.716,25.774,36.928,32.6a399.626,399.626,0,0,1-7.9,115.886C133.277,1031.62,135.939,989.022,130.4,947.3ZM96.919,818.183c.258,1.7.576,3.6.943,5.437q-.64-1.89-1.3-3.8A7.228,7.228,0,0,0,96.919,818.183Z"/><path class="ak" d="M-33.044,705.652c11.971-10.677,31.545-3.713,44.611-10.174C.385,686.043-27.2,693.25-33.044,705.652Z"/><path class="al" d="M255.164,818.2c.03,0,.04,0,.015-.006Z"/><path class="am" d="M231.906,810.391a3.216,3.216,0,0,0,.872.861c4.29,3,22.732-13.344,27.5-16.047-2.227.211-17.855,5.132-25.061,9.936q4.024-6.25,8.31-12.295a1.073,1.073,0,0,0,.19.114c6.09,2.416,23.729-11.536,31.151-12.51-6.135-1.709-22.5,4.792-28.979,9.128q4.755-6.495,9.873-12.685c.026.029.04.065.068.093,5.883,5.831,20.255-20.929,20.949-24.8-2.894,3.807-23.476,19.988-21.225,24.424a272.458,272.458,0,0,0-18.117,22.6c1.776-8.325,1.4-24.51,1.574-30.191,2.553,37.962,12.7,11.739.011-.323a12.222,12.222,0,0,1,.111-1.457c-1.429,2.633-10.938,36.244-5.375,37.171q-4.056,5.859-7.891,11.9c2.571-10.445.735-24.485-3.751-31.3,2.552,12.358-5.967,27.407-.987,38.941-.083.136-.166.27-.248.406-2.144,1.254-3.26,2.755-2.722,4.551q-4.191,7.106-8.164,14.352c-1.954-11.3-8.006-28.075-9.045-30.541.25,3.53,1.408,29.862,4.431,38.183-4.686,3.646-7.232,7.464-5.332,11.045q-2.757,5.337-5.451,10.681c-.346-17.329-5.422-44.567-5.78-45.669.33,3.942-.791,45.723.218,56.778q-.9,1.815-1.8,3.627c-1.93-13.8-9.132-34.76-10.565-37.53.914,4.526,3.658,37.573,5.863,47q-1.386,2.79-2.77,5.566-1.776,3.56-3.618,7.154c-1.851-14.638-8.157-38.748-8.259-39.024.151,1.953-.365,35.99,4.258,46.782q-4.03,7.747-8.22,15.622c-1.179-10.725-7.3-30.437-10.744-34.237,2.676,6.585,3.6,34.754,7.626,40.115l-1.593,3c-.554-10.193-6.062-20.787-14.87-24.337,10.134,9.269,6.378,23.212,9.389,34.711q-3.78,7.188-7.509,14.453c-2.909-12.5-10.471-32.15-18.517-34.956,7.817,5.963,9.336,32.249,15,41.884a380.339,380.339,0,0,0-31.33,87.9c17.042-23.388,28.242-52.686,40.361-81.193,9.165-1.414,28.862-15.748,34.326-18.083-3.569.265-21.283,6.039-31.388,11.119,3.029-7.234,6-14.482,8.965-21.681,11.309-8.1,43.751-22.537,47.067-22.774-5.633-.964-28.54,4.126-42.388,11.447q2.625-6.315,5.273-12.529c12.138-11.635,25.025-22.461,39.926-31.234-6.868,1.925-22.542,6.892-32.539,14.461q1.5-3.284,3.017-6.516,2.565-5.43,5.131-10.924a17.191,17.191,0,0,0-.27,1.8c14.593-7.3,26.652-21.161,42.655-28.07-11.48,1.41-30.379,7.427-38.641,18.271l0-.007a6.571,6.571,0,0,0,.67-1.43c3.825-8.162,7.7-16.368,11.692-24.542,10.684-7.031,35.624-24.35,39.233-26.343-3.53.952-20.763,6.586-32.861,13.553q4.15-8.144,8.529-16.164c6.509.079,32.809-11.66,35.028-12.426-.785.073-20.15.909-30.6,4.527Q228.135,816.485,231.906,810.391Z"/><path class="an" d="M249.9,781.561c8.144-7.277,13.756-34.842,9.507-43.912C258.343,751.572,244.259,767.355,249.9,781.561Z"/><path class="ao" d="M109.729,999.731c4.4-.553,9.026-25.179,10.266-29.364-.98,1.293-9.271,16.83-11.266,24.772-1.181-5.121-2.583-10.166-4.168-15.086.133.016.265.034.4.042-.22-.009-.4-.168-.534-.452-.06-.187-.124-.371-.185-.557-1.464-6.3,5.593-40.145,6.69-42.542-3.2,3.889-9.642,18.939-11.18,30.27q-1.2-2.957-2.463-5.817-.93-2.1-1.942-4.283c-1.4-7.616-3.494-34.808-3.718-37.648-.432,2.594-2.51,15.3-2.153,25.634-2.041-3.961-4.241-8.024-6.591-12.127-.135-11.832-4.813-25.1-5.657-37.327-1.586,8.085-2.654,18.562-.323,27.348-3.831-6.106-7.977-12.179-12.406-18.012-2.82-10.219-6.3-20.657-9.888-30.533.756,5.957.983,13.855,2.361,21.2-2.938-3.417-5.98-6.7-9.118-9.786.348-3.509-.714-11.365-5.019-23.168-.178,9.1.528,15.64,1.466,19.788q-3.8-3.482-7.77-6.547c-1.826-7.382-8.525-14.267-14.17-19.605,2.457,4.885,4.426,10.318,7.362,14.792q-3.282-2.112-6.664-3.875c-3.754-7.9-13.6-13.516-21.112-18.114,3.908,4.756,8.11,10.443,13.069,14.528q-2.865-1.062-5.79-1.833a2.226,2.226,0,0,1,.391.023c1.553-7.849-19.52-2.185-22.574,1.831,2.9-1.629,17.025-1.885,21.327-1.864a62.726,62.726,0,0,1,7.993,2.9,22.654,22.654,0,0,0,7.219,3.708c0-.012-.011-.023-.015-.035a87.179,87.179,0,0,1,8.086,5.335,18.562,18.562,0,0,0,5.287,4.416c-.01-.09-.031-.178-.042-.268,2.838,2.394,5.6,4.966,8.286,7.685.781,2.094,1.584,2.8,2.116,2.188,3.743,3.956,7.328,8.184,10.748,12.584l.015.052c-7.288-2.546-21.422-1.736-24.073-1.313,2.041.426,19.825,5.431,26.035,6.682a18.853,18.853,0,0,0,6.785,8.189c-.182-.771-.386-1.553-.578-2.329q2.832,4.168,5.473,8.412C61.5,913.766,42.943,909.593,40.3,909.394c2.683.842,29.739,13.268,36.179,18.159q1.242,2.142,2.433,4.274c-8.95-4.382-25.812-8.211-27.783-8.265,2.985.956,25.771,12.395,31.209,14.56q2.081,3.924,3.976,7.73c-7.023-5.361-17.249-7.983-25.307-9.711,9.419,4.727,18.623,12.079,28.324,15.906,1.125,2.368,2.189,4.673,3.191,6.9,1.18,2.623,2.258,5.238,3.26,7.849-5.135-4.424-18.43-11.633-23.763-11.242,4.851,1.3,22.177,14.39,24.98,14.52q.633,1.773,1.217,3.542c-4.992-5.5-12.815-8.593-19.773-5.366,9.078-.633,15.45,6.907,21.868,12.263q1.377,4.95,2.411,9.9c-6.279-6.65-17.116-10.566-24.83-7.681,10.156.4,17.755,8.649,26,13.838,3.893,22.686,8.445,40.545,7.483,64.9C119.58,1040.973,114.3,1022.293,109.729,999.731Z"/><path class="ap" d="M-8.356,877.193c4.864-7.96,14.913-9.554,22.8-12.758C5.317,860.211-6.75,867.213-8.356,877.193Z"/><path class="aq" d="M15.369,872.745c12.926-3.509-.774-11.562-7.019,1.133.277-.023.544-.049.81-.075-.528.111-1.062.227-1.609.352C35.355,878.512,34.4,870.34,15.369,872.745Z"/><path class="ar" d="M45.878,887.723c-6.864-6.917-18.361-9.759-27.131-5.267C28.036,881.556,36.987,888.163,45.878,887.723Z"/><path class="as" d="M126.2,936.282q1.168-10.743,2.41-21.483c.228.114.45.23.7.339,1.29.545,6.6-13.29,8.35-16.059,9.659-15.313,27.035-28.52,44.489-33.538-7.329.311-37.145,15.888-51.159,30.022q1.2-9.156,2.552-18.285c4.325-3.831,34.612-43.7,41.02-48.962-11.975,5.4-26.091,12.363-34.388,23.089a58.355,58.355,0,0,0-3.407,5.909q2.178-12.378,4.847-24.666c.127-.581.261-1.155.391-1.732,2.59,5.678,14.885-14.085,16.814-16.139,8.831-9.4,18.915-17.109,30.932-21.98-12.248,1.715-34.257,9.58-43.714,22.209,2.693-9.544,5.783-18.757,9.206-27.786,6.531-5.942,16.218-16.56,18.108-17.959,9.072-6.712,19.358-11.781,29.079-17.477-12.73,3.658-27.884,7.233-38.928,15.321,2.724-6.191,5.586-12.348,8.568-18.52,10.762-1.546,41.025-16.519,43.519-17.659-.57.045-24.3,1.965-38.183,6.83q3.435-6.853,7.034-13.806c4.6,4.382,31-24.652,34.116-28.792-3.772,2.327-18.969,9.4-28.042,16.694,2-4.2,3.843-8.374,5.481-12.583a1.39,1.39,0,0,0,.211.013c10.973-.338,25.748-31.2,30.147-37.154-2.831,1.754-20.974,20.808-28.1,30.924a114.2,114.2,0,0,0,3.6-13.251,6.682,6.682,0,0,0,.559-2.917q.192-1.085.361-2.18c6.209,3.511,5.541-31.5-3.834-38.881,3.086,6.105-.178,25.188,1.5,34.294-6.172-12.475-25.019-28.791-30.448-29.284,5.126,3.176,27.02,43.5,30.078,41.17a6.186,6.186,0,0,0,.619-.544c-.921,3.437-2,6.793-3.2,10.094-2.456-6.287-16.061-16.262-19.172-17.093,3.7,4.289,10.086,23.282,16.383,21.873a7.268,7.268,0,0,0,1.061-.319c-1.891,4.646-4.032,9.209-6.364,13.771.116-10.719-10.881-34.681-11.879-36.647.184,2.235-.1,43.783,9.232,41.685-.227.42-.453.84-.682,1.26a10.4,10.4,0,0,0-2.343,4.236q-1.261,2.247-2.562,4.515-3.254,5.673-6.343,11.28c5.179-13.627,2.7-34.592-8.168-43.73,7.444,13.916-4.6,35.932,4.441,48.276-3.206,2.053-4.54,4.479-2.645,7.322q-4.458,8.535-8.516,17.079c-3.088-14.314-14.7-36-16.186-39.1.545,4.242,6.527,44.055,10.725,50.823-4.2,5.662-8.82,13.021-5.749,14.249q-2.976,7.661-5.619,15.533c-2.859-22.279-14.217-61.514-14.4-62.02.567,4.553,4.22,64.9,10.235,75.379q-.546,1.885-1.074,3.789c-5.981-17.049-20.963-42.841-23.161-46.17,2.086,6.439,13.652,48.8,19.862,59.048-.069.291-.14.579-.208.87q-1.66,7.129-3.13,14.3c-7.1-17.158-21.986-42.854-23.256-44.961,1.417,5.1,11.174,46.858,20.748,57.718q-1.569,8.418-2.944,16.874c-7.45-13.236-25.477-31.99-28.322-33.784,2.8,3.449,24.07,45.28,26.29,46.832q-.438,2.971-.853,5.947c-4.371-13.41-16.342-26.016-29.566-26.172,17.754,7.5,17.05,28.252,27.639,40.5q-1.091,8.523-2.072,17.058c-9.793-14.236-33.387-34.46-40.893-33.82,6.793,2.216,29.959,36.561,39.631,45.045q-1.473,13.476-2.81,26.942c-2.774,27.576-7.1,64.2-3.427,91.523,12.178-26.782,8.6-67.93,11.777-96.959q.978-8.955,1.935-17.924c5.489-4,34.709-30.519,39.5-34.378C156.6,915.086,133.807,924.6,126.2,936.282ZM201.955,674a3.393,3.393,0,0,0,.375.382c-.042.213-.087.423-.13.634C202.135,674.685,202.049,674.344,201.955,674Z"/><path class="at" d="M215.585,730.926Z"/><path class="ad" d="M146.575,737.774a25.084,25.084,0,0,0-11.5-5.49c-10.347-1.881-20.346,3.543-20.059,5.211.145.846,2.8-.085,5.39,1.822,4.287,3.16,2.049,9.437,5.521,11.577,2.584,1.592,6.4-.295,9.234-1.693A26.694,26.694,0,0,0,146.575,737.774Z"/><path class="ae" d="M148.348,736a15.363,15.363,0,0,0,.331-10.792c-1.4-3.76-5.083-8.484-8.587-7.936a4.978,4.978,0,0,0-3.813,3.1c-.4,1.4.43,2.324-.153,2.969-.863.954-3-.718-4.963.1-1.756.732-2.453,3.072-2.571,3.962-.515,3.878,6.165,8.807,16.007,12.638Z"/><path class="ad" d="M147.273,738.383a25.088,25.088,0,0,1,7,10.648c3.265,10-.756,20.639-2.447,20.58-.858-.03-.3-2.788-2.535-5.094-3.712-3.82-9.628-.752-12.218-3.9-1.928-2.345-.575-6.385.427-9.378A26.69,26.69,0,0,1,147.273,738.383Z"/><path class="ae" d="M148.794,736.386a15.357,15.357,0,0,1,10.647-1.789c3.915.874,9.095,3.887,9.026,7.433a4.975,4.975,0,0,1-2.554,4.2c-1.33.585-2.361-.111-2.921.554-.828.984,1.118,2.875.572,4.931-.488,1.839-2.711,2.846-3.577,3.084-3.773,1.035-9.561-4.915-14.69-14.148Z"/><ellipse class="ae" cx="143.83" cy="741.555" rx="10.999" ry="1.544" transform="translate(-509.472 362.362) rotate(-48.891)"/><path class="au" d="M312.88,1007.468c9.7,2.572,20.777,1.061,30.888,4.715C335.733,1006.291,321.455,1001,312.88,1007.468Z"/><path class="av" d="M380.953,987.952c-.051,1.623,11.3,8.747,12.663,12.834.566-4.794-4.614-10.621-8.521-13.006a46.756,46.756,0,0,1,12.766,3.593,48.237,48.237,0,0,0-14.34-4.391,2.922,2.922,0,0,0-1.785-.234,61.378,61.378,0,0,0-6.178-.393c2.109-.81,4.836-2.16,7.567-3.568-3.061,4.128,6.013,6.289,9.923-4.946a6.059,6.059,0,0,1,.96-.3c-1.514-.165-26.157,4.036-22.6,8.879a84.463,84.463,0,0,0-9.283.957,38.569,38.569,0,0,0,15.11-13.763c-6.3,4.794-14.685,8.134-19.314,14.515-3.989.8-7.981,1.827-11.937,3.018,3.666-5.853,6.984-14.494,7.695-16.228-1.278,1.362-11.094,12.834-14.231,18.342-4.871,1.678-9.651,3.542-14.265,5.452,7.108-8.167,16.113-22.09,16.418-22.692-1.628,1.944-19.568,19.944-23.834,25.847q-1.092.476-2.166.947a123.2,123.2,0,0,0,10.4-21.375c-1.468,2.42-13.843,18.851-16.661,24.138q-1.8.8-3.533,1.559-1.463.642-2.959,1.313c4.8-5.972,7.808-14.571,10.507-21.046-5.753,7.513-12.348,14.926-15.837,23.491-3.644,1.709-7.375,3.543-11.124,5.51,3.556-5.79,8.131-18.78,8.063-21.454-1.36,4.039-12.808,20.137-11.7,23.375l.011.026q-1.55.847-3.1,1.728c4.17-5.406,6.028-12.954,2.757-19.021.825,8.7-5.8,14.779-8.186,22.222q-3.639,2.231-7.178,4.645c3.919-7.706,4.772-18.91,1.069-25.17,1.483,9.291-4.773,18.835-5.263,28.15-16.681,12.3-38.854,23.205-41.387,43.312,9.206-17.9,29.367-26.917,43.115-38.347,7.206,1.224,15.563.723,23.071,2.5-5.517-3.543-13.174-6.718-19.529-5.343q4.977-3.885,10.313-7.415c7.159-.343,29.454,4.348,31.954,6.1-3.1-3.575-16.849-9.043-25.974-9.894q4.08-2.481,8.353-4.817a95.943,95.943,0,0,1,30.928,1.1c-5.9-2.928-14.326-6.41-21.458-6.021q5.07-2.5,10.381-4.887c6.343-2.85,13.414-6.142,20.882-9.22,9.854.763,19.807,1.728,29.462,5.128-5.426-3.631-12.737-7.587-19.657-8.383.226-.241.451-.5.678-.775,3.392-1.2,6.832-2.3,10.29-3.248,5.847,3.795,12.994,6.956,18.756,11.49-3.309-5.485-8.577-11.737-14.678-12.532a92.6,92.6,0,0,1,11.566-2,9.4,9.4,0,0,0-2.226.618c4.537,3.936,11.286,5.163,16.686,8.6-3-5.159-8.236-9.672-13.7-9.3a65.789,65.789,0,0,1,10.365-.2A1.725,1.725,0,0,0,380.953,987.952Z"/><path class="aw" d="M410.465,999.336c-21.566-15.891-19.61-4.133,0,0Z"/><path class="ax" d="M418.282,987.514c-9.049-2.122-21.521-6.895-29.563-.238C396.411,988.678,411.215,989.594,418.282,987.514Z"/><path class="ay" d="M271.38,979.464c8.092-4.784,24.737-30.01,27.865-33.769-2.277,1.355-17.455,13.7-26.055,23.285,1.472-9.421,2.562-18.937,3.369-28.367,8.094-15.105,31.359-43.609,33.647-45.175-6.1,2.09-22.844,16.337-32.572,30.017.371-6.5.629-12.906.8-19.157,5.05-13.942,19.643-43.45,21.934-48.3-2.559,3.105-14.514,17.965-21.633,31.738.047-5.039.058-9.924.051-14.613.984-1.239.968-3.221.228-5.686a.65.65,0,0,0,.7.089c7.094-2.757,17.344-46.8,21.162-55.685-8.586,10.872-16.946,23.746-20.452,37.379.029-.114-.076.4-.251,1.3a22.311,22.311,0,0,0-1.749-7.571c-.214-6.694-.556-13.513-1.092-20.378,6.074-17.3,8.309-40.154,9.784-57.826-2.771,9.085-8.984,21.984-12.443,34.527-.958-6.191-2.137-12.342-3.584-18.392,4.206-8.308,8.242-39.684,8.264-41.256-.465,1.24-8.283,16.784-11.654,28.918-1.433-4.579-3.045-9.072-4.867-13.449,4.27-11.413-2.678-28.307-7.453-39.186.83,8.2.274,18.748,2.087,27.813a115.7,115.7,0,0,0-7.435-12.141c.986-5.249-16.6-37.6-17.1-38.474.822,4.343,3.171,16.381,6.839,26.016q-2.625-2.713-5.487-5.251a8.446,8.446,0,0,1,.858.571c4.18-11.088-25.763-18.891-32.206-17.136,4.716.642,23.812,11.916,30.15,15.819a97.9,97.9,0,0,1,7.183,7.274,38.823,38.823,0,0,0,4.133,7.948c-5.585-1.18-14.776-.805-17.637,1.549,5.392.171,17.839,6.155,21.439,2.4a3.088,3.088,0,0,0,.223-.274c.121.054.24.122.363.166a1.413,1.413,0,0,0,.586.1,116.469,116.469,0,0,1,7.593,13.448c-5.825-6.249-30.56-15.859-31.466-16.1,4.359,2.9,26.351,23.6,31.815,19.84a1.819,1.819,0,0,0,.847-1.185,151.192,151.192,0,0,1,8.344,23.571c-4.07-11.585-18.45-25-30.091-23.13,13.511,4.13,18.139,21.444,29.855,26.916-.363,3.8.3,6.536,2.658,7.208a.809.809,0,0,0,.181.027c1.3,6.3,2.308,12.7,3.1,19.124-2.315-3.568-4.708-6.661-4.96-6.93-5.771-6.16-13.939-9.988-21.492-13.6,4.037,4,19.269,25.04,26.583,30.552a28.151,28.151,0,0,0,1.827,13.063q.26,5.051.4,10.044c-8.793-15.156-25.112-32.278-28.125-34.544,2.782,3.332,21.715,33.262,28.35,48.372q.018,3.387,0,6.716c0,.983-.017,1.956-.024,2.935-7.695-12.731-22.255-28.794-25.2-30.956,2.743,3.515,19.545,33.526,25.009,43.543q-.16,6.452-.443,12.8c-5.221-12.21-15.919-24.628-22.31-31.907,7.014,13.838,12.024,32.778,21.543,45.526q-.606,8.891-1.494,17.6c-.853-3.368-1.752-6.116-1.845-6.319-3.856-8.468-11.811-15.915-19.751-20.583,4.707,5.8,14.754,35.719,20.132,39.591-.164,1.266-.341,2.526-.515,3.788-3.283-10.323-10.859-19.752-20.625-19.691,12.852,6.255,13.167,21.781,18.534,33.227Q266.134,957,264,966.6c-4.279-12.461-13.484-31.014-24.859-31.263,9.984,4.036,15.98,30.406,22.967,39.372a369.791,369.791,0,0,1-40.618,99.509C249.4,1054.37,264.12,1017.722,271.38,979.464ZM279.487,856.3c-.267,1.566-.54,3.33-.751,5.05q-.014-1.846-.037-3.715A6.667,6.667,0,0,0,279.487,856.3Z"/><path class="az" d="M198.018,719.677c13.618-5.9,28.79,5.9,42.146,4.026C233.082,712.165,206.754,710.479,198.018,719.677Z"/><path class="ba" d="M418.5,902.3c.027.006.037.008.014,0Z"/><path class="bb" d="M400.337,888.684a2.954,2.954,0,0,0,.516,1.01c2.9,3.877,23.847-5.117,28.821-6.106-2.018-.462-17.178-.681-24.9,1.446q5.352-4.321,10.873-8.386a1.03,1.03,0,0,0,.135.155c4.647,3.892,24.2-3.239,31-1.937-4.893-3.285-21.156-2.328-28.11-.4q6.065-4.324,12.36-8.275c.014.034.015.069.032.1,3.474,6.832,23.876-12.5,25.612-15.7-3.649,2.5-26.431,10.738-25.744,15.289a252.331,252.331,0,0,0-22.483,14.59c3.98-6.8,8.351-21.126,10.156-26.065-8.788,34.091,7.743,14,.1-.281a11.251,11.251,0,0,1,.521-1.247c-2.021,1.9-20.142,28.661-15.524,31.092q-5.267,3.969-10.39,8.16c5.293-8.428,7.761-21.3,5.8-28.589-1.349,11.6-13.206,22.343-12.183,33.922-.112.1-.225.189-.336.284-2.247.479-3.665,1.474-3.713,3.208q-5.748,5.024-11.344,10.235c1.567-10.493,1.126-26.99.93-29.459-.806,3.175-7.441,26.644-7.2,34.832-5.176,1.841-8.521,4.455-7.893,8.154q-3.974,3.887-7.892,7.8c4.731-15.324,8.187-40.727,8.193-41.8-.856,3.559-13.982,39.938-16.309,49.942q-1.322,1.332-2.639,2.663c2.315-12.681,2.079-33.191,1.626-36.041-.513,4.242-7.7,34.071-8.507,42.992q-2.029,2.048-4.051,4.084-2.6,2.611-5.257,5.234c2.627-13.4,4.093-36.411,4.085-36.682-.435,1.759-10.78,31.51-9.855,42.335q-5.793,5.634-11.761,11.334c2.081-9.764,2.433-28.859.511-33.2.437,6.563-6.94,31.577-4.959,37.457l-2.271,2.176c2.475-9.116.715-20.024-5.991-25.7,6.209,11.088-1.143,22.245-1.839,33.222q-5.411,5.217-10.8,10.515c1.077-11.829.144-31.287-6.109-36.09,5.134,7.51-1.171,31.044,1.008,41.155a351.948,351.948,0,0,0-53.067,68.115c21.768-15.594,40.121-38.078,59.052-59.6,8.462,1.422,29.931-5.447,35.41-5.911-3.213-.8-20.452-.88-30.805.647,4.763-5.475,9.481-10.977,14.175-16.441,12.291-3.832,44.985-7.085,47.967-6.329-4.668-2.484-26.271-4.67-40.564-2.262q4.141-4.785,8.273-9.475c14.044-6.693,28.511-12.459,44.152-15.835-6.594-.306-21.807-.5-32.788,3.247,1.513-1.633,3.027-3.254,4.544-4.847q3.831-4.026,7.682-8.106a15.777,15.777,0,0,0-.76,1.5c14.94-2.17,29.563-10.845,45.628-12.263-10.494-2.1-28.845-2.3-39.255,4.821l0,0a6.086,6.086,0,0,0,1-1.062c5.732-6.059,11.521-12.141,17.4-18.162,11.43-3.072,38.372-11.039,42.122-11.741-3.378-.189-20.154-.248-32.807,2.357q6.012-5.949,12.19-11.722c5.695,1.962,32.211-.709,34.383-.737-.711-.164-17.966-5.056-28.2-4.915Q395.253,892.942,400.337,888.684Z"/><path class="bc" d="M424.518,868.584c9.269-4.025,22.209-26.611,21.112-35.813C440.654,844.694,423.7,854.467,424.518,868.584Z"/><path class="bd" d="M237.983,1019.513c4.029.793,15.246-19.5,17.551-22.813-1.236.852-13.035,12.091-17.095,18.488.45-4.841.685-9.682.722-14.464.112.053.223.107.343.154a.609.609,0,0,1-.338-.552c0-.182,0-.362,0-.543.546-5.963,16.58-33.642,18.241-35.429-3.94,2.488-13.975,13.837-18.618,23.343q-.192-2.944-.475-5.826c-.138-1.407-.293-2.853-.461-4.327.981-7.1,7.046-31.594,7.675-34.153-1.134,2.153-6.651,12.711-9.341,21.893-.642-4.072-1.393-8.282-2.265-12.569,3.319-10.433,3.064-23.445,5.877-34.435-3.743,6.642-7.726,15.535-8.232,23.931-1.591-6.477-3.467-13.017-5.663-19.428.492-9.8.463-19.979.185-29.7-1.067,5.453-3.162,12.457-4.087,19.314-1.588-3.856-3.308-7.62-5.167-11.247,1.326-2.981,2.676-10.191,2.324-21.811-2.8,7.94-4.081,13.893-4.462,17.809q-2.325-4.163-4.924-8.009c.542-7.016-3.342-15.011-6.751-21.341.739,5,.89,10.351,2.169,15.134q-2.269-2.808-4.728-5.34c-1-8.03-8.021-15.827-13.283-22.049,2.051,5.314,4.09,11.531,7.259,16.561q-2.208-1.765-4.553-3.292a2.165,2.165,0,0,1,.337.133c3.645-6.444-16.514-7.592-20.364-4.951,3.019-.59,15.5,3.291,19.278,4.559a58.054,58.054,0,0,1,6.18,4.868,20.949,20.949,0,0,0,5.264,5.354c0-.011,0-.023,0-.035a80.966,80.966,0,0,1,5.553,7.038,17.2,17.2,0,0,0,3.361,5.415c.018-.082.025-.166.041-.247,1.8,2.927,3.478,5.99,5.046,9.158.078,2.067.577,2.923,1.223,2.538,2.139,4.563,4.06,9.318,5.786,14.178l0,.05c-5.663-4.355-18.315-7.75-20.767-8.149,1.669.967,15.838,10.532,20.929,13.436a17.449,17.449,0,0,0,3.582,9.166c.064-.731.112-1.477.169-2.214.85,2.989,1.638,5.989,2.363,8.98-7.262-8.113-22.355-17.173-24.623-18.117,2.113,1.52,22.27,20.3,26.507,26.466q.468,2.244.895,4.462c-6.589-6.45-20.289-14.714-22-15.334,2.344,1.707,19.037,18.377,23.185,21.86.459,2.7.873,5.355,1.246,7.946-4.611-6.751-12.833-12.025-19.409-15.885,6.9,6.89,12.849,16.023,20.26,22.2.3,2.407.565,4.741.8,6.987.275,2.648.461,5.258.584,7.843-3.226-5.379-12.811-15.575-17.609-16.781,3.882,2.555,15.3,19.086,17.725,20.014q.042,1.742.04,3.465c-2.788-6.28-8.761-11.273-15.812-10.46,8.159,2.082,11.566,10.558,15.648,17.128q-.228,4.749-.758,9.394c-3.584-7.667-11.965-14.256-19.581-13.963,8.805,3.3,13.084,12.758,18.824,19.713-3.174,21.061-4.364,38.073-12.286,59.186C234.652,1058.606,235.437,1040.661,237.983,1019.513Z"/><path class="be" d="M169.855,877.548c6.587-5.579,15.878-4.059,23.737-4.582C186.8,866.6,174.166,869.248,169.855,877.548Z"/><path class="bf" d="M191.991,880.536c12.374.673,2.679-10.382-6.5-1.045.25.06.492.115.734.17-.5-.056-1-.11-1.516-.159C207.872,891.41,209.405,883.952,191.991,880.536Z"/><path class="bg" d="M214.44,902.56c-4.02-8.072-13.294-13.91-22.3-12.512C200.558,891.957,206.5,900.363,214.44,902.56Z"/><path class="bh" d="M270.891,968.56q4.149-9.1,8.359-18.173c.168.167.329.333.513.5.976.853,9.663-9.756,12-11.682,12.935-10.645,32.038-17.2,48.829-16.534-6.529-1.856-37.248,3.164-53.666,11.507q3.71-7.7,7.555-15.321c4.912-2.109,43.105-28.331,50.264-31.093-12.089,1.265-26.514,3.279-36.919,10.291a54,54,0,0,0-4.711,4.2q5.511-10.24,11.426-20.26c.281-.473.565-.938.847-1.408.625,5.741,17.169-8.048,19.461-9.291,10.49-5.694,21.589-9.534,33.561-10.32-11.258-2.054-32.878-1.54-44.856,6.806,5.139-7.6,10.531-14.8,16.162-21.734,7.464-3.322,19.059-9.835,21.126-10.515,9.92-3.26,20.429-4.724,30.625-6.9-12.246-.487-26.6-1.75-38.65,2.146,4.192-4.647,8.5-9.224,12.909-13.78,9.9,1.769,40.84-2.589,43.362-2.867-.513-.125-21.917-5.334-35.528-5.1q5.01-5.023,10.191-10.084c2.767,5.186,34.4-12.648,38.338-15.38-3.99.948-19.395,2.742-29.486,6.516,2.978-3.109,5.809-6.24,8.471-9.46a1.354,1.354,0,0,0,.182.072c9.738,2.892,31.685-19.922,37.281-23.878-3,.718-24.472,12.184-33.677,19a105.634,105.634,0,0,0,7.014-10.594,6.189,6.189,0,0,0,1.339-2.4q.483-.9.95-1.81c4.434,4.889,14.023-26.065,7.931-35.27.937,6.259-7.476,22.075-8.646,30.563-1.8-12.753-13.613-32.563-18.239-34.574,3.58,4.28,11.1,46.062,14.459,44.909a5.922,5.922,0,0,0,.7-.3c-1.808,2.752-3.726,5.388-5.748,7.936-.33-6.237-9.384-18.953-11.875-20.587,2.006,4.844,2.1,23.384,8.036,23.977a6.812,6.812,0,0,0,1.024.028c-3.011,3.531-6.218,6.918-9.592,10.248,3.217-9.383.519-33.629.215-35.646-.489,2.017-12.814,38.433-4,39.3q-.481.454-.965.909a9.645,9.645,0,0,0-3.29,3.04q-1.76,1.608-3.562,3.222-4.507,4.038-8.85,8.066c8.509-10.466,12.425-29.6,5.531-40.79,2.5,14.388-14.48,30.23-10.127,43.7-3.413.872-5.289,2.615-4.452,5.664q-6.4,6.2-12.443,12.529c1.446-13.472-2.456-35.9-2.857-39.055-.754,3.885-7.069,40.6-5.347,47.765-5.338,3.753-11.533,8.875-9.192,10.846q-4.839,5.865-9.45,12.013c3.963-20.4,5.387-58.171,5.369-58.67-.825,4.165-15.152,58.237-12.914,69.194q-1.028,1.5-2.044,3.017c-.3-16.716-5.967-43.728-6.93-47.291-.039,6.263-2.189,46.841.288,57.645-.144.236-.291.468-.435.7q-3.529,5.781-6.905,11.653c-1.247-17.135-6.861-44.036-7.365-46.256-.236,4.891-3.8,44.412,1.455,56.734q-3.825,6.939-7.49,13.968c-2.7-13.793-13.085-35.507-15.064-37.909,1.456,3.843,7.987,46.773,9.487,48.782q-1.248,2.483-2.478,4.976c.057-13.051-6.8-27.6-18.368-31.584,13.418,11.747,6.768,29.774,12.512,43.609q-3.433,7.172-6.777,14.383c-4.466-15.351-19.316-39.975-26.1-41.594,5.324,3.921,15.694,40.825,21.725,51.089q-5.209,11.409-10.3,22.851c-10.45,23.42-24.891,54.333-29.607,79.407,18.481-19.989,27.3-57.176,38.522-81.755q3.462-7.583,6.909-15.184c5.986-1.923,39.361-16.725,44.693-18.722C303.76,958.775,280.968,960.508,270.891,968.56Zm142.769-208.4a3.116,3.116,0,0,0,.218.445c-.1.175-.2.346-.3.519C413.619,760.815,413.643,760.492,413.66,760.162Z"/><path class="bi" d="M409.092,814.131h0C409.1,814.135,409.105,814.135,409.092,814.131Z"/><path class="p" d="M10.672,814.939c-31.614,68.78-43.532,150.049-28.534,233.3"/><path class="q" d="M29.1,797.452c-4.984,9.053-14.753,19.925-18.668,18.01-3.99-1.953-1.593-17.318,3.705-26.895,5.243-9.566,10.471-9.7,14.134-7.329C31.987,783.647,34.063,788.346,29.1,797.452Z"/><path class="r" d="M10.559,815.186a372.861,372.861,0,0,1,17.712-33.948"/><path class="r" d="M15.794,804.233q7.08-4.536,14.258-8.668"/><path class="r" d="M22.205,791.937q-.1-5.791-.006-11.649"/><path class="q" d="M26.386,845.975C16.038,849.391.671,849.864-.763,844.641c-1.458-5.292,11.452-15.4,22.049-18.314,10.571-2.981,14.561,1.214,15.791,6C38.3,837.19,36.744,842.55,26.386,845.975Z"/><path class="r" d="M-.469,844.53q18.685-7.02,37.546-12.2"/><path class="r" d="M11.35,840.281q8.548,2.51,17.118,4.931"/><path class="r" d="M24.946,835.859q4.006-4.71,8.137-9.219"/><path class="q" d="M-22.409,824.349c4.648,11.331,16.006,22.63,20.3,19.734,4.221-2.828,1.737-19.456-2.495-30.559-4.293-11.073-9.8-11.887-14.451-9.18C-23.636,806.975-27.071,813.072-22.409,824.349Z"/><path class="q" d="M19.089,884.723c-11.734,5.391-29.751,8.094-32.128,2.031C-15.462,880.6-1.51,866.806,10.644,862.09c12.108-4.808,17.3-.3,19.322,5.185C31.99,872.856,30.834,879.319,19.089,884.723Z"/><path class="r" d="M-12.707,886.582a433.814,433.814,0,0,1,42.673-19.307"/><path class="r" d="M.656,879.935q10.385,1.871,20.785,3.614"/><path class="r" d="M16.11,872.939q4.136-6.082,8.472-11.895"/><path class="q" d="M16.2,933.927c-13.08,8.4-34.042,14.808-37.9,7.8-3.95-7.138,10.474-26.242,24.292-33.731,13.73-7.615,20.576-2.921,23.818,3.305C29.656,917.668,29.288,925.508,16.2,933.927Z"/><path class="r" d="M-21.344,941.457A433.728,433.728,0,0,1,26.4,911.3"/><path class="r" d="M-6.537,931.16q12.67.577,25.34.972"/><path class="r" d="M10.756,920.231q3.976-7.972,8.292-15.585"/><path class="q" d="M20.007,989.069c-13.5,12.069-36.328,23.4-42.087,15.764-5.905-7.8,7.288-32.874,21.982-43.841,14.546-11.123,23.176-6.692,27.925,0C32.622,967.865,33.524,976.968,20.007,989.069Z"/><path class="r" d="M-21.71,1004.454a432.3,432.3,0,0,1,49.537-43.467"/><path class="r" d="M-6.591,989.737q14.655-1.486,29.27-3.216"/><path class="r" d="M11.354,973.984q3.2-9.989,6.934-19.548"/><path class="bj" d="M268.043,1156.272c-54.61,41.89-118.13,38.18-137.53,36.291-38.01-48.74-39.6-80.5-34.19-100.411,8.17-30.01,34.34-40.859,57.55-68.78q7.155,10.035,14.3,20.06-1.365-18.06-2.73-36.12,2.37-3.795,4.6-7.98c12.54-23.48,17.01-47.2,18.15-66.97q7.725,8.9,15.43,17.79-3.48-20.19-6.95-40.38c35.53-4.22,70.22.95,97.3,15.2q-10.4,11.64-20.8,23.28,19.23-5.895,38.46-11.81a94.777,94.777,0,0,1,18.74,19.85,89.15,89.15,0,0,1,13.03,28.08q-17.955,12.21-35.93,24.4l39.27-2.07C348.933,1061.342,311.293,1123.1,268.043,1156.272Z"/><path class="bk" d="M134.633,1261.682c-21.51,4.91-92.31,18.23-159.67-20.95-74.39-43.27-113.68-132.919-98.79-215.61a192.951,192.951,0,0,1,8.36-31.18q15.045,7.62,30.1,15.23-10.9-17.445-21.8-34.9c17.49-36.01,41.97-59.26,53.28-69.13a247.371,247.371,0,0,1,40.73,8.01q10.215,20.16,20.41,40.31,1.23-16.305,2.45-32.6a238.763,238.763,0,0,1,37.38,18.49q4.68,19.26,9.35,38.51,4.2-13.275,8.38-26.55a226.178,226.178,0,0,1,26.87,23.52,226.918,226.918,0,0,1,15.96,18.2q.255,20.73.5,41.46,6.525-11.1,13.06-22.2c34.54,54.96,36.83,111.281,37.36,131.7A270.691,270.691,0,0,1,134.633,1261.682Z"/><use width="72" height="153" transform="translate(193.461 115.445) rotate(142.694) scale(0.625)" xlink:href="#bf"/><use width="72" height="153" transform="translate(793.567 30.891) rotate(140.431) scale(0.56)" xlink:href="#bf"/><use width="72" height="153" transform="translate(427.596 153.096) rotate(142.329) scale(0.654)" xlink:href="#be"/></g></svg>