<svg xmlns="http://www.w3.org/2000/svg" xmlns:xlink="http://www.w3.org/1999/xlink" width="1044" height="462" viewBox="0 0 1044 462"><defs><style>.a{fill:url(#a);}.b{fill:url(#b);}.c{fill:url(#c);}.d{fill:url(#d);}.e{fill:url(#e);}.f{fill:url(#f);}.g,.h,.i,.l,.m,.n,.s,.t,.u,.v{fill:none;stroke-miterlimit:10;stroke-width:2px;}.g{stroke:url(#g);}.h{stroke:url(#h);}.i{stroke:url(#i);}.j{fill:url(#j);}.k{fill:url(#k);}.l{stroke:url(#l);}.m{stroke:url(#m);}.n{stroke:url(#n);}.o{fill:url(#o);}.p{fill:url(#p);}.q{fill:url(#q);}.r{fill:url(#r);}.s{stroke:url(#s);}.t{stroke:url(#t);}.u{stroke:url(#u);}.v{stroke:url(#v);}</style><linearGradient id="a" x1="213" y1="95.5" x2="213" y2="462" gradientUnits="userSpaceOnUse"><stop offset="0" stop-color="#00408a"/><stop offset="1" stop-color="#2d7aeb"/></linearGradient><linearGradient id="b" x1="154.5" y1="125.5" x2="154.5" xlink:href="#a"/><linearGradient id="c" y1="62.5" x2="213" y2="95.5" xlink:href="#a"/><linearGradient id="d" x1="24" y1="48" x2="24" xlink:href="#a"/><linearGradient id="e" x1="120" y1="79.5" x2="120" xlink:href="#a"/><linearGradient id="f" x1="72" y1="0" x2="72" xlink:href="#a"/><linearGradient id="g" x1="72.25" y1="35" x2="72.25" y2="24.5" gradientUnits="userSpaceOnUse"><stop offset="0" stop-color="#2d7aeb"/><stop offset="1" stop-color="#2d7aeb" stop-opacity="0"/></linearGradient><linearGradient id="h" x1="191.5" y1="126.5" x2="191.5" y2="116" xlink:href="#g"/><linearGradient id="i" x1="234.5" y1="126.5" x2="234.5" y2="116" xlink:href="#g"/><linearGradient id="j" x1="474" y1="135.5" x2="474" xlink:href="#a"/><linearGradient id="k" x1="474" y1="102.5" x2="474" y2="135.5" xlink:href="#a"/><linearGradient id="l" y1="76" y2="65.5" xlink:href="#g"/><linearGradient id="m" x1="63.5" y1="55.5" x2="63.5" y2="45" xlink:href="#g"/><linearGradient id="n" x1="81" y1="55.5" x2="81" y2="45" xlink:href="#g"/><linearGradient id="o" x1="16496.5" y1="125.5" x2="16496.5" gradientTransform="matrix(-1, 0, 0, 1, 16768, 0)" xlink:href="#a"/><linearGradient id="p" x1="16366" y1="68" x2="16366" gradientTransform="matrix(-1, 0, 0, 1, 16768, 0)" xlink:href="#a"/><linearGradient id="q" x1="16462" y1="89.5" x2="16462" gradientTransform="matrix(-1, 0, 0, 1, 16768, 0)" xlink:href="#a"/><linearGradient id="r" x1="16414" y1="10" x2="16414" gradientTransform="matrix(-1, 0, 0, 1, 16768, 0)" xlink:href="#a"/><linearGradient id="s" x1="16414.25" y1="45" x2="16414.25" y2="34.5" gradientTransform="matrix(-1, 0, 0, 1, 16768, 0)" xlink:href="#g"/><linearGradient id="t" x1="16414.25" y1="86" x2="16414.25" y2="75.5" gradientTransform="matrix(-1, 0, 0, 1, 16768, 0)" xlink:href="#g"/><linearGradient id="u" x1="16405.5" y1="65.5" x2="16405.5" y2="55" gradientTransform="matrix(-1, 0, 0, 1, 16768, 0)" xlink:href="#g"/><linearGradient id="v" x1="16423" y1="65.5" x2="16423" y2="55" gradientTransform="matrix(-1, 0, 0, 1, 16768, 0)" xlink:href="#g"/><symbol id="w" viewBox="0 0 522 462"><rect class="a" x="165" y="95.5" width="96" height="366.5"/><rect class="b" x="144" y="125.5" width="21" height="336.5"/><polygon class="c" points="261 95.5 165 95.5 213 62.5 261 95.5"/><path class="d" d="M48,462H0V72a8,8,0,0,1,8-8H48ZM26.5,53.5H8.5V64h18ZM20,48H12.5v7.5H20Z"/><path class="e" d="M144,462H96V95.5h40a8,8,0,0,1,8,8ZM136.5,85h-18V95.5h18ZM135,79.5h-7.5V87H135Z"/><path class="f" d="M96,462H48V14a8,8,0,0,1,8-8H88a8,8,0,0,1,8,8ZM89.5,0h-35V2h35ZM58,1.5H57v5h1Zm14.5,0h-1v5h1ZM87,1.5H86v5h1Z"/><path class="g" d="M56.5,24.5V30a4,4,0,0,0,4,4H84a4,4,0,0,0,4-4V24.5"/><path class="h" d="M175.75,116v5.5a4,4,0,0,0,4,4h23.5a4,4,0,0,0,4-4V116"/><path class="i" d="M218.75,116v5.5a4,4,0,0,0,4,4h23.5a4,4,0,0,0,4-4V116"/><rect class="j" x="426" y="135.5" width="96" height="326.5"/><polygon class="k" points="522 135.5 426 135.5 474 102.5 522 135.5"/><path class="l" d="M56.5,65.5V71a4,4,0,0,0,4,4H84a4,4,0,0,0,4-4V65.5"/><path class="m" d="M56.5,45v5.5a4,4,0,0,0,4,4h6a4,4,0,0,0,4-4V45"/><path class="n" d="M74,45v5.5a4,4,0,0,0,4,4h6a4,4,0,0,0,4-4V45"/><polygon class="o" points="261 462 282 462 282 125.5 261 125.5 261 462"/><path class="p" d="M378,84h48V462H378Zm21.5,0h18V73.5h-18Zm6.5-8.5h7.5V68H406Z"/><path class="q" d="M282,105.5h48V462H282Zm7.5,0h18V95h-18ZM291,97h7.5V89.5H291Z"/><path class="r" d="M330,16h48V462H330Zm6.5-4h35V10h-35ZM368,16.5h1v-5h-1Zm-14.5,0h1v-5h-1Zm-14.5,0h1v-5h-1Z"/><path class="s" d="M369.5,34.5V40a4,4,0,0,1-4,4H342a4,4,0,0,1-4-4V34.5"/><path class="t" d="M369.5,75.5V81a4,4,0,0,1-4,4H342a4,4,0,0,1-4-4V75.5"/><path class="u" d="M369.5,55v5.5a4,4,0,0,1-4,4h-6a4,4,0,0,1-4-4V55"/><path class="v" d="M352,55v5.5a4,4,0,0,1-4,4h-6a4,4,0,0,1-4-4V55"/></symbol></defs><title>city-symbol</title><use width="522" height="462" transform="translate(522)" xlink:href="#w"/><use width="522" height="462" transform="translate(0 73)" xlink:href="#w"/></svg>