	<svg xmlns="http://www.w3.org/2000/svg" width="184" height="48" viewBox="0 0 184 48"><path fill="#f1f5f8" d="M141,24h0a8,8,0,0,1,8-8h11a8,8,0,0,0,8-8h0a8,8,0,0,0-8-8H47a8,8,0,0,0-8,8h0a8,8,0,0,0,8,8H69a8,8,0,0,1,8,8h0a8,8,0,0,1-8,8H8a8,8,0,0,0-8,8H0a8,8,0,0,0,8,8H176a8,8,0,0,0,8-8h0a8,8,0,0,0-8-8H149A8,8,0,0,1,141,24Z"><animate attributeName="d" begin="0s" dur="10s" repeatCount="indefinite" from="M141,24h0a8,8,0,0,1,8-8h11a8,8,0,0,0,8-8h0a8,8,0,0,0-8-8H47a8,8,0,0,0-8,8h0a8,8,0,0,0,8,8H69a8,8,0,0,1,8,8h0a8,8,0,0,1-8,8H8a8,8,0,0,0-8,8H0a8,8,0,0,0,8,8H176a8,8,0,0,0,8-8h0a8,8,0,0,0-8-8H149A8,8,0,0,1,141,24Z" to="M141,24h0a8,8,0,0,1,8-8h11a8,8,0,0,0,8-8h0a8,8,0,0,0-8-8H47a8,8,0,0,0-8,8h0a8,8,0,0,0,8,8H69a8,8,0,0,1,8,8h0a8,8,0,0,1-8,8H8a8,8,0,0,0-8,8H0a8,8,0,0,0,8,8H176a8,8,0,0,0,8-8h0a8,8,0,0,0-8-8H149A8,8,0,0,1,141,24Z" values="M141,24h0a8,8,0,0,1,8-8h11a8,8,0,0,0,8-8h0a8,8,0,0,0-8-8H47a8,8,0,0,0-8,8h0a8,8,0,0,0,8,8H69a8,8,0,0,1,8,8h0a8,8,0,0,1-8,8H8a8,8,0,0,0-8,8H0a8,8,0,0,0,8,8H176a8,8,0,0,0,8-8h0a8,8,0,0,0-8-8H149A8,8,0,0,1,141,24Z; M121,24h0a8,8,0,0,1,8-8h41a8,8,0,0,0,8-8h0a8,8,0,0,0-8-8H17A8,8,0,0,0,9,8H9a8,8,0,0,0,8,8H49a8,8,0,0,1,8,8h0a8,8,0,0,1-8,8H28a8,8,0,0,0-8,8h0a8,8,0,0,0,8,8H146a8,8,0,0,0,8-8h0a8,8,0,0,0-8-8H129A8,8,0,0,1,121,24Z; M141,24h0a8,8,0,0,1,8-8h11a8,8,0,0,0,8-8h0a8,8,0,0,0-8-8H47a8,8,0,0,0-8,8h0a8,8,0,0,0,8,8H69a8,8,0,0,1,8,8h0a8,8,0,0,1-8,8H8a8,8,0,0,0-8,8H0a8,8,0,0,0,8,8H176a8,8,0,0,0,8-8h0a8,8,0,0,0-8-8H149A8,8,0,0,1,141,24Z"/></path></svg>