<svg xmlns="http://www.w3.org/2000/svg" xmlns:xlink="http://www.w3.org/1999/xlink" width="312.82" height="279.352" viewBox="0 0 312.82 279.352"><defs><linearGradient id="a" x1="0.5" y1="1.001" x2="0.5" gradientUnits="objectBoundingBox"><stop offset="0" stop-color="gray" stop-opacity="0.251"/><stop offset="0.54" stop-color="gray" stop-opacity="0.122"/><stop offset="1" stop-color="gray" stop-opacity="0.102"/></linearGradient><linearGradient id="d" x1="0.5" y1="1" x2="0.5" y2="0" xlink:href="#a"/><linearGradient id="f" x1="0.5" y1="1.001" x2="0.5" y2="0" xlink:href="#a"/><linearGradient id="j" x1="0.5" y1="1" x2="0.5" y2="-0.001" xlink:href="#a"/><linearGradient id="s" x1="0.5" y1="1" x2="0.5" y2="-0.001" xlink:href="#a"/><linearGradient id="bh" x1="0.5" y1="1" x2="0.5" y2="0" xlink:href="#a"/><linearGradient id="bx" x1="0.499" y1="1" x2="0.499" y2="-0.001" xlink:href="#a"/><clipPath id="by"><path d="M751.428,474.678l-.681-1.618-8.876,3.647a1.094,1.094,0,0,0-.681,1.012V487.3h1.754v-9.14Z" transform="translate(-741.19 -473.06)" fill="#f2f2f2"/></clipPath><linearGradient id="bz" x1="0.5" y1="1" x2="0.5" y2="0" xlink:href="#a"/><linearGradient id="ca" x1="0.5" y1="1" x2="0.5" gradientUnits="objectBoundingBox"><stop offset="0" stop-opacity="0.122"/><stop offset="0.55" stop-opacity="0.09"/><stop offset="1" stop-opacity="0.02"/></linearGradient></defs><g transform="translate(0 0.737)"><path d="M60.924,350.29H318.339a9.3,9.3,0,0,1,9.3,9.3v92.345H51.62V359.594a9.3,9.3,0,0,1,9.3-9.3Z" transform="translate(-33.219 -225.899)" fill="#535461"/><path d="M11.769,492.87H34.522a4.4,4.4,0,0,1,4.4,4.4v46.429h-28.7a2.852,2.852,0,0,1-2.852-2.852V497.265a4.4,4.4,0,0,1,4.4-4.4Z" transform="translate(-4.743 -317.655)" opacity="0.1"/><path d="M4.4,492.87H27.148a4.4,4.4,0,0,1,4.4,4.4v46.429H2.852A2.852,2.852,0,0,1,0,540.843V497.265a4.4,4.4,0,0,1,4.4-4.4Z" transform="translate(0 -317.655)" fill="#535461"/><path d="M2.852,0h28.7V46.426a4.4,4.4,0,0,1-4.4,4.4H4.4a4.4,4.4,0,0,1-4.4-4.4V2.852A2.852,2.852,0,0,1,2.852,0Z" transform="translate(310.194 226.04) rotate(180)" opacity="0.1"/><path d="M2.848,0h28.7V46.426a4.4,4.4,0,0,1-4.4,4.4H4.4a4.4,4.4,0,0,1-4.4-4.4V2.852A2.852,2.852,0,0,1,2.852,0Z" transform="translate(312.821 226.04) rotate(180)" fill="#535461"/><path d="M95.216,538.35h236.3a6.716,6.716,0,0,1,6.716,6.716v27.9H88.5v-27.9a6.716,6.716,0,0,1,6.716-6.716Z" transform="translate(-56.953 -346.923)" fill="#535461"/><path d="M95.216,538.35h236.3a6.716,6.716,0,0,1,6.716,6.716v27.9H88.5v-27.9a6.716,6.716,0,0,1,6.716-6.716Z" transform="translate(-56.953 -346.923)" opacity="0.15"/><rect width="9.639" height="10.077" transform="translate(13.581 226.04)" fill="#535461"/><rect width="9.639" height="10.077" transform="translate(13.581 226.04)" opacity="0.15"/><rect width="9.639" height="0.438" transform="translate(13.581 226.04)" opacity="0.1"/><rect width="9.639" height="10.077" transform="translate(299.24 236.113) rotate(180)" fill="#535461"/><rect width="9.639" height="10.077" transform="translate(299.24 236.113) rotate(180)" opacity="0.15"/><rect width="9.639" height="0.438" transform="translate(299.24 226.475) rotate(180)" opacity="0.1"/><text transform="translate(72.818 159.117)" font-size="11" font-family="Lato-Light, Lato" font-weight="300" opacity="0.7"><tspan x="0" y="0">1</tspan></text><rect width="6.135" height="8.323" transform="translate(62.652 245.317)" fill="#fdb797"/><rect width="6.135" height="8.323" transform="translate(83.683 245.317)" fill="#fdb797"/><rect width="40.309" height="14.458" transform="translate(56.079 176.969)" fill="#4d8af0"/><g transform="translate(56.079 176.969)" opacity="0.05"><rect width="40.309" height="14.458"/></g><path d="M318.54,555.2s15.039,3.508,20.151,3.508,20.154-3.5,20.154-3.5V553H318.54Z" transform="translate(-262.458 -375.6)" opacity="0.1"/><path d="M358.839,478.041s-15.039,3.5-20.154,3.5-20.154-3.5-20.154-3.5v-24.1a20.154,20.154,0,0,1,20.154-20.154h0a20.154,20.154,0,0,1,20.154,20.154Z" transform="translate(-262.451 -298.883)" fill="#f55f44"/><path d="M200.34,351.52h9.624v11.852a3.921,3.921,0,0,1-3.921,3.921h-1.782a3.921,3.921,0,0,1-3.921-3.921Z" transform="translate(-128.926 -226.691)" fill="#fdb797"/><path d="M317,630.066l-10.591,1.989a1.843,1.843,0,0,1-2.139-1.472l-11.1-59.412a6.081,6.081,0,0,1,4.862-7.1l6.416-1.2a1.843,1.843,0,0,1,2.139,1.472l11.867,63.568A1.843,1.843,0,0,1,317,630.066Z" transform="translate(-246.064 -381.936)" fill="#4d8af0"/><path d="M387.235,630.066l10.59,1.989a1.843,1.843,0,0,0,2.139-1.472l11.207-60.01a5.475,5.475,0,0,0-4.377-6.384l-7.022-1.312a1.843,1.843,0,0,0-2.139,1.472l-11.87,63.568A1.843,1.843,0,0,0,387.235,630.066Z" transform="translate(-305.698 -381.936)" fill="#4d8af0"/><path d="M361.55,413.612a20.169,20.169,0,0,0,9.624,0V406.75H361.55Z" transform="translate(-290.136 -281.482)" opacity="0.1"/><circle cx="21.031" cy="21.031" r="21.031" transform="translate(55.202 86.274)" fill="#333"/><circle cx="20.154" cy="20.154" r="20.154" transform="translate(56.079 91.971)" fill="#fdb797"/><path d="M330.892,281.473c3.878-3.165,9.742-3.729,12.662-7.792,1.216-1.69,2.071-4.06,4.121-4.431l.061,4.324,6.563-.674c-1.012,2.852,1.472,5.593,2.966,8.227a13.546,13.546,0,0,1,1.75,6.366c-2.278,1.369-5.1-.125-7.639-.92a28.225,28.225,0,0,0-7.668-.927,15.934,15.934,0,0,0-3.957.217,19.962,19.962,0,0,0-3.265,1.2c-1.747.713-7.254,3.49-8.876,1.711C325.766,286.756,329.4,282.706,330.892,281.473Z" transform="translate(-267.966 -192.996)" fill="#333"/><path d="M335.16,320.364a9.241,9.241,0,0,0,3.565,1.069,31.4,31.4,0,0,0,15.3-1.718,7.47,7.47,0,0,0,4.819,4.074,21.779,21.779,0,0,0,6.459.713,2.392,2.392,0,0,0,1.39-.267c.97-.656.5-2.139-.064-3.176l-2.809-5.09a15.141,15.141,0,0,0-2.969-4.178,12.344,12.344,0,0,0-5.86-2.517,33.044,33.044,0,0,0-15.039.5C334.7,311.21,327.963,316.008,335.16,320.364Z" transform="translate(-271.136 -218.345)" opacity="0.1"/><path d="M335.161,319.153a9.244,9.244,0,0,0,3.565,1.069,31.4,31.4,0,0,0,15.3-1.718,7.47,7.47,0,0,0,4.819,4.074,21.782,21.782,0,0,0,6.459.713,2.392,2.392,0,0,0,1.39-.267c.97-.656.5-2.139-.064-3.176l-2.805-5.08a15.142,15.142,0,0,0-2.969-4.178,12.344,12.344,0,0,0-5.86-2.517,33.044,33.044,0,0,0-15.039.5C334.7,310,327.964,314.8,335.161,319.153Z" transform="translate(-271.136 -217.572)" fill="#333"/><ellipse cx="1.754" cy="3.287" rx="1.754" ry="3.287" transform="translate(94.416 108.838)" fill="#fdb797"/><ellipse cx="1.754" cy="3.287" rx="1.754" ry="3.287" transform="translate(54.546 108.838)" fill="#fdb797"/><path d="M323.954,437.358s-25.491-3.971-20.24,35.447l3.066,11.3,8.765-.357s-5.7-13.143-2.192-21.908S323.954,437.358,323.954,437.358Z" transform="translate(-252.458 -301.108)" fill="#f55f44"/><path d="M388.37,437.359s25.494-3.971,20.236,35.461l-3.066,11.3-8.765-.356s5.7-13.143,2.192-21.908S388.37,437.359,388.37,437.359Z" transform="translate(-307.396 -301.108)" fill="#f55f44"/><circle cx="4.819" cy="4.819" r="4.819" transform="translate(54.328 179.596)" fill="#fdb797"/><circle cx="4.819" cy="4.819" r="4.819" transform="translate(89.379 179.596)" fill="#fdb797"/><path d="M171.052,703h2.456a5.122,5.122,0,0,1,5.122,5.122v1.886h-12.7v-1.886A5.122,5.122,0,0,1,171.052,703Z" transform="translate(-106.782 -452.881)" fill="#333"/><path d="M231.276,703h2.456a5.122,5.122,0,0,1,5.122,5.122v1.886h-12.7v-1.886A5.122,5.122,0,0,1,231.276,703Z" transform="translate(-145.536 -452.881)" fill="#333"/><path d="M329.929,496.48s-1.754,9.2,1.315,13.143" transform="translate(-269.466 -339.227)" opacity="0.1"/><path d="M416.945,496.48s1.754,9.2-1.315,13.143" transform="translate(-324.939 -339.227)" opacity="0.1"/><rect width="40.309" height="29.793" transform="translate(149.839 157.692)" fill="#4d8af0"/><path d="M581.56,506.38s15.039,1.754,20.154,1.754,20.154-1.754,20.154-1.754v-7.45H581.56Z" transform="translate(-431.721 -340.803)" opacity="0.1"/><path d="M621.869,429.219s-15.039,1.754-20.154,1.754-20.154-1.754-20.154-1.754V399.864a20.154,20.154,0,0,1,20.154-20.154h0a20.154,20.154,0,0,1,20.154,20.154Z" transform="translate(-431.721 -264.081)" fill="#0771b2"/><path d="M463.37,297.44h9.625v11.852a3.921,3.921,0,0,1-3.921,3.921h-1.782a3.921,3.921,0,0,1-3.921-3.921Z" transform="translate(-298.196 -191.888)" fill="#fdb797"/><rect width="14.458" height="98.141" transform="translate(149.839 176.969)" fill="#4d8af0"/><rect width="14.458" height="98.141" transform="translate(175.69 176.969)" fill="#4d8af0"/><path d="M624.58,359.535a20.169,20.169,0,0,0,9.624,0V352.67H624.58Z" transform="translate(-459.406 -246.68)" opacity="0.1"/><circle cx="21.031" cy="21.031" r="21.031" transform="translate(148.962 66.997)" fill="#814e4d"/><circle cx="20.154" cy="20.154" r="20.154" transform="translate(149.839 72.693)" fill="#fdb797"/><path d="M598.185,266.284a9.242,9.242,0,0,0,3.565,1.069,31.4,31.4,0,0,0,15.3-1.718,7.47,7.47,0,0,0,4.819,4.074,21.78,21.78,0,0,0,6.459.713,2.392,2.392,0,0,0,1.39-.267c.97-.656.5-2.139-.064-3.176l-2.809-5.09a15.142,15.142,0,0,0-2.969-4.178,12.344,12.344,0,0,0-5.86-2.517,33.044,33.044,0,0,0-15.039.5C597.732,257.126,590.991,261.928,598.185,266.284Z" transform="translate(-440.404 -183.542)" opacity="0.1"/><path d="M598.185,265.054a9.242,9.242,0,0,0,3.565,1.069,31.4,31.4,0,0,0,15.3-1.718,7.47,7.47,0,0,0,4.819,4.074,21.781,21.781,0,0,0,6.459.713,2.392,2.392,0,0,0,1.39-.267c.97-.656.5-2.139-.064-3.176l-2.809-5.09a15.142,15.142,0,0,0-2.969-4.178,12.344,12.344,0,0,0-5.86-2.517,33.044,33.044,0,0,0-15.039.5C597.732,255.9,590.991,260.7,598.185,265.054Z" transform="translate(-440.404 -182.75)" fill="#814e4d"/><ellipse cx="1.754" cy="3.287" rx="1.754" ry="3.287" transform="translate(188.177 89.561)" fill="#fdb797"/><ellipse cx="1.754" cy="3.287" rx="1.754" ry="3.287" transform="translate(148.306 89.561)" fill="#fdb797"/><circle cx="4.819" cy="4.819" r="4.819" transform="translate(219.064 62.178)" fill="#fdb797"/><path d="M602.944,329.219s-11.407,3.942-20.154-4.819c0,0,.713,2.905,1.925,6.416a20.154,20.154,0,0,0,37.685-6.263C620.354,325.683,605.383,332.877,602.944,329.219Zm-.438,5.258c-2.174,0-3.957-1.665-3.957-2.627s1.782-.877,3.942-.877,3.943-.093,3.943.877S604.684,334.477,602.506,334.477Z" transform="translate(-432.513 -228.487)" fill="#814e4d"/><path d="M668.15,295s23.473-13.164,37.92-51.719l7.012,4.381s-11.61,49.131-40.747,60.463Z" transform="translate(-487.445 -176.283)" fill="#0771b2"/><circle cx="4.819" cy="4.819" r="4.819" transform="translate(111.284 62.178)" fill="#fdb797"/><path d="M526.914,295s-23.462-13.164-37.921-51.719L482,247.661s11.614,49.131,40.747,60.463Z" transform="translate(-367.65 -176.283)" fill="#0771b2"/><path d="M427.936,763.27h2.456a5.122,5.122,0,0,1,5.122,5.122v1.886h-12.7v-1.886A5.122,5.122,0,0,1,427.936,763.27Z" transform="translate(-272.094 -491.667)" fill="#333"/><path d="M500.452,763.27h2.456a5.122,5.122,0,0,1,5.137,5.126v1.886H495.33V768.4a5.122,5.122,0,0,1,5.122-5.126Z" transform="translate(-318.763 -491.667)" fill="#333"/><circle cx="1.426" cy="1.426" r="1.426" transform="translate(123.062 167.256)" fill="url(#a)"/><circle cx="1.269" cy="1.269" r="1.269" transform="translate(123.218 167.412)" fill="#fdd835"/><path d="M507.261,526.611a1.269,1.269,0,0,1,2.139-.909,1.269,1.269,0,1,0-2.032,1.447,1.261,1.261,0,0,1-.107-.538Z" transform="translate(-383.726 -357.558)" fill="#fff" opacity="0.2"/><circle cx="1.426" cy="1.426" r="1.426" transform="translate(127.186 167.256)" fill="url(#a)"/><circle cx="1.269" cy="1.269" r="1.269" transform="translate(127.343 167.412)" fill="#fdd835"/><path d="M518.831,526.611a1.269,1.269,0,0,1,2.139-.909,1.269,1.269,0,1,0-2.032,1.447A1.263,1.263,0,0,1,518.831,526.611Z" transform="translate(-391.171 -357.558)" fill="#fff" opacity="0.2"/><circle cx="1.426" cy="1.426" r="1.426" transform="translate(115.451 167.256)" fill="url(#a)"/><circle cx="1.269" cy="1.269" r="1.269" transform="translate(115.608 167.412)" fill="#fdd835"/><path d="M485.911,526.611a1.269,1.269,0,0,1,2.139-.909,1.269,1.269,0,1,0-2.032,1.447A1.263,1.263,0,0,1,485.911,526.611Z" transform="translate(-369.986 -357.558)" fill="#fff" opacity="0.2"/><circle cx="1.426" cy="1.426" r="1.426" transform="translate(120.841 163.662)" fill="url(#d)"/><circle cx="1.269" cy="1.269" r="1.269" transform="translate(120.998 163.819)" fill="#fdd835"/><path d="M501.041,516.531a1.269,1.269,0,0,1,2.139-.909,1.269,1.269,0,1,0-2.032,1.447A1.261,1.261,0,0,1,501.041,516.531Z" transform="translate(-379.723 -351.072)" fill="#fff" opacity="0.2"/><circle cx="1.426" cy="1.426" r="1.426" transform="translate(129.246 164.243)" fill="url(#d)"/><circle cx="1.269" cy="1.269" r="1.269" transform="translate(129.403 164.4)" fill="#fdd835"/><path d="M524.611,518.161a1.269,1.269,0,0,1,2.139-.909,1.269,1.269,0,1,0-2.032,1.447A1.264,1.264,0,0,1,524.611,518.161Z" transform="translate(-394.891 -352.121)" fill="#fff" opacity="0.2"/><circle cx="1.426" cy="1.426" r="1.426" transform="translate(127.186 162.974)" fill="url(#f)"/><circle cx="1.269" cy="1.269" r="1.269" transform="translate(127.343 163.131)" fill="#fdd835"/><path d="M518.831,514.6a1.269,1.269,0,0,1,2.139-.909,1.269,1.269,0,1,0-2.032,1.447A1.263,1.263,0,0,1,518.831,514.6Z" transform="translate(-391.171 -349.829)" fill="#fff" opacity="0.2"/><circle cx="1.426" cy="1.426" r="1.426" transform="translate(128.187 165.987)" fill="url(#a)"/><circle cx="1.269" cy="1.269" r="1.269" transform="translate(128.344 166.143)" fill="#fdd835"/><path d="M521.641,523.031a1.269,1.269,0,0,1,2.139-.909,1.269,1.269,0,1,0-2.032,1.447A1.263,1.263,0,0,1,521.641,523.031Z" transform="translate(-392.98 -355.255)" fill="#fff" opacity="0.2"/><circle cx="1.426" cy="1.426" r="1.426" transform="translate(124.487 163.662)" fill="url(#d)"/><circle cx="1.269" cy="1.269" r="1.269" transform="translate(124.644 163.819)" fill="#fdd835"/><path d="M511.271,516.53a1.269,1.269,0,0,1,2.139-.909,1.269,1.269,0,1,0-2.032,1.447A1.262,1.262,0,0,1,511.271,516.53Z" transform="translate(-386.306 -351.071)" fill="#fff" opacity="0.2"/><circle cx="1.426" cy="1.426" r="1.426" transform="translate(124.331 159.645)" fill="url(#a)"/><circle cx="1.269" cy="1.269" r="1.269" transform="translate(124.487 159.802)" fill="#fdd835"/><path d="M510.821,505.26a1.269,1.269,0,0,1,2.139-.909,1.269,1.269,0,1,0-2.032,1.447A1.262,1.262,0,0,1,510.821,505.26Z" transform="translate(-386.017 -343.819)" fill="#fff" opacity="0.2"/><circle cx="1.426" cy="1.426" r="1.426" transform="translate(131.36 161.709)" fill="url(#j)"/><circle cx="1.269" cy="1.269" r="1.269" transform="translate(131.517 161.866)" fill="#fdd835"/><path d="M530.541,511.031a1.269,1.269,0,0,1,2.139-.909,1.269,1.269,0,1,0-2.032,1.447A1.262,1.262,0,0,1,530.541,511.031Z" transform="translate(-398.707 -347.532)" fill="#fff" opacity="0.2"/><circle cx="1.426" cy="1.426" r="1.426" transform="translate(130.672 164.404)" fill="url(#j)"/><circle cx="1.269" cy="1.269" r="1.269" transform="translate(130.829 164.561)" fill="#fdd835"/><path d="M528.611,518.6a1.269,1.269,0,0,1,2.139-.909,1.269,1.269,0,1,0-2.032,1.447A1.262,1.262,0,0,1,528.611,518.6Z" transform="translate(-397.465 -352.404)" fill="#fff" opacity="0.2"/><circle cx="1.426" cy="1.426" r="1.426" transform="translate(133.845 163.873)" fill="url(#f)"/><circle cx="1.269" cy="1.269" r="1.269" transform="translate(134.001 164.03)" fill="#fdd835"/><path d="M537.491,517.121a1.269,1.269,0,0,1,2.139-.909,1.269,1.269,0,1,0-2.032,1.447A1.264,1.264,0,0,1,537.491,517.121Z" transform="translate(-403.18 -351.451)" fill="#fff" opacity="0.2"/><circle cx="1.426" cy="1.426" r="1.426" transform="translate(132.415 165.195)" fill="url(#d)"/><circle cx="1.269" cy="1.269" r="1.269" transform="translate(132.572 165.352)" fill="#fdd835"/><path d="M533.491,520.831a1.269,1.269,0,0,1,2.139-.909,1.269,1.269,0,1,0-2.032,1.447A1.261,1.261,0,0,1,533.491,520.831Z" transform="translate(-400.606 -353.839)" fill="#fff" opacity="0.2"/><circle cx="1.426" cy="1.426" r="1.426" transform="translate(122.905 161.709)" fill="url(#j)"/><circle cx="1.269" cy="1.269" r="1.269" transform="translate(123.062 161.866)" fill="#fdd835"/><path d="M506.821,511.03a1.269,1.269,0,0,1,2.139-.909,1.269,1.269,0,1,0-2.032,1.447A1.261,1.261,0,0,1,506.821,511.03Z" transform="translate(-383.442 -347.532)" fill="#fff" opacity="0.2"/><circle cx="1.426" cy="1.426" r="1.426" transform="translate(120.841 167.099)" fill="url(#j)"/><circle cx="1.269" cy="1.269" r="1.269" transform="translate(120.998 167.256)" fill="#fbc02d"/><path d="M501.041,526.171a1.269,1.269,0,0,1,2.139-.909,1.269,1.269,0,1,0-2.032,1.447A1.261,1.261,0,0,1,501.041,526.171Z" transform="translate(-379.723 -357.275)" fill="#fff" opacity="0.2"/><circle cx="1.426" cy="1.426" r="1.426" transform="translate(117.618 167.256)" fill="url(#a)"/><circle cx="1.269" cy="1.269" r="1.269" transform="translate(117.775 167.412)" fill="#fbc02d"/><path d="M491.991,526.611a1.269,1.269,0,0,1,2.139-.909,1.269,1.269,0,1,0-2.032,1.447A1.261,1.261,0,0,1,491.991,526.611Z" transform="translate(-373.899 -357.559)" fill="#fff" opacity="0.2"/><circle cx="1.426" cy="1.426" r="1.426" transform="translate(119.258 166.357)" fill="url(#f)"/><circle cx="1.269" cy="1.269" r="1.269" transform="translate(119.415 166.514)" fill="#fbc02d"/><path d="M496.591,524.091a1.269,1.269,0,0,1,2.139-.909,1.269,1.269,0,1,0-2.032,1.447A1.262,1.262,0,0,1,496.591,524.091Z" transform="translate(-376.859 -355.937)" fill="#fff" opacity="0.2"/><circle cx="1.426" cy="1.426" r="1.426" transform="translate(126.234 164.771)" fill="url(#a)"/><circle cx="1.269" cy="1.269" r="1.269" transform="translate(126.391 164.928)" fill="#fbc02d"/><path d="M516.161,519.641a1.269,1.269,0,0,1,2.139-.909,1.269,1.269,0,1,0-2.032,1.447A1.263,1.263,0,0,1,516.161,519.641Z" transform="translate(-389.453 -353.073)" fill="#fff" opacity="0.2"/><circle cx="1.426" cy="1.426" r="1.426" transform="translate(126.234 161.392)" fill="url(#s)"/><circle cx="1.269" cy="1.269" r="1.269" transform="translate(126.391 161.549)" fill="#fbc02d"/><path d="M516.161,510.151a1.269,1.269,0,0,1,2.139-.909,1.269,1.269,0,1,0-2.032,1.447A1.263,1.263,0,0,1,516.161,510.151Z" transform="translate(-389.453 -346.966)" fill="#fff" opacity="0.2"/><circle cx="1.426" cy="1.426" r="1.426" transform="translate(127.817 164.087)" fill="url(#s)"/><circle cx="1.269" cy="1.269" r="1.269" transform="translate(127.974 164.243)" fill="#fbc02d"/><path d="M520.611,517.711a1.269,1.269,0,0,1,2.139-.909,1.269,1.269,0,1,0-2.032,1.447A1.263,1.263,0,0,1,520.611,517.711Z" transform="translate(-392.317 -351.831)" fill="#fff" opacity="0.2"/><circle cx="1.426" cy="1.426" r="1.426" transform="translate(126.391 158.693)" fill="url(#f)"/><circle cx="1.269" cy="1.269" r="1.269" transform="translate(126.548 158.85)" fill="#fbc02d"/><path d="M516.6,502.591a1.269,1.269,0,0,1,2.139-.909,1.269,1.269,0,1,0-2.032,1.447A1.262,1.262,0,0,1,516.6,502.591Z" transform="translate(-389.736 -342.101)" fill="#fff" opacity="0.2"/><circle cx="1.426" cy="1.426" r="1.426" transform="translate(126.708 160.123)" fill="url(#s)"/><circle cx="1.269" cy="1.269" r="1.269" transform="translate(126.865 160.28)" fill="#fbc02d"/><path d="M517.491,506.6a1.269,1.269,0,0,1,2.139-.909,1.269,1.269,0,1,0-2.032,1.447,1.263,1.263,0,0,1-.107-.538Z" transform="translate(-390.309 -344.681)" fill="#fff" opacity="0.2"/><circle cx="1.426" cy="1.426" r="1.426" transform="translate(128.401 161.074)" fill="url(#j)"/><circle cx="1.269" cy="1.269" r="1.269" transform="translate(128.558 161.231)" fill="#fbc02d"/><path d="M522.241,509.261a1.269,1.269,0,0,1,2.139-.909,1.269,1.269,0,1,0-2.032,1.447A1.262,1.262,0,0,1,522.241,509.261Z" transform="translate(-393.366 -346.393)" fill="#fff" opacity="0.2"/><circle cx="1.426" cy="1.426" r="1.426" transform="translate(130.144 160.807)" fill="url(#a)"/><circle cx="1.269" cy="1.269" r="1.269" transform="translate(130.301 160.964)" fill="#fbc02d"/><path d="M527.1,508.46a1.269,1.269,0,0,1,2.139-.909,1.269,1.269,0,1,0-2.01,1.447A1.262,1.262,0,0,1,527.1,508.46Z" transform="translate(-396.486 -345.856)" fill="#fff" opacity="0.2"/><circle cx="1.426" cy="1.426" r="1.426" transform="translate(129.667 162.237)" fill="url(#s)"/><circle cx="1.269" cy="1.269" r="1.269" transform="translate(129.824 162.393)" fill="#fbc02d"/><path d="M525.8,512.531a1.269,1.269,0,0,1,2.139-.909,1.269,1.269,0,1,0-2.032,1.447A1.262,1.262,0,0,1,525.8,512.531Z" transform="translate(-395.657 -348.497)" fill="#fff" opacity="0.2"/><circle cx="1.426" cy="1.426" r="1.426" transform="translate(123.696 160.387)" fill="url(#d)"/><circle cx="1.269" cy="1.269" r="1.269" transform="translate(123.853 160.543)" fill="#fbc02d"/><path d="M509.041,507.341a1.269,1.269,0,0,1,2.139-.909,1.269,1.269,0,1,0-2.032,1.447A1.262,1.262,0,0,1,509.041,507.341Z" transform="translate(-384.871 -345.158)" fill="#fff" opacity="0.2"/><circle cx="1.426" cy="1.426" r="1.426" transform="translate(119.575 164.721)" fill="url(#s)"/><circle cx="1.269" cy="1.269" r="1.269" transform="translate(119.732 164.878)" fill="#fbc02d"/><path d="M497.491,519.491a1.269,1.269,0,0,1,2.139-.909,1.269,1.269,0,1,0-2.032,1.447A1.262,1.262,0,0,1,497.491,519.491Z" transform="translate(-377.438 -352.976)" fill="#fff" opacity="0.2"/><circle cx="1.426" cy="1.426" r="1.426" transform="translate(122.056 162.34)" fill="url(#f)"/><circle cx="1.269" cy="1.269" r="1.269" transform="translate(122.213 162.497)" fill="#fbc02d"/><path d="M504.491,512.82a1.269,1.269,0,0,1,2.139-.909,1.269,1.269,0,1,0-2.032,1.447,1.262,1.262,0,0,1-.107-.538Z" transform="translate(-381.943 -348.684)" fill="#fff" opacity="0.2"/><circle cx="1.426" cy="1.426" r="1.426" transform="translate(116.984 166.411)" fill="url(#d)"/><circle cx="1.269" cy="1.269" r="1.269" transform="translate(117.141 166.568)" fill="#fbc02d"/><path d="M490.211,524.241a1.269,1.269,0,0,1,2.139-.909,1.269,1.269,0,1,0-2.032,1.447A1.263,1.263,0,0,1,490.211,524.241Z" transform="translate(-372.753 -356.033)" fill="#fff" opacity="0.2"/><circle cx="1.426" cy="1.426" r="1.426" transform="translate(130.672 165.302)" fill="url(#s)"/><circle cx="1.269" cy="1.269" r="1.269" transform="translate(130.829 165.459)" fill="#fbc02d"/><path d="M528.611,521.121a1.269,1.269,0,0,1,2.139-.909,1.269,1.269,0,1,0-2.032,1.447A1.262,1.262,0,0,1,528.611,521.121Z" transform="translate(-397.465 -354.025)" fill="#fff" opacity="0.2"/><circle cx="1.426" cy="1.426" r="1.426" transform="translate(124.277 157.267)" fill="url(#d)"/><circle cx="1.269" cy="1.269" r="1.269" transform="translate(124.434 157.424)" fill="#fbc02d"/><path d="M510.671,498.591a1.269,1.269,0,0,1,2.139-.909,1.269,1.269,0,1,0-2.032,1.447,1.263,1.263,0,0,1-.107-.538Z" transform="translate(-385.92 -339.526)" fill="#fff" opacity="0.2"/><circle cx="1.426" cy="1.426" r="1.426" transform="translate(121.689 160.543)" fill="url(#f)"/><circle cx="1.269" cy="1.269" r="1.269" transform="translate(121.846 160.7)" fill="#fbc02d"/><path d="M503.411,507.781a1.269,1.269,0,0,1,2.139-.909,1.269,1.269,0,1,0-2.032,1.447A1.263,1.263,0,0,1,503.411,507.781Z" transform="translate(-381.248 -345.441)" fill="#fff" opacity="0.2"/><circle cx="1.426" cy="1.426" r="1.426" transform="translate(119.625 162.974)" fill="url(#f)"/><circle cx="1.269" cy="1.269" r="1.269" transform="translate(119.782 163.131)" fill="#fbc02d"/><path d="M497.631,514.6a1.269,1.269,0,0,1,2.139-.909,1.269,1.269,0,1,0-2.032,1.447A1.262,1.262,0,0,1,497.631,514.6Z" transform="translate(-377.528 -349.83)" fill="#fff" opacity="0.2"/><circle cx="1.426" cy="1.426" r="1.426" transform="translate(121.108 165.669)" fill="url(#f)"/><circle cx="1.269" cy="1.269" r="1.269" transform="translate(121.265 165.826)" fill="#fbc02d"/><path d="M501.781,522.161a1.269,1.269,0,0,1,2.139-.909,1.269,1.269,0,1,0-2.032,1.447,1.262,1.262,0,0,1-.107-.538Z" transform="translate(-380.199 -354.695)" fill="#fff" opacity="0.2"/><circle cx="1.426" cy="1.426" r="1.426" transform="translate(123.115 163.873)" fill="url(#f)"/><circle cx="1.269" cy="1.269" r="1.269" transform="translate(123.272 164.03)" fill="#fbc02d"/><path d="M507.411,517.12a1.269,1.269,0,0,1,2.139-.909,1.269,1.269,0,1,0-2.032,1.447A1.262,1.262,0,0,1,507.411,517.12Z" transform="translate(-383.822 -351.451)" fill="#fff" opacity="0.2"/><circle cx="1.426" cy="1.426" r="1.426" transform="translate(124.17 165.669)" fill="url(#f)"/><circle cx="1.269" cy="1.269" r="1.269" transform="translate(124.327 165.826)" fill="#fbc02d"/><path d="M510.381,522.161a1.269,1.269,0,0,1,2.139-.909,1.269,1.269,0,1,0-2.032,1.447A1.263,1.263,0,0,1,510.381,522.161Z" transform="translate(-385.733 -354.695)" fill="#fff" opacity="0.2"/><circle cx="1.426" cy="1.426" r="1.426" transform="translate(135.11 167.256)" fill="url(#a)"/><circle cx="1.269" cy="1.269" r="1.269" transform="translate(135.267 167.412)" fill="#fbc02d"/><path d="M541.071,526.611a1.269,1.269,0,0,1,2.139-.909,1.269,1.269,0,1,0-2.032,1.447A1.262,1.262,0,0,1,541.071,526.611Z" transform="translate(-405.484 -357.558)" fill="#fff" opacity="0.2"/><circle cx="1.426" cy="1.426" r="1.426" transform="translate(133.103 166.938)" fill="url(#f)"/><circle cx="1.269" cy="1.269" r="1.269" transform="translate(133.26 167.095)" fill="#fbc02d"/><path d="M535.431,525.721a1.269,1.269,0,0,1,2.139-.909,1.269,1.269,0,1,0-2.032,1.447A1.261,1.261,0,0,1,535.431,525.721Z" transform="translate(-401.854 -356.986)" fill="#fff" opacity="0.2"/><circle cx="1.426" cy="1.426" r="1.426" transform="translate(129.246 167.099)" fill="url(#j)"/><circle cx="1.269" cy="1.269" r="1.269" transform="translate(129.403 167.256)" fill="#fbc02d"/><circle cx="1.269" cy="1.269" r="1.269" transform="translate(129.667 165.776)" fill="#fbc02d"/><path d="M524.611,526.171a1.269,1.269,0,0,1,2.139-.909,1.269,1.269,0,1,0-2.032,1.447A1.262,1.262,0,0,1,524.611,526.171Z" transform="translate(-394.891 -357.275)" fill="#fff" opacity="0.2"/><circle cx="1.426" cy="1.426" r="1.426" transform="translate(124.965 167.256)" fill="url(#a)"/><circle cx="1.269" cy="1.269" r="1.269" transform="translate(125.122 167.412)" fill="#fbc02d"/><path d="M512.6,526.611a1.269,1.269,0,0,1,2.139-.909,1.269,1.269,0,1,0-2.032,1.447A1.262,1.262,0,0,1,512.6,526.611Z" transform="translate(-387.162 -357.558)" fill="#fff" opacity="0.2"/><circle cx="1.426" cy="1.426" r="1.426" transform="translate(124.541 161.549)" fill="url(#d)"/><circle cx="1.269" cy="1.269" r="1.269" transform="translate(124.698 161.705)" fill="#fdd835"/><path d="M511.411,510.6a1.269,1.269,0,0,1,2.139-.909,1.269,1.269,0,1,0-2.032,1.447,1.264,1.264,0,0,1-.107-.538Z" transform="translate(-386.396 -347.255)" fill="#fff" opacity="0.2"/><circle cx="1.426" cy="1.426" r="1.426" transform="translate(125.97 163.345)" fill="url(#d)"/><circle cx="1.269" cy="1.269" r="1.269" transform="translate(126.127 163.502)" fill="#fdd835"/><path d="M515.421,515.641a1.269,1.269,0,0,1,2.139-.909,1.269,1.269,0,1,0-2.032,1.447A1.261,1.261,0,0,1,515.421,515.641Z" transform="translate(-388.977 -350.499)" fill="#fff" opacity="0.2"/><circle cx="1.426" cy="1.426" r="1.426" transform="translate(123.589 158.961)" fill="url(#s)"/><circle cx="1.269" cy="1.269" r="1.269" transform="translate(123.746 159.118)" fill="#fdd835"/><path d="M508.751,503.331a1.269,1.269,0,0,1,2.139-.909,1.269,1.269,0,1,0-2.032,1.447A1.262,1.262,0,0,1,508.751,503.331Z" transform="translate(-384.684 -342.577)" fill="#fff" opacity="0.2"/><circle cx="1.426" cy="1.426" r="1.426" transform="translate(125.175 159.118)" fill="url(#d)"/><circle cx="1.269" cy="1.269" r="1.269" transform="translate(125.332 159.274)" fill="#fdd835"/><path d="M513.191,503.78a1.269,1.269,0,0,1,2.139-.909,1.269,1.269,0,1,0-2.032,1.447A1.262,1.262,0,0,1,513.191,503.78Z" transform="translate(-387.542 -342.866)" fill="#fff" opacity="0.2"/><circle cx="1.426" cy="1.426" r="1.426" transform="translate(127.817 159.859)" fill="url(#j)"/><circle cx="1.269" cy="1.269" r="1.269" transform="translate(127.974 160.016)" fill="#fdd835"/><path d="M520.611,505.85a1.269,1.269,0,0,1,2.139-.909,1.269,1.269,0,1,0-2.032,1.447A1.264,1.264,0,0,1,520.611,505.85Z" transform="translate(-392.317 -344.199)" fill="#fff" opacity="0.2"/><circle cx="1.426" cy="1.426" r="1.426" transform="translate(120.684 162.183)" fill="url(#d)"/><circle cx="1.269" cy="1.269" r="1.269" transform="translate(120.841 162.34)" fill="#fdd835"/><path d="M500.591,512.38a1.269,1.269,0,0,1,2.139-.909,1.269,1.269,0,1,0-2.032,1.447A1.262,1.262,0,0,1,500.591,512.38Z" transform="translate(-379.433 -348.401)" fill="#fff" opacity="0.2"/><circle cx="1.426" cy="1.426" r="1.426" transform="translate(121.689 164.033)" fill="url(#d)"/><circle cx="1.269" cy="1.269" r="1.269" transform="translate(121.846 164.19)" fill="#fdd835"/><path d="M503.411,517.571a1.269,1.269,0,0,1,2.139-.909,1.269,1.269,0,1,0-2.032,1.447,1.263,1.263,0,0,1-.107-.538Z" transform="translate(-381.248 -351.741)" fill="#fff" opacity="0.2"/><circle cx="1.426" cy="1.426" r="1.426" transform="translate(122.374 166.2)" fill="url(#s)"/><circle cx="1.269" cy="1.269" r="1.269" transform="translate(122.53 166.357)" fill="#fdd835"/><path d="M505.341,523.651a1.269,1.269,0,0,1,2.139-.909,1.269,1.269,0,1,0-2.032,1.447,1.263,1.263,0,0,1-.107-.538Z" transform="translate(-382.49 -355.654)" fill="#fff" opacity="0.2"/><circle cx="1.426" cy="1.426" r="1.426" transform="translate(126.391 165.512)" fill="url(#d)"/><circle cx="1.269" cy="1.269" r="1.269" transform="translate(126.548 165.669)" fill="#fdd835"/><path d="M516.6,521.721a1.269,1.269,0,0,1,2.139-.909,1.269,1.269,0,1,0-2.032,1.447A1.264,1.264,0,0,1,516.6,521.721Z" transform="translate(-389.736 -354.412)" fill="#fff" opacity="0.2"/><circle cx="1.426" cy="1.426" r="1.426" transform="translate(130.515 164.243)" fill="url(#d)"/><circle cx="1.269" cy="1.269" r="1.269" transform="translate(130.672 164.4)" fill="#fdd835"/><path d="M528.171,518.161a1.269,1.269,0,0,1,2.139-.909,1.269,1.269,0,1,0-2.032,1.447A1.263,1.263,0,0,1,528.171,518.161Z" transform="translate(-397.182 -352.121)" fill="#fff" opacity="0.2"/><circle cx="1.426" cy="1.426" r="1.426" transform="translate(131.834 163.135)" fill="url(#d)"/><circle cx="1.269" cy="1.269" r="1.269" transform="translate(131.991 163.292)" fill="#fdd835"/><circle cx="1.269" cy="1.269" r="1.269" transform="translate(128.768 163.185)" fill="#fdd835"/><path d="M531.871,515.031a1.269,1.269,0,0,1,2.139-.909,1.269,1.269,0,1,0-2.032,1.447A1.261,1.261,0,0,1,531.871,515.031Z" transform="translate(-399.563 -350.106)" fill="#fff" opacity="0.2"/><circle cx="1.426" cy="1.426" r="1.426" transform="translate(133.894 165.669)" fill="url(#f)"/><circle cx="1.269" cy="1.269" r="1.269" transform="translate(134.051 165.826)" fill="#fdd835"/><path d="M537.661,522.161a1.269,1.269,0,0,1,2.139-.909,1.269,1.269,0,1,0-2.032,1.447A1.262,1.262,0,0,1,537.661,522.161Z" transform="translate(-403.289 -354.695)" fill="#fff" opacity="0.2"/><circle cx="1.426" cy="1.426" r="1.426" transform="translate(127.236 167.416)" fill="url(#s)"/><circle cx="1.269" cy="1.269" r="1.269" transform="translate(127.393 167.573)" fill="#fdd835"/><path d="M518.981,527.031a1.269,1.269,0,0,1,2.139-.909,1.269,1.269,0,1,0-2.032,1.447A1.262,1.262,0,0,1,518.981,527.031Z" transform="translate(-391.268 -357.829)" fill="#fff" opacity="0.2"/><circle cx="1.426" cy="1.426" r="1.426" transform="translate(119.893 166.781)" fill="url(#d)"/><circle cx="1.269" cy="1.269" r="1.269" transform="translate(120.049 166.938)" fill="#fdd835"/><path d="M498.371,525.281a1.269,1.269,0,0,1,2.139-.909,1.269,1.269,0,1,0-2.032,1.447,1.261,1.261,0,0,1-.107-.538Z" transform="translate(-378.005 -356.703)" fill="#fff" opacity="0.2"/><circle cx="1.426" cy="1.426" r="1.426" transform="translate(117.829 164.931)" fill="url(#d)"/><circle cx="1.269" cy="1.269" r="1.269" transform="translate(117.985 165.088)" fill="#fdd835"/><path d="M492.591,520.091a1.269,1.269,0,0,1,2.139-.909,1.269,1.269,0,1,0-2.032,1.447,1.264,1.264,0,0,1-.107-.538Z" transform="translate(-374.285 -353.363)" fill="#fff" opacity="0.2"/><circle cx="1.426" cy="1.426" r="1.426" transform="translate(120.524 164.033)" fill="url(#d)"/><circle cx="1.269" cy="1.269" r="1.269" transform="translate(120.68 164.19)" fill="#fdd835"/><path d="M500.11,517.477a1.269,1.269,0,0,1,2.139-.909A1.269,1.269,0,1,0,500.231,518,1.262,1.262,0,0,1,500.11,517.477Z" transform="translate(-379.109 -351.647)" fill="#fff" opacity="0.2"/><circle cx="1.426" cy="1.426" r="1.426" transform="translate(119.044 161.866)" fill="url(#d)"/><circle cx="1.269" cy="1.269" r="1.269" transform="translate(119.201 162.023)" fill="#fdd835"/><path d="M496,511.49a1.269,1.269,0,0,1,2.139-.909,1.269,1.269,0,1,0-2.032,1.447A1.263,1.263,0,0,1,496,511.49Z" transform="translate(-376.479 -347.828)" fill="#fff" opacity="0.2"/><circle cx="1.426" cy="1.426" r="1.426" transform="translate(120.313 159.859)" fill="url(#j)"/><circle cx="1.269" cy="1.269" r="1.269" transform="translate(120.47 160.016)" fill="#fdd835"/><path d="M499.551,505.851a1.269,1.269,0,0,1,2.139-.909,1.269,1.269,0,1,0-2.032,1.447A1.264,1.264,0,0,1,499.551,505.851Z" transform="translate(-378.764 -344.199)" fill="#fff" opacity="0.2"/><circle cx="1.426" cy="1.426" r="1.426" transform="translate(131.36 167.256)" fill="url(#a)"/><circle cx="1.269" cy="1.269" r="1.269" transform="translate(131.517 167.412)" fill="#fdd835"/><path d="M530.541,526.611a1.269,1.269,0,0,1,2.139-.909,1.269,1.269,0,1,0-2.032,1.447A1.262,1.262,0,0,1,530.541,526.611Z" transform="translate(-398.707 -357.558)" fill="#fff" opacity="0.2"/><path d="M342.324,498.113H326.539l-4-23.573h23.837Z" transform="translate(-207.567 -305.859)" fill="url(#bh)"/><path d="M342.958,498.465H327.737L323.88,475.58h22.988Z" transform="translate(-208.429 -306.528)" fill="#fff"/><path d="M323.88,475.58h3.91l3.7,22.885h-3.807Z" transform="translate(-208.429 -306.528)" fill="#0771b2"/><path d="M374.347,475.58h-3.964l-3.8,22.885h3.857Z" transform="translate(-235.908 -306.528)" fill="#0771b2"/><rect width="3.803" height="22.885" transform="translate(124.965 169.052)" fill="#0771b2"/><circle cx="1.426" cy="1.426" r="1.426" transform="translate(118.306 163.345)" fill="url(#d)"/><circle cx="1.269" cy="1.269" r="1.269" transform="translate(118.463 163.502)" fill="#fbc02d"/><path d="M493.921,515.641a1.269,1.269,0,0,1,2.139-.909,1.269,1.269,0,1,0-2.032,1.447A1.263,1.263,0,0,1,493.921,515.641Z" transform="translate(-375.141 -350.499)" fill="#fff" opacity="0.2"/><circle cx="1.426" cy="1.426" r="1.426" transform="translate(121.899 159.328)" fill="url(#f)"/><circle cx="1.269" cy="1.269" r="1.269" transform="translate(122.056 159.485)" fill="#fbc02d"/><path d="M504,504.371a1.269,1.269,0,0,1,2.139-.909,1.269,1.269,0,1,0-2.032,1.447A1.261,1.261,0,0,1,504,504.371Z" transform="translate(-381.628 -343.246)" fill="#fff" opacity="0.2"/><circle cx="1.426" cy="1.426" r="1.426" transform="translate(116.877 165.512)" fill="url(#d)"/><circle cx="1.269" cy="1.269" r="1.269" transform="translate(117.034 165.669)" fill="#fbc02d"/><path d="M489.921,521.721a1.269,1.269,0,0,1,2.139-.909,1.269,1.269,0,1,0-2.032,1.447A1.262,1.262,0,0,1,489.921,521.721Z" transform="translate(-372.567 -354.412)" fill="#fff" opacity="0.2"/><circle cx="1.426" cy="1.426" r="1.426" transform="translate(115.169 155.82)" fill="url(#s)"/><circle cx="1.269" cy="1.269" r="1.269" transform="translate(115.326 155.977)" fill="#fbc02d"/><path d="M485.09,494.45a1.269,1.269,0,0,1,2.139-.909,1.269,1.269,0,1,0-2.007,1.447,1.262,1.262,0,0,1-.132-.538Z" transform="translate(-369.447 -336.837)" fill="#fff" opacity="0.2"/><circle cx="1.426" cy="1.426" r="1.426" transform="translate(121.172 147.643)" fill="url(#s)"/><circle cx="1.269" cy="1.269" r="1.269" transform="translate(121.329 147.8)" fill="#fbc02d"/><path d="M501.961,471.581a1.269,1.269,0,0,1,2.139-.909,1.269,1.269,0,1,0-2.032,1.447A1.263,1.263,0,0,1,501.961,471.581Z" transform="translate(-380.315 -322.144)" fill="#fff" opacity="0.2"/><circle cx="1.426" cy="1.426" r="1.426" transform="translate(126.348 141.43)" fill="url(#f)"/><circle cx="1.269" cy="1.269" r="1.269" transform="translate(126.505 141.587)" fill="#fdd835"/><path d="M516.491,454.161a1.269,1.269,0,0,1,2.139-.909A1.269,1.269,0,1,0,516.6,454.7,1.264,1.264,0,0,1,516.491,454.161Z" transform="translate(-389.665 -310.934)" fill="#fff" opacity="0.2"/><circle cx="1.426" cy="1.426" r="1.426" transform="translate(136.39 154.783)" fill="url(#f)"/><circle cx="1.269" cy="1.269" r="1.269" transform="translate(136.546 154.94)" fill="#fdd835"/><path d="M544.651,491.62a1.269,1.269,0,0,1,2.139-.909,1.269,1.269,0,1,0-2.032,1.447A1.263,1.263,0,0,1,544.651,491.62Z" transform="translate(-407.787 -335.041)" fill="#fff" opacity="0.2"/><circle cx="1.426" cy="1.426" r="1.426" transform="translate(144.36 164.928)" fill="url(#d)"/><circle cx="1.269" cy="1.269" r="1.269" transform="translate(144.517 165.085)" fill="#fdd835"/><path d="M567.011,520.031a1.269,1.269,0,0,1,2.139-.909,1.269,1.269,0,1,0-2.032,1.447A1.261,1.261,0,0,1,567.011,520.031Z" transform="translate(-422.177 -353.324)" fill="#fff" opacity="0.2"/><circle cx="1.426" cy="1.426" r="1.426" transform="translate(114.756 189.666)" fill="url(#d)"/><circle cx="1.269" cy="1.269" r="1.269" transform="translate(114.913 189.823)" fill="#fbc02d"/><path d="M483.961,589.481a1.269,1.269,0,0,1,2.139-.909,1.269,1.269,0,1,0-2.032,1.447A1.262,1.262,0,0,1,483.961,589.481Z" transform="translate(-368.731 -398.018)" fill="#fff" opacity="0.2"/><circle cx="1.426" cy="1.426" r="1.426" transform="translate(112.788 187.078)" fill="url(#d)"/><circle cx="1.269" cy="1.269" r="1.269" transform="translate(112.945 187.235)" fill="#fdd835"/><path d="M478.491,582.221a1.269,1.269,0,0,1,2.139-.909,1.269,1.269,0,1,0-2.032,1.447A1.261,1.261,0,0,1,478.491,582.221Z" transform="translate(-365.211 -393.346)" fill="#fff" opacity="0.2"/><circle cx="1.426" cy="1.426" r="1.426" transform="translate(111.544 173.105)" fill="url(#d)"/><circle cx="1.269" cy="1.269" r="1.269" transform="translate(111.701 173.262)" fill="#fbc02d"/><path d="M474.961,543.031a1.269,1.269,0,0,1,2.139-.909,1.269,1.269,0,1,0-2.032,1.447A1.262,1.262,0,0,1,474.961,543.031Z" transform="translate(-362.939 -368.125)" fill="#fff" opacity="0.2"/><circle cx="1.426" cy="1.426" r="1.426" transform="translate(138.457 188.529)" fill="url(#s)"/><circle cx="1.269" cy="1.269" r="1.269" transform="translate(138.614 188.686)" fill="#fbc02d"/><path d="M550.491,586.281a1.269,1.269,0,0,1,2.139-.909,1.269,1.269,0,1,0-2.032,1.447A1.26,1.26,0,0,1,550.491,586.281Z" transform="translate(-411.546 -395.958)" fill="#fff" opacity="0.2"/><circle cx="1.426" cy="1.426" r="1.426" transform="translate(141.045 186.872)" fill="url(#d)"/><circle cx="1.269" cy="1.269" r="1.269" transform="translate(141.202 187.029)" fill="#fbc02d"/><path d="M557.711,581.641a1.269,1.269,0,0,1,2.139-.909,1.269,1.269,0,1,0-2.032,1.447A1.263,1.263,0,0,1,557.711,581.641Z" transform="translate(-416.192 -392.972)" fill="#fff" opacity="0.2"/><circle cx="1.426" cy="1.426" r="1.426" transform="translate(141.355 188.839)" fill="url(#j)"/><circle cx="1.269" cy="1.269" r="1.269" transform="translate(141.512 188.996)" fill="#fdd835"/><path d="M558.591,587.161a1.269,1.269,0,0,1,2.139-.909A1.269,1.269,0,1,0,558.7,587.7,1.262,1.262,0,0,1,558.591,587.161Z" transform="translate(-416.758 -396.525)" fill="#fff" opacity="0.2"/><circle cx="1.426" cy="1.426" r="1.426" transform="translate(135.973 188.839)" fill="url(#j)"/><circle cx="1.269" cy="1.269" r="1.269" transform="translate(136.129 188.996)" fill="#fdd835"/><path d="M543.491,587.161a1.269,1.269,0,0,1,2.139-.909A1.269,1.269,0,1,0,543.6,587.7,1.263,1.263,0,0,1,543.491,587.161Z" transform="translate(-407.041 -396.525)" fill="#fff" opacity="0.2"/><text transform="translate(236.998 166.166)" font-size="12" font-family="Lato-Light, Lato" font-weight="300" opacity="0.7"><tspan x="0" y="0">9</tspan></text><rect width="6.317" height="8.573" transform="translate(226.564 254.322)" fill="#fdb797"/><rect width="6.317" height="8.573" transform="translate(248.223 254.322)" fill="#fdb797"/><rect width="41.51" height="14.889" transform="translate(219.798 183.931)" fill="#4d8af0"/><g transform="translate(219.798 183.931)" opacity="0.05"><rect width="41.51" height="14.889"/></g><path d="M777.82,574.814s15.488,3.593,20.739,3.593,20.757-3.611,20.757-3.611V572.54h-41.5Z" transform="translate(-558.022 -388.174)" opacity="0.1"/><path d="M819.3,495.38s-15.488,3.611-20.771,3.611-20.757-3.611-20.757-3.611V470.553a20.757,20.757,0,0,1,20.757-20.743h0A20.757,20.757,0,0,1,819.3,470.553Z" transform="translate(-557.99 -309.193)" fill="#3ad29f"/><path d="M660.91,366.69h9.927v12.323a3.921,3.921,0,0,1-3.921,3.921h-2.085a3.921,3.921,0,0,1-3.921-3.921Z" transform="translate(-425.32 -236.453)" fill="#fdb797"/><path d="M776.229,651.9l-11.008,2.057a1.843,1.843,0,0,1-2.139-1.472l-11.482-61.4a6.081,6.081,0,0,1,4.862-7.1l6.848-1.28a1.843,1.843,0,0,1,2.139,1.472l12.241,65.589A1.843,1.843,0,0,1,776.229,651.9Z" transform="translate(-541.081 -394.698)" fill="#4d8af0"/><path d="M848.5,651.916l11.015,2.057a1.843,1.843,0,0,0,2.139-1.472l11.574-62a5.475,5.475,0,0,0-4.377-6.384l-7.447-1.39a1.843,1.843,0,0,0-2.139,1.472L847.02,649.788A1.843,1.843,0,0,0,848.5,651.916Z" transform="translate(-602.537 -394.71)" fill="#4d8af0"/><path d="M822.12,429.054a20.766,20.766,0,0,0,9.927,0V422H822.12Z" transform="translate(-586.53 -291.296)" opacity="0.1"/><circle cx="21.659" cy="21.659" r="21.659" transform="translate(218.893 90.531)" fill="#ffcf51"/><circle cx="20.757" cy="20.757" r="20.757" transform="translate(219.795 96.398)" fill="#fdb797"/><ellipse cx="1.804" cy="3.383" rx="1.804" ry="3.383" transform="translate(259.28 113.772)" fill="#fdb797"/><ellipse cx="1.804" cy="3.383" rx="1.804" ry="3.383" transform="translate(218.219 113.772)" fill="#fdb797"/><path d="M630.592,728.71h2.852a5.126,5.126,0,0,1,5.126,5.126v2.107h-13.1v-2.1a5.122,5.122,0,0,1,5.122-5.137Z" transform="translate(-402.513 -469.427)" fill="#333"/><path d="M692.612,728.71h2.852a5.126,5.126,0,0,1,5.126,5.126v2.107h-13.1v-2.1a5.122,5.122,0,0,1,5.122-5.137Z" transform="translate(-442.426 -469.427)" fill="#333"/><path d="M782.764,330.363s-.9,5.867,4.06,2.706,22.1-1.8,27.522,2.706,7.218.9,8.12,0S812.7,319.8,806.676,318.628C790.435,315.473,782.764,330.363,782.764,330.363Z" transform="translate(-561.162 -224.49)" opacity="0.1"/><path d="M782.764,329.1s-.9,5.867,4.06,2.706,22.1-1.8,27.522,2.706,7.218.9,8.12,0-9.767-15.973-15.791-17.146C790.435,314.208,782.764,329.1,782.764,329.1Z" transform="translate(-561.162 -223.677)" fill="#ffcf51"/><path d="M782.559,299.472c1.358-1.679,1.069-4.417,2.734-5.771,2.235-1.8,5.9.389,8.334-1.141,1.33-.838,1.818-2.5,2.763-3.761a6.18,6.18,0,0,1,8.395-1.094,15.677,15.677,0,0,0,1.454,1.173c1.889,1.151,4.277.228,6.416-.328a18.084,18.084,0,0,1,4.171-.577,3.679,3.679,0,0,1,1.918.356,3.2,3.2,0,0,1,1.283,2.944c-.036,1.123-.357,2.235-.307,3.361a1.208,1.208,0,0,0,.328.9,1.987,1.987,0,0,0,.667.278,3.457,3.457,0,0,1,1.875,2.117,8.79,8.79,0,0,1-.784,7.967,6.373,6.373,0,0,0-.809,1.39,6.03,6.03,0,0,0-.192,1.625c-.1,1.921-.92,4-2.666,4.8-2.249,1.041-4.784-.4-7-1.5-5.04-2.5-10.722-3.372-16.322-3.96a64.9,64.9,0,0,0-7.561-.449c-1.879.021-4.42.827-6.21.064a3.208,3.208,0,0,1-1.814-3.447C779.415,301.917,781.172,301.19,782.559,299.472Z" transform="translate(-558.918 -204.118)" fill="#ffcf51"/><path d="M748.481,412.4l-10.954-3.565,22.1-15.328-6.773-9.475a212.121,212.121,0,0,0-32.035,22.1c2.256,13.546,20.318,22.1,20.318,22.1Z" transform="translate(-521.34 -266.861)" fill="#3ad29f"/><path d="M854.347,412.4l10.954-3.565L843.2,393.5l6.773-9.475a212.126,212.126,0,0,1,32.035,22.1c-2.256,13.546-20.318,22.1-20.318,22.1Z" transform="translate(-600.096 -266.861)" fill="#3ad29f"/><path d="M812,376.649s11.279-8.12,13.988-3.158-7.215,12.633-7.215,12.633Z" transform="translate(-580.018 -259.045)" opacity="0.1"/><path d="M810.73,375.4s11.279-8.12,13.988-3.158-7.218,12.633-7.218,12.633Z" transform="translate(-579.201 -258.241)" fill="#fdb797"/><path d="M810.73,375.4s11.279-8.12,13.988-3.158-7.218,12.633-7.218,12.633Z" transform="translate(-579.201 -258.241)" opacity="0.02"/><path d="M833.992,376.649s-11.278-8.12-13.988-3.158,7.218,12.633,7.218,12.633Z" transform="translate(-584.868 -259.045)" opacity="0.1"/><path d="M835.262,375.4s-11.278-8.12-13.988-3.158,7.218,12.633,7.218,12.633Z" transform="translate(-585.685 -258.241)" fill="#fdb797"/><path d="M835.262,375.4s-11.278-8.12-13.988-3.158,7.218,12.633,7.218,12.633Z" transform="translate(-585.685 -258.241)" opacity="0.02"/><g transform="translate(206.338 148.427)"><path d="M751.153,473.859l-.895-2.139-9.485,3.9a1.173,1.173,0,0,0-.713,1.069v10.248l2.741.317v-9.774Z" transform="translate(-740.06 -471.72)" fill="url(#bx)"/></g><path d="M751.428,474.678l-.681-1.618-8.876,3.647a1.094,1.094,0,0,0-.681,1.012V487.3h1.754v-9.14Z" transform="translate(-534.449 -324.155)" fill="#f2f2f2"/><g transform="translate(206.741 148.905)" clip-path="url(#by)"><rect width="1.911" height="6.056" transform="translate(7.183 -1.764)" fill="#0771b2"/><rect width="1.911" height="6.056" transform="translate(4.156 -0.488)" fill="#0771b2"/><path d="M585.284,421.283l-1.355.4-.56-6.452h1.914Z" transform="translate(-582.162 -416.595)" fill="#0771b2"/><rect width="1.911" height="6.056" transform="translate(-1.822 7.318) rotate(-90)" fill="#0771b2"/><rect width="1.911" height="6.056" transform="translate(-1.818 9.949) rotate(-90)" fill="#0771b2"/><rect width="1.911" height="6.056" transform="translate(-1.818 12.576) rotate(-90)" fill="#0771b2"/></g><path d="M574.92,454.34H553.65v3.354H555.1l2.959,27.159h12.711l2.627-27.316h1.522Z" transform="translate(-356.295 -292.859)" fill="url(#bz)"/><path d="M573.809,486.6H562.1l-2.87-28.681h17.132Z" transform="translate(-359.885 -295.163)" fill="#0771b2"/><rect width="19.598" height="1.911" transform="translate(198.15 162.279)" fill="#0771b2"/><circle cx="4.859" cy="4.859" r="4.859" transform="translate(203.091 170.646)" fill="url(#ca)"/><circle cx="4.463" cy="4.463" r="4.463" transform="translate(203.487 171.041)" fill="#fff"/><path d="M14.807,0H38.569V38.541H0V14.793A14.793,14.793,0,0,1,14.807,0Z" transform="translate(240.85 77.349) rotate(-151.51)" fill="#0771b2"/><path d="M0,0H9.2V7.65a3.743,3.743,0,0,1-3.743,3.743H3.743A3.743,3.743,0,0,1,0,7.65Z" transform="translate(256.105 49.232) rotate(-151.51)" fill="#0771b2"/><path d="M0,0H9.2V7.646a3.743,3.743,0,0,1-3.743,3.743H3.743A3.743,3.743,0,0,1,0,7.646Z" transform="translate(250.241 42.566) rotate(-151.51)" fill="#0771b2"/><path d="M0,0H9.2V8.006a3.386,3.386,0,0,1-3.386,3.386H3.386A3.386,3.386,0,0,1,0,8.006Z" transform="translate(243.625 35.485) rotate(-151.51)" fill="#0771b2"/><path d="M0,0H11.831V26.05a3.743,3.743,0,0,1-3.743,3.743H5.408A5.408,5.408,0,0,1,0,24.386Z" transform="translate(235.534 31.092) rotate(-151.51)" fill="#0771b2"/><rect width="5.258" height="21.908" rx="2.629" transform="translate(247.569 60.806) rotate(-151.51)" fill="#0771b2" stroke="#fff" stroke-miterlimit="10" stroke-width="1"/><rect width="5.258" height="21.908" rx="2.629" transform="translate(241.925 53.755) rotate(-151.51)" fill="#0771b2" stroke="#fff" stroke-miterlimit="10" stroke-width="1"/><rect width="5.258" height="21.908" rx="2.629" transform="translate(235.724 45.897) rotate(-151.51)" fill="#0771b2" stroke="#fff" stroke-miterlimit="10" stroke-width="1"/><rect width="5.258" height="21.908" rx="2.629" transform="translate(233.586 27.787) rotate(-151.51)" fill="#0771b2" stroke="#fff" stroke-miterlimit="10" stroke-width="1"/><path d="M782.657,177.189s6.808-4.278-.168-12.551l13.97-7.372s2.959-6.37-6.306-4.916-8.733,3.237-8.733,3.237" transform="translate(-560.335 -117.627)" fill="#0771b2" stroke="#fff" stroke-miterlimit="10" stroke-width="1"/></g></svg>