<svg xmlns="http://www.w3.org/2000/svg" xmlns:xlink="http://www.w3.org/1999/xlink" width="312.8" height="279.4"><defs><linearGradient id="a" x1=".5" x2=".5" y1="1" gradientUnits="objectBoundingBox"><stop offset="0" stop-color="gray" stop-opacity=".3"/><stop offset=".5" stop-color="gray" stop-opacity=".1"/><stop offset="1" stop-color="gray" stop-opacity=".1"/></linearGradient><linearGradient id="b" x1=".5" x2=".5" y1="1" xlink:href="#a"/><linearGradient id="c" x1=".5" x2=".5" y1="1" xlink:href="#a"/><linearGradient id="d" x1=".5" x2=".5" y1="1" xlink:href="#a"/><linearGradient id="e" x1=".5" x2=".5" y1="1" xlink:href="#a"/><linearGradient id="f" x1=".5" x2=".5" y1="1" xlink:href="#a"/><linearGradient id="g" x1=".5" x2=".5" y1="1" xlink:href="#a"/><clipPath id="h"><path fill="#f2f2f2" d="M751.4 474.7l-.7-1.6-8.8 3.6a1 1 0 0 0-.7 1v9.6h1.7v-9.1z" transform="translate(-741.2 -473)"/></clipPath><linearGradient id="i" x1=".5" x2=".5" y1="1" xlink:href="#a"/><linearGradient id="j" x1=".5" x2=".5" y1="1" gradientUnits="objectBoundingBox"><stop offset="0" stop-opacity=".1"/><stop offset=".6" stop-opacity=".1"/><stop offset="1" stop-opacity="0"/></linearGradient></defs><g transform="translate(0 .7)"><path fill="#535461" d="M27.7 124.4h257.4a9.3 9.3 0 0 1 9.3 9.3V226h-276v-92.3a9.3 9.3 0 0 1 9.3-9.3z"/><path d="M7 175.2h22.8a4.4 4.4 0 0 1 4.4 4.4V226H5.5a2.9 2.9 0 0 1-2.9-2.8v-43.6a4.4 4.4 0 0 1 4.4-4.4z" opacity=".1"/><path fill="#535461" d="M4.4 175.2h22.7a4.4 4.4 0 0 1 4.4 4.4V226H3a2.9 2.9 0 0 1-2.9-2.8v-43.6a4.4 4.4 0 0 1 4.4-4.4z"/><path d="M307.3 226h-28.7v-46.4a4.4 4.4 0 0 1 4.4-4.4h22.8a4.4 4.4 0 0 1 4.4 4.4v43.6a2.9 2.9 0 0 1-2.9 2.8z" opacity=".1"/><path fill="#535461" d="M310 226h-28.7v-46.4a4.4 4.4 0 0 1 4.4-4.4h22.7a4.4 4.4 0 0 1 4.4 4.4v43.6a2.9 2.9 0 0 1-2.8 2.8zM38.3 191.4h236.3a6.7 6.7 0 0 1 6.7 6.7v28H31.5v-28a6.7 6.7 0 0 1 6.8-6.7z"/><path d="M38.3 191.4h236.3a6.7 6.7 0 0 1 6.7 6.7v28H31.5v-28a6.7 6.7 0 0 1 6.8-6.7z" opacity=".1"/><path fill="#535461" d="M13.6 226h9.6v10.1h-9.6z"/><path d="M13.6 226h9.6v10.1h-9.6z" opacity=".1"/><path d="M13.6 226h9.6v.4h-9.6z" opacity=".1"/><path fill="#535461" d="M299.2 236.1h-9.6v-10h9.6z"/><path d="M299.2 236.1h-9.6v-10h9.6z" opacity=".1"/><path d="M299.2 226.5h-9.6v-.4h9.6z" opacity=".1"/><path fill="#fdb797" d="M62.7 245.3h6v8.3h-6zM83.7 245.3h6v8.3h-6z"/><path fill="#4d8af0" d="M56 177h40.4v14.5H56z"/><path d="M56 177h40.4v14.5H56z" opacity=".1"/><path d="M56 179.6s15.1 3.5 20.2 3.5 20.2-3.5 20.2-3.5v-2.2H56z" opacity=".1"/><path fill="#f55f44" d="M96.4 179.2s-15 3.5-20.2 3.5-20.1-3.5-20.1-3.5V155a20.2 20.2 0 0 1 20.1-20.2 20.2 20.2 0 0 1 20.2 20.2z"/><path fill="#fdb797" d="M71.4 124.8H81v11.9a4 4 0 0 1-3.9 3.9h-1.8a4 4 0 0 1-3.9-4z"/><path fill="#4d8af0" d="M71 248.1l-10.7 2a1.8 1.8 0 0 1-2-1.5L47 189.2a6 6 0 0 1 4.9-7l6.4-1.3a1.8 1.8 0 0 1 2.1 1.5L72.4 246a1.8 1.8 0 0 1-1.5 2.1zM81.5 248.1l10.6 2a1.8 1.8 0 0 0 2.2-1.5l11.2-60a5.5 5.5 0 0 0-4.4-6.3l-7-1.4a1.8 1.8 0 0 0-2.2 1.5L80.1 246a1.8 1.8 0 0 0 1.4 2.1z"/><path d="M71.4 132.1a20.2 20.2 0 0 0 9.6 0v-6.8h-9.6z" opacity=".1"/><circle cx="21" cy="21" r="21" fill="#333" transform="translate(55.2 86.3)"/><circle cx="20.2" cy="20.2" r="20.2" fill="#fdb797" transform="translate(56 92)"/><path fill="#333" d="M63 88.5c3.8-3.2 9.7-3.8 12.6-7.8 1.2-1.7 2-4 4.1-4.4v4.3l6.6-.7c-1 2.9 1.5 5.6 3 8.2a13.5 13.5 0 0 1 1.7 6.4c-2.2 1.4-5-.1-7.6-1a28.2 28.2 0 0 0-7.7-.9 16 16 0 0 0-4 .3 20 20 0 0 0-3.2 1.2c-1.7.7-7.2 3.5-8.9 1.7-1.8-2 1.8-6 3.3-7.3z"/><path d="M64 102a9.2 9.2 0 0 0 3.6 1 31.4 31.4 0 0 0 15.3-1.6 7.5 7.5 0 0 0 4.8 4 21.8 21.8 0 0 0 6.5.8 2.4 2.4 0 0 0 1.4-.3c1-.7.5-2.1-.1-3.2l-2.8-5a15.1 15.1 0 0 0-3-4.3A12.3 12.3 0 0 0 84 91a33 33 0 0 0-15 .5c-5.3 1.5-12 6.3-4.9 10.6z" opacity=".1"/><path fill="#333" d="M64 101.6a9.2 9.2 0 0 0 3.6 1 31.4 31.4 0 0 0 15.3-1.7 7.5 7.5 0 0 0 4.8 4.1 21.8 21.8 0 0 0 6.5.7 2.4 2.4 0 0 0 1.4-.2c1-.7.5-2.2-.1-3.2l-2.8-5.1a15.1 15.1 0 0 0-3-4.2 12.3 12.3 0 0 0-5.8-2.5 33 33 0 0 0-15 .5c-5.3 1.4-12 6.2-4.9 10.6z"/><ellipse cx="1.8" cy="3.3" fill="#fdb797" rx="1.8" ry="3.3" transform="translate(94.4 108.8)"/><ellipse cx="1.8" cy="3.3" fill="#fdb797" rx="1.8" ry="3.3" transform="translate(54.5 108.8)"/><path fill="#f55f44" d="M71.5 136.3s-25.5-4-20.2 35.4l3 11.3 8.8-.4s-5.7-13.1-2.2-21.9 10.6-24.4 10.6-24.4zM81 136.3s25.5-4 20.2 35.4l-3 11.3-8.8-.3s5.7-13.2 2.2-22S81 136.3 81 136.3z"/><circle cx="4.8" cy="4.8" r="4.8" fill="#fdb797" transform="translate(54.3 179.6)"/><circle cx="4.8" cy="4.8" r="4.8" fill="#fdb797" transform="translate(89.4 179.6)"/><path fill="#333" d="M64.3 250.1h2.4a5.1 5.1 0 0 1 5.1 5.1v2H59.1v-2a5.1 5.1 0 0 1 5.2-5zM85.7 250.1h2.5a5.1 5.1 0 0 1 5.1 5.1v2H80.6v-2a5.1 5.1 0 0 1 5.1-5z"/><path d="M60.5 157.3s-1.8 9.2 1.3 13.1M92 157.3s1.8 9.2-1.3 13.1" opacity=".1"/><path fill="#4d8af0" d="M149.8 157.7h40.3v29.8h-40.3z"/><path d="M149.8 165.6s15 1.7 20.2 1.7 20.1-1.7 20.1-1.7V158h-40.3z" opacity=".1"/><path fill="#0771b2" d="M190.1 165.1s-15 1.8-20.1 1.8-20.2-1.8-20.2-1.8v-29.3a20.2 20.2 0 0 1 20.2-20.2 20.2 20.2 0 0 1 20.1 20.2z"/><path fill="#fdb797" d="M165.2 105.6h9.6v11.8a4 4 0 0 1-4 4h-1.7a4 4 0 0 1-4-4z"/><path fill="#4d8af0" d="M149.8 177h14.5v98h-14.5zM175.7 177h14.5v98h-14.5z"/><path d="M165.2 112.9a20.2 20.2 0 0 0 9.6 0v-7h-9.6z" opacity=".1"/><circle cx="21" cy="21" r="21" fill="#814e4d" transform="translate(149 67)"/><circle cx="20.2" cy="20.2" r="20.2" fill="#fdb797" transform="translate(149.8 72.7)"/><path d="M157.8 82.7a9.2 9.2 0 0 0 3.5 1.1 31.4 31.4 0 0 0 15.3-1.7 7.5 7.5 0 0 0 4.9 4 21.8 21.8 0 0 0 6.4.8 2.4 2.4 0 0 0 1.4-.3c1-.6.5-2.1 0-3.2l-2.9-5a15.1 15.1 0 0 0-3-4.2 12.3 12.3 0 0 0-5.8-2.5 33 33 0 0 0-15 .5c-5.3 1.4-12 6.2-4.8 10.5z" opacity=".1"/><path fill="#814e4d" d="M157.8 82.3a9.2 9.2 0 0 0 3.5 1 31.4 31.4 0 0 0 15.3-1.6 7.5 7.5 0 0 0 4.9 4 21.8 21.8 0 0 0 6.4.7 2.4 2.4 0 0 0 1.4-.2c1-.7.5-2.2 0-3.2l-2.9-5a15.1 15.1 0 0 0-3-4.3 12.3 12.3 0 0 0-5.8-2.5 33 33 0 0 0-15 .5c-5.3 1.4-12 6.2-4.8 10.6z"/><ellipse cx="1.8" cy="3.3" fill="#fdb797" rx="1.8" ry="3.3" transform="translate(188.2 89.6)"/><ellipse cx="1.8" cy="3.3" fill="#fdb797" rx="1.8" ry="3.3" transform="translate(148.3 89.6)"/><circle cx="4.8" cy="4.8" r="4.8" fill="#fdb797" transform="translate(219 62.2)"/><path fill="#814e4d" d="M170.4 100.7s-11.4 4-20.1-4.8c0 0 .7 3 1.9 6.4a20.2 20.2 0 0 0 37.7-6.2c-2 1.1-17 8.3-19.5 4.6zm-.4 5.3c-2.2 0-4-1.7-4-2.6s1.8-1 4-1 4 0 4 1-1.8 2.6-4 2.6z"/><path fill="#0771b2" d="M180.7 118.7s23.5-13.1 38-51.7l7 4.4s-11.7 49.1-40.8 60.4z"/><circle cx="4.8" cy="4.8" r="4.8" fill="#fdb797" transform="translate(111.3 62.2)"/><path fill="#0771b2" d="M159.3 118.7s-23.5-13.1-38-51.7l-7 4.4s11.7 49.1 40.8 60.4z"/><path fill="#333" d="M155.8 271.6h2.5a5.1 5.1 0 0 1 5.1 5.1v2h-12.7v-2a5.1 5.1 0 0 1 5.1-5.1zM181.7 271.6h2.4a5.1 5.1 0 0 1 5.2 5.1v2h-12.7v-2a5.1 5.1 0 0 1 5-5z"/><circle cx="1.4" cy="1.4" r="1.4" fill="url(#a)" transform="translate(123 167.3)"/><circle cx="1.3" cy="1.3" r="1.3" fill="#fdd835" transform="translate(123.2 167.4)"/><path fill="#fff" d="M123.5 169a1.3 1.3 0 0 1 2.2-.9 1.3 1.3 0 1 0-2 1.5 1.3 1.3 0 0 1-.2-.5z" opacity=".2"/><circle cx="1.4" cy="1.4" r="1.4" fill="url(#a)" transform="translate(127.2 167.3)"/><circle cx="1.3" cy="1.3" r="1.3" fill="#fdd835" transform="translate(127.3 167.4)"/><path fill="#fff" d="M127.7 169a1.3 1.3 0 0 1 2.1-.9 1.3 1.3 0 1 0-2 1.5 1.3 1.3 0 0 1-.1-.5z" opacity=".2"/><circle cx="1.4" cy="1.4" r="1.4" fill="url(#a)" transform="translate(115.5 167.3)"/><circle cx="1.3" cy="1.3" r="1.3" fill="#fdd835" transform="translate(115.6 167.4)"/><path fill="#fff" d="M116 169a1.3 1.3 0 0 1 2-.9 1.3 1.3 0 1 0-2 1.5 1.3 1.3 0 0 1 0-.5z" opacity=".2"/><circle cx="1.4" cy="1.4" r="1.4" fill="url(#b)" transform="translate(120.8 163.7)"/><circle cx="1.3" cy="1.3" r="1.3" fill="#fdd835" transform="translate(121 163.8)"/><path fill="#fff" d="M121.3 165.5a1.3 1.3 0 0 1 2.2-1 1.3 1.3 0 1 0-2 1.5 1.3 1.3 0 0 1-.2-.5z" opacity=".2"/><circle cx="1.4" cy="1.4" r="1.4" fill="url(#b)" transform="translate(129.2 164.2)"/><circle cx="1.3" cy="1.3" r="1.3" fill="#fdd835" transform="translate(129.4 164.4)"/><path fill="#fff" d="M129.7 166a1.3 1.3 0 0 1 2.2-.9 1.3 1.3 0 1 0-2 1.5 1.3 1.3 0 0 1-.2-.6z" opacity=".2"/><circle cx="1.4" cy="1.4" r="1.4" fill="url(#c)" transform="translate(127.2 163)"/><circle cx="1.3" cy="1.3" r="1.3" fill="#fdd835" transform="translate(127.3 163.1)"/><path fill="#fff" d="M127.7 164.8a1.3 1.3 0 0 1 2.1-1 1.3 1.3 0 1 0-2 1.5 1.3 1.3 0 0 1-.1-.5z" opacity=".2"/><circle cx="1.4" cy="1.4" r="1.4" fill="url(#a)" transform="translate(128.2 166)"/><circle cx="1.3" cy="1.3" r="1.3" fill="#fdd835" transform="translate(128.3 166.1)"/><path fill="#fff" d="M128.7 167.8a1.3 1.3 0 0 1 2.1-1 1.3 1.3 0 1 0-2 1.5 1.3 1.3 0 0 1-.1-.5z" opacity=".2"/><circle cx="1.4" cy="1.4" r="1.4" fill="url(#b)" transform="translate(124.5 163.7)"/><circle cx="1.3" cy="1.3" r="1.3" fill="#fdd835" transform="translate(124.6 163.8)"/><path fill="#fff" d="M125 165.5a1.3 1.3 0 0 1 2.1-1 1.3 1.3 0 1 0-2 1.5 1.3 1.3 0 0 1-.1-.5z" opacity=".2"/><circle cx="1.4" cy="1.4" r="1.4" fill="url(#a)" transform="translate(124.3 159.6)"/><circle cx="1.3" cy="1.3" r="1.3" fill="#fdd835" transform="translate(124.5 159.8)"/><path fill="#fff" d="M124.8 161.4a1.3 1.3 0 0 1 2.1-.9 1.3 1.3 0 1 0-2 1.5 1.3 1.3 0 0 1-.1-.6z" opacity=".2"/><circle cx="1.4" cy="1.4" r="1.4" fill="url(#d)" transform="translate(131.4 161.7)"/><circle cx="1.3" cy="1.3" r="1.3" fill="#fdd835" transform="translate(131.5 161.9)"/><path fill="#fff" d="M131.8 163.5a1.3 1.3 0 0 1 2.2-1 1.3 1.3 0 1 0-2 1.5 1.3 1.3 0 0 1-.2-.5z" opacity=".2"/><circle cx="1.4" cy="1.4" r="1.4" fill="url(#d)" transform="translate(130.7 164.4)"/><circle cx="1.3" cy="1.3" r="1.3" fill="#fdd835" transform="translate(130.8 164.6)"/><path fill="#fff" d="M131.1 166.2a1.3 1.3 0 0 1 2.2-1 1.3 1.3 0 1 0-2 1.5 1.3 1.3 0 0 1-.2-.5z" opacity=".2"/><circle cx="1.4" cy="1.4" r="1.4" fill="url(#c)" transform="translate(133.8 163.9)"/><circle cx="1.3" cy="1.3" r="1.3" fill="#fdd835" transform="translate(134 164)"/><path fill="#fff" d="M134.3 165.7a1.3 1.3 0 0 1 2.1-1 1.3 1.3 0 1 0-2 1.5 1.3 1.3 0 0 1 0-.5z" opacity=".2"/><circle cx="1.4" cy="1.4" r="1.4" fill="url(#b)" transform="translate(132.4 165.2)"/><circle cx="1.3" cy="1.3" r="1.3" fill="#fdd835" transform="translate(132.6 165.4)"/><path fill="#fff" d="M132.9 167a1.3 1.3 0 0 1 2.1-1 1.3 1.3 0 1 0-2 1.5 1.3 1.3 0 0 1-.1-.5z" opacity=".2"/><circle cx="1.4" cy="1.4" r="1.4" fill="url(#d)" transform="translate(123 161.7)"/><circle cx="1.3" cy="1.3" r="1.3" fill="#fdd835" transform="translate(123 161.9)"/><path fill="#fff" d="M123.4 163.5a1.3 1.3 0 0 1 2.1-1 1.3 1.3 0 1 0-2 1.5 1.3 1.3 0 0 1-.1-.5z" opacity=".2"/><circle cx="1.4" cy="1.4" r="1.4" fill="url(#d)" transform="translate(120.8 167.1)"/><circle cx="1.3" cy="1.3" r="1.3" fill="#fbc02d" transform="translate(121 167.3)"/><path fill="#fff" d="M121.3 168.9a1.3 1.3 0 0 1 2.2-1 1.3 1.3 0 1 0-2 1.5 1.3 1.3 0 0 1-.2-.5z" opacity=".2"/><circle cx="1.4" cy="1.4" r="1.4" fill="url(#a)" transform="translate(117.6 167.3)"/><circle cx="1.3" cy="1.3" r="1.3" fill="#fbc02d" transform="translate(117.8 167.4)"/><path fill="#fff" d="M118 169a1.3 1.3 0 0 1 2.2-.9 1.3 1.3 0 1 0-2 1.5 1.3 1.3 0 0 1-.1-.5z" opacity=".2"/><circle cx="1.4" cy="1.4" r="1.4" fill="url(#c)" transform="translate(119.3 166.4)"/><circle cx="1.3" cy="1.3" r="1.3" fill="#fbc02d" transform="translate(119.4 166.5)"/><path fill="#fff" d="M119.7 168.2a1.3 1.3 0 0 1 2.2-1 1.3 1.3 0 1 0-2 1.5 1.3 1.3 0 0 1-.2-.5z" opacity=".2"/><circle cx="1.4" cy="1.4" r="1.4" fill="url(#a)" transform="translate(126.2 164.8)"/><circle cx="1.3" cy="1.3" r="1.3" fill="#fbc02d" transform="translate(126.4 165)"/><path fill="#fff" d="M126.7 166.6a1.3 1.3 0 0 1 2.1-1 1.3 1.3 0 1 0-2 1.5 1.3 1.3 0 0 1 0-.5z" opacity=".2"/><circle cx="1.4" cy="1.4" r="1.4" fill="url(#e)" transform="translate(126.2 161.4)"/><circle cx="1.3" cy="1.3" r="1.3" fill="#fbc02d" transform="translate(126.4 161.5)"/><path fill="#fff" d="M126.7 163.2a1.3 1.3 0 0 1 2.1-1 1.3 1.3 0 1 0-2 1.5 1.3 1.3 0 0 1 0-.5z" opacity=".2"/><circle cx="1.4" cy="1.4" r="1.4" fill="url(#e)" transform="translate(127.8 164)"/><circle cx="1.3" cy="1.3" r="1.3" fill="#fbc02d" transform="translate(128 164.2)"/><path fill="#fff" d="M128.3 165.9a1.3 1.3 0 0 1 2.1-1 1.3 1.3 0 1 0-2 1.5 1.3 1.3 0 0 1-.1-.5z" opacity=".2"/><circle cx="1.4" cy="1.4" r="1.4" fill="url(#c)" transform="translate(126.4 158.7)"/><circle cx="1.3" cy="1.3" r="1.3" fill="#fbc02d" transform="translate(126.5 158.8)"/><path fill="#fff" d="M126.9 160.5a1.3 1.3 0 0 1 2.1-1 1.3 1.3 0 1 0-2 1.5 1.3 1.3 0 0 1-.1-.5z" opacity=".2"/><circle cx="1.4" cy="1.4" r="1.4" fill="url(#e)" transform="translate(126.7 160.1)"/><circle cx="1.3" cy="1.3" r="1.3" fill="#fbc02d" transform="translate(126.9 160.3)"/><path fill="#fff" d="M127.2 162a1.3 1.3 0 0 1 2.1-1 1.3 1.3 0 1 0-2 1.5 1.3 1.3 0 0 1-.1-.6z" opacity=".2"/><circle cx="1.4" cy="1.4" r="1.4" fill="url(#d)" transform="translate(128.4 161)"/><circle cx="1.3" cy="1.3" r="1.3" fill="#fbc02d" transform="translate(128.6 161.2)"/><path fill="#fff" d="M128.9 162.9a1.3 1.3 0 0 1 2.1-1 1.3 1.3 0 1 0-2 1.5 1.3 1.3 0 0 1-.1-.5z" opacity=".2"/><circle cx="1.4" cy="1.4" r="1.4" fill="url(#a)" transform="translate(130.1 160.8)"/><circle cx="1.3" cy="1.3" r="1.3" fill="#fbc02d" transform="translate(130.3 161)"/><path fill="#fff" d="M130.6 162.6a1.3 1.3 0 0 1 2.2-1 1.3 1.3 0 1 0-2 1.5 1.3 1.3 0 0 1-.2-.5z" opacity=".2"/><circle cx="1.4" cy="1.4" r="1.4" fill="url(#e)" transform="translate(129.7 162.2)"/><circle cx="1.3" cy="1.3" r="1.3" fill="#fbc02d" transform="translate(129.8 162.4)"/><path fill="#fff" d="M130.1 164a1.3 1.3 0 0 1 2.2-.9 1.3 1.3 0 1 0-2 1.5 1.3 1.3 0 0 1-.2-.6z" opacity=".2"/><circle cx="1.4" cy="1.4" r="1.4" fill="url(#b)" transform="translate(123.7 160.4)"/><circle cx="1.3" cy="1.3" r="1.3" fill="#fbc02d" transform="translate(123.9 160.5)"/><path fill="#fff" d="M124.2 162.2a1.3 1.3 0 0 1 2.1-1 1.3 1.3 0 1 0-2 1.5 1.3 1.3 0 0 1-.1-.5z" opacity=".2"/><circle cx="1.4" cy="1.4" r="1.4" fill="url(#e)" transform="translate(119.6 164.7)"/><circle cx="1.3" cy="1.3" r="1.3" fill="#fbc02d" transform="translate(119.7 164.9)"/><path fill="#fff" d="M120 166.5a1.3 1.3 0 0 1 2.2-.9 1.3 1.3 0 1 0-2 1.5 1.3 1.3 0 0 1-.1-.6z" opacity=".2"/><circle cx="1.4" cy="1.4" r="1.4" fill="url(#c)" transform="translate(122 162.3)"/><circle cx="1.3" cy="1.3" r="1.3" fill="#fbc02d" transform="translate(122.2 162.5)"/><path fill="#fff" d="M122.5 164.1a1.3 1.3 0 0 1 2.2-.9 1.3 1.3 0 1 0-2 1.5 1.3 1.3 0 0 1-.2-.6z" opacity=".2"/><circle cx="1.4" cy="1.4" r="1.4" fill="url(#b)" transform="translate(117 166.4)"/><circle cx="1.3" cy="1.3" r="1.3" fill="#fbc02d" transform="translate(117.1 166.6)"/><path fill="#fff" d="M117.5 168.2a1.3 1.3 0 0 1 2.1-.9 1.3 1.3 0 1 0-2 1.4 1.3 1.3 0 0 1-.1-.5z" opacity=".2"/><circle cx="1.4" cy="1.4" r="1.4" fill="url(#e)" transform="translate(130.7 165.3)"/><circle cx="1.3" cy="1.3" r="1.3" fill="#fbc02d" transform="translate(130.8 165.5)"/><path fill="#fff" d="M131.1 167.1a1.3 1.3 0 0 1 2.2-1 1.3 1.3 0 1 0-2 1.5 1.3 1.3 0 0 1-.2-.5z" opacity=".2"/><circle cx="1.4" cy="1.4" r="1.4" fill="url(#b)" transform="translate(124.3 157.3)"/><circle cx="1.3" cy="1.3" r="1.3" fill="#fbc02d" transform="translate(124.4 157.4)"/><path fill="#fff" d="M124.8 159a1.3 1.3 0 0 1 2-.8 1.3 1.3 0 1 0-2 1.4 1.3 1.3 0 0 1 0-.5z" opacity=".2"/><circle cx="1.4" cy="1.4" r="1.4" fill="url(#c)" transform="translate(121.7 160.5)"/><circle cx="1.3" cy="1.3" r="1.3" fill="#fbc02d" transform="translate(121.8 160.7)"/><path fill="#fff" d="M122.2 162.3a1.3 1.3 0 0 1 2.1-.9 1.3 1.3 0 1 0-2 1.5 1.3 1.3 0 0 1-.1-.6z" opacity=".2"/><circle cx="1.4" cy="1.4" r="1.4" fill="url(#c)" transform="translate(119.6 163)"/><circle cx="1.3" cy="1.3" r="1.3" fill="#fbc02d" transform="translate(119.8 163.1)"/><path fill="#fff" d="M120.1 164.8a1.3 1.3 0 0 1 2.1-1 1.3 1.3 0 1 0-2 1.5 1.3 1.3 0 0 1-.1-.5z" opacity=".2"/><circle cx="1.4" cy="1.4" r="1.4" fill="url(#c)" transform="translate(121.1 165.7)"/><circle cx="1.3" cy="1.3" r="1.3" fill="#fbc02d" transform="translate(121.3 165.8)"/><path fill="#fff" d="M121.6 167.5a1.3 1.3 0 0 1 2.1-1 1.3 1.3 0 1 0-2 1.5 1.3 1.3 0 0 1-.1-.5z" opacity=".2"/><circle cx="1.4" cy="1.4" r="1.4" fill="url(#c)" transform="translate(123.1 163.9)"/><circle cx="1.3" cy="1.3" r="1.3" fill="#fbc02d" transform="translate(123.3 164)"/><path fill="#fff" d="M123.6 165.7a1.3 1.3 0 0 1 2.1-1 1.3 1.3 0 1 0-2 1.5 1.3 1.3 0 0 1-.1-.5z" opacity=".2"/><circle cx="1.4" cy="1.4" r="1.4" fill="url(#c)" transform="translate(124.2 165.7)"/><circle cx="1.3" cy="1.3" r="1.3" fill="#fbc02d" transform="translate(124.3 165.8)"/><path fill="#fff" d="M124.6 167.5a1.3 1.3 0 0 1 2.2-1 1.3 1.3 0 1 0-2 1.5 1.3 1.3 0 0 1-.2-.5z" opacity=".2"/><circle cx="1.4" cy="1.4" r="1.4" fill="url(#a)" transform="translate(135.1 167.3)"/><circle cx="1.3" cy="1.3" r="1.3" fill="#fbc02d" transform="translate(135.3 167.4)"/><path fill="#fff" d="M135.6 169a1.3 1.3 0 0 1 2.1-.9 1.3 1.3 0 1 0-2 1.5 1.3 1.3 0 0 1-.1-.5z" opacity=".2"/><circle cx="1.4" cy="1.4" r="1.4" fill="url(#c)" transform="translate(133.1 167)"/><circle cx="1.3" cy="1.3" r="1.3" fill="#fbc02d" transform="translate(133.3 167)"/><path fill="#fff" d="M133.6 168.7a1.3 1.3 0 0 1 2.1-.9 1.3 1.3 0 1 0-2 1.5 1.3 1.3 0 0 1-.1-.6z" opacity=".2"/><circle cx="1.4" cy="1.4" r="1.4" fill="url(#d)" transform="translate(129.2 167.1)"/><circle cx="1.3" cy="1.3" r="1.3" fill="#fbc02d" transform="translate(129.4 167.3)"/><circle cx="1.3" cy="1.3" r="1.3" fill="#fbc02d" transform="translate(129.7 165.8)"/><path fill="#fff" d="M129.7 168.9a1.3 1.3 0 0 1 2.2-1 1.3 1.3 0 1 0-2 1.5 1.3 1.3 0 0 1-.2-.5z" opacity=".2"/><circle cx="1.4" cy="1.4" r="1.4" fill="url(#a)" transform="translate(125 167.3)"/><circle cx="1.3" cy="1.3" r="1.3" fill="#fbc02d" transform="translate(125.1 167.4)"/><path fill="#fff" d="M125.4 169a1.3 1.3 0 0 1 2.2-.9 1.3 1.3 0 1 0-2 1.5 1.3 1.3 0 0 1-.2-.5z" opacity=".2"/><circle cx="1.4" cy="1.4" r="1.4" fill="url(#b)" transform="translate(124.5 161.5)"/><circle cx="1.3" cy="1.3" r="1.3" fill="#fdd835" transform="translate(124.7 161.7)"/><path fill="#fff" d="M125 163.3a1.3 1.3 0 0 1 2.2-.9 1.3 1.3 0 1 0-2 1.5 1.3 1.3 0 0 1-.2-.6z" opacity=".2"/><circle cx="1.4" cy="1.4" r="1.4" fill="url(#b)" transform="translate(126 163.3)"/><circle cx="1.3" cy="1.3" r="1.3" fill="#fdd835" transform="translate(126.1 163.5)"/><path fill="#fff" d="M126.4 165.1a1.3 1.3 0 0 1 2.2-.9 1.3 1.3 0 1 0-2 1.5 1.3 1.3 0 0 1-.2-.6z" opacity=".2"/><circle cx="1.4" cy="1.4" r="1.4" fill="url(#e)" transform="translate(123.6 159)"/><circle cx="1.3" cy="1.3" r="1.3" fill="#fdd835" transform="translate(123.7 159.1)"/><path fill="#fff" d="M124 160.8a1.3 1.3 0 0 1 2.2-1 1.3 1.3 0 1 0-2 1.5 1.3 1.3 0 0 1-.1-.5z" opacity=".2"/><circle cx="1.4" cy="1.4" r="1.4" fill="url(#b)" transform="translate(125.2 159.1)"/><circle cx="1.3" cy="1.3" r="1.3" fill="#fdd835" transform="translate(125.3 159.3)"/><path fill="#fff" d="M125.6 161a1.3 1.3 0 0 1 2.2-1 1.3 1.3 0 1 0-2 1.5 1.3 1.3 0 0 1-.2-.6z" opacity=".2"/><circle cx="1.4" cy="1.4" r="1.4" fill="url(#d)" transform="translate(127.8 159.9)"/><circle cx="1.3" cy="1.3" r="1.3" fill="#fdd835" transform="translate(128 160)"/><path fill="#fff" d="M128.3 161.7a1.3 1.3 0 0 1 2.1-1 1.3 1.3 0 1 0-2 1.5 1.3 1.3 0 0 1-.1-.5z" opacity=".2"/><circle cx="1.4" cy="1.4" r="1.4" fill="url(#b)" transform="translate(120.7 162.2)"/><circle cx="1.3" cy="1.3" r="1.3" fill="#fdd835" transform="translate(120.8 162.3)"/><path fill="#fff" d="M121.2 164a1.3 1.3 0 0 1 2.1-1 1.3 1.3 0 1 0-2 1.5 1.3 1.3 0 0 1-.1-.5z" opacity=".2"/><circle cx="1.4" cy="1.4" r="1.4" fill="url(#b)" transform="translate(121.7 164)"/><circle cx="1.3" cy="1.3" r="1.3" fill="#fdd835" transform="translate(121.8 164.2)"/><path fill="#fff" d="M122.2 165.8a1.3 1.3 0 0 1 2.1-.9 1.3 1.3 0 1 0-2 1.5 1.3 1.3 0 0 1-.1-.6z" opacity=".2"/><circle cx="1.4" cy="1.4" r="1.4" fill="url(#e)" transform="translate(122.4 166.2)"/><circle cx="1.3" cy="1.3" r="1.3" fill="#fdd835" transform="translate(122.5 166.4)"/><path fill="#fff" d="M122.9 168a1.3 1.3 0 0 1 2-1 1.3 1.3 0 1 0-2 1.5 1.3 1.3 0 0 1 0-.5z" opacity=".2"/><circle cx="1.4" cy="1.4" r="1.4" fill="url(#b)" transform="translate(126.4 165.5)"/><circle cx="1.3" cy="1.3" r="1.3" fill="#fdd835" transform="translate(126.5 165.7)"/><path fill="#fff" d="M126.9 167.3a1.3 1.3 0 0 1 2.1-.9 1.3 1.3 0 1 0-2 1.4 1.3 1.3 0 0 1-.1-.5z" opacity=".2"/><circle cx="1.4" cy="1.4" r="1.4" fill="url(#b)" transform="translate(130.5 164.2)"/><circle cx="1.3" cy="1.3" r="1.3" fill="#fdd835" transform="translate(130.7 164.4)"/><path fill="#fff" d="M131 166a1.3 1.3 0 0 1 2.1-.9 1.3 1.3 0 1 0-2 1.5 1.3 1.3 0 0 1-.1-.6z" opacity=".2"/><circle cx="1.4" cy="1.4" r="1.4" fill="url(#b)" transform="translate(131.8 163.1)"/><circle cx="1.3" cy="1.3" r="1.3" fill="#fdd835" transform="translate(132 163.3)"/><circle cx="1.3" cy="1.3" r="1.3" fill="#fdd835" transform="translate(128.8 163.2)"/><path fill="#fff" d="M132.3 165a1.3 1.3 0 0 1 2.1-1 1.3 1.3 0 1 0-2 1.5 1.3 1.3 0 0 1 0-.6z" opacity=".2"/><circle cx="1.4" cy="1.4" r="1.4" fill="url(#c)" transform="translate(133.9 165.7)"/><circle cx="1.3" cy="1.3" r="1.3" fill="#fdd835" transform="translate(134 165.8)"/><path fill="#fff" d="M134.4 167.5a1.3 1.3 0 0 1 2.1-1 1.3 1.3 0 1 0-2 1.5 1.3 1.3 0 0 1-.1-.5z" opacity=".2"/><circle cx="1.4" cy="1.4" r="1.4" fill="url(#e)" transform="translate(127.2 167.4)"/><circle cx="1.3" cy="1.3" r="1.3" fill="#fdd835" transform="translate(127.4 167.6)"/><path fill="#fff" d="M127.7 169.2a1.3 1.3 0 0 1 2.2-1 1.3 1.3 0 1 0-2 1.5 1.3 1.3 0 0 1-.2-.5z" opacity=".2"/><circle cx="1.4" cy="1.4" r="1.4" fill="url(#b)" transform="translate(119.9 166.8)"/><circle cx="1.3" cy="1.3" r="1.3" fill="#fdd835" transform="translate(120 167)"/><path fill="#fff" d="M120.4 168.6a1.3 1.3 0 0 1 2.1-1 1.3 1.3 0 1 0-2 1.5 1.3 1.3 0 0 1-.1-.5z" opacity=".2"/><circle cx="1.4" cy="1.4" r="1.4" fill="url(#b)" transform="translate(117.8 165)"/><circle cx="1.3" cy="1.3" r="1.3" fill="#fdd835" transform="translate(118 165)"/><path fill="#fff" d="M118.3 166.7a1.3 1.3 0 0 1 2.1-.9 1.3 1.3 0 1 0-2 1.5 1.3 1.3 0 0 1 0-.6z" opacity=".2"/><circle cx="1.4" cy="1.4" r="1.4" fill="url(#b)" transform="translate(120.5 164)"/><circle cx="1.3" cy="1.3" r="1.3" fill="#fdd835" transform="translate(120.7 164.2)"/><path fill="#fff" d="M121 165.8a1.3 1.3 0 0 1 2.1-.9 1.3 1.3 0 1 0-2 1.5 1.3 1.3 0 0 1-.1-.6z" opacity=".2"/><circle cx="1.4" cy="1.4" r="1.4" fill="url(#b)" transform="translate(119 161.9)"/><circle cx="1.3" cy="1.3" r="1.3" fill="#fdd835" transform="translate(119.2 162)"/><path fill="#fff" d="M119.5 163.7a1.3 1.3 0 0 1 2.2-1 1.3 1.3 0 1 0-2 1.5 1.3 1.3 0 0 1-.2-.5z" opacity=".2"/><circle cx="1.4" cy="1.4" r="1.4" fill="url(#d)" transform="translate(120.3 159.9)"/><circle cx="1.3" cy="1.3" r="1.3" fill="#fdd835" transform="translate(120.5 160)"/><path fill="#fff" d="M120.8 161.7a1.3 1.3 0 0 1 2.1-1 1.3 1.3 0 1 0-2 1.5 1.3 1.3 0 0 1-.1-.5z" opacity=".2"/><circle cx="1.4" cy="1.4" r="1.4" fill="url(#a)" transform="translate(131.4 167.3)"/><circle cx="1.3" cy="1.3" r="1.3" fill="#fdd835" transform="translate(131.5 167.4)"/><path fill="#fff" d="M131.8 169a1.3 1.3 0 0 1 2.2-.9 1.3 1.3 0 1 0-2 1.5 1.3 1.3 0 0 1-.2-.5z" opacity=".2"/><path fill="url(#f)" d="M342.3 498.1h-15.8l-4-23.6h23.9z" transform="translate(-207.6 -305.9)"/><path fill="#fff" d="M134.5 192h-15.2l-3.8-23h23z"/><path fill="#0771b2" d="M115.5 169h3.9l3.7 23h-3.8zM138.4 169h-4l-3.7 23h3.8zM125 169h3.8v23H125z"/><circle cx="1.4" cy="1.4" r="1.4" fill="url(#b)" transform="translate(118.3 163.3)"/><circle cx="1.3" cy="1.3" r="1.3" fill="#fbc02d" transform="translate(118.5 163.5)"/><path fill="#fff" d="M118.8 165.1a1.3 1.3 0 0 1 2.1-.9 1.3 1.3 0 1 0-2 1.5 1.3 1.3 0 0 1-.1-.6z" opacity=".2"/><circle cx="1.4" cy="1.4" r="1.4" fill="url(#c)" transform="translate(121.9 159.3)"/><circle cx="1.3" cy="1.3" r="1.3" fill="#fbc02d" transform="translate(122 159.5)"/><path fill="#fff" d="M122.4 161.1a1.3 1.3 0 0 1 2.1-.9 1.3 1.3 0 1 0-2 1.5 1.3 1.3 0 0 1-.1-.6z" opacity=".2"/><circle cx="1.4" cy="1.4" r="1.4" fill="url(#b)" transform="translate(116.9 165.5)"/><circle cx="1.3" cy="1.3" r="1.3" fill="#fbc02d" transform="translate(117 165.7)"/><path fill="#fff" d="M117.4 167.3a1.3 1.3 0 0 1 2-.9 1.3 1.3 0 1 0-2 1.4 1.3 1.3 0 0 1 0-.5z" opacity=".2"/><circle cx="1.4" cy="1.4" r="1.4" fill="url(#e)" transform="translate(115.2 155.8)"/><circle cx="1.3" cy="1.3" r="1.3" fill="#fbc02d" transform="translate(115.3 156)"/><path fill="#fff" d="M115.6 157.6a1.3 1.3 0 0 1 2.2-.9 1.3 1.3 0 1 0-2 1.5 1.3 1.3 0 0 1-.2-.6z" opacity=".2"/><circle cx="1.4" cy="1.4" r="1.4" fill="url(#e)" transform="translate(121.2 147.6)"/><circle cx="1.3" cy="1.3" r="1.3" fill="#fbc02d" transform="translate(121.3 147.8)"/><path fill="#fff" d="M121.6 149.4a1.3 1.3 0 0 1 2.2-.9 1.3 1.3 0 1 0-2 1.5 1.3 1.3 0 0 1-.2-.6z" opacity=".2"/><circle cx="1.4" cy="1.4" r="1.4" fill="url(#c)" transform="translate(126.3 141.4)"/><circle cx="1.3" cy="1.3" r="1.3" fill="#fdd835" transform="translate(126.5 141.6)"/><path fill="#fff" d="M126.8 143.2a1.3 1.3 0 0 1 2.2-.9 1.3 1.3 0 1 0-2 1.5 1.3 1.3 0 0 1-.2-.6z" opacity=".2"/><circle cx="1.4" cy="1.4" r="1.4" fill="url(#c)" transform="translate(136.4 154.8)"/><circle cx="1.3" cy="1.3" r="1.3" fill="#fdd835" transform="translate(136.5 155)"/><path fill="#fff" d="M136.9 156.6a1.3 1.3 0 0 1 2.1-1 1.3 1.3 0 1 0-2 1.5 1.3 1.3 0 0 1-.1-.5z" opacity=".2"/><circle cx="1.4" cy="1.4" r="1.4" fill="url(#b)" transform="translate(144.4 165)"/><circle cx="1.3" cy="1.3" r="1.3" fill="#fdd835" transform="translate(144.5 165)"/><path fill="#fff" d="M144.8 166.7a1.3 1.3 0 0 1 2.2-.9 1.3 1.3 0 1 0-2 1.4 1.3 1.3 0 0 1-.2-.5z" opacity=".2"/><circle cx="1.4" cy="1.4" r="1.4" fill="url(#b)" transform="translate(114.8 189.7)"/><circle cx="1.3" cy="1.3" r="1.3" fill="#fbc02d" transform="translate(115 189.8)"/><path fill="#fff" d="M115.2 191.5a1.3 1.3 0 0 1 2.2-1 1.3 1.3 0 1 0-2 1.5 1.3 1.3 0 0 1-.2-.5z" opacity=".2"/><circle cx="1.4" cy="1.4" r="1.4" fill="url(#b)" transform="translate(112.8 187)"/><circle cx="1.3" cy="1.3" r="1.3" fill="#fdd835" transform="translate(113 187.2)"/><path fill="#fff" d="M113.3 188.9a1.3 1.3 0 0 1 2.1-1 1.3 1.3 0 1 0-2 1.5 1.3 1.3 0 0 1-.1-.5z" opacity=".2"/><circle cx="1.4" cy="1.4" r="1.4" fill="url(#b)" transform="translate(111.5 173.1)"/><circle cx="1.3" cy="1.3" r="1.3" fill="#fbc02d" transform="translate(111.7 173.3)"/><path fill="#fff" d="M112 175a1.3 1.3 0 0 1 2.2-1 1.3 1.3 0 1 0-2 1.4 1.3 1.3 0 0 1-.2-.5z" opacity=".2"/><circle cx="1.4" cy="1.4" r="1.4" fill="url(#e)" transform="translate(138.5 188.5)"/><circle cx="1.3" cy="1.3" r="1.3" fill="#fbc02d" transform="translate(138.6 188.7)"/><path fill="#fff" d="M139 190.3a1.3 1.3 0 0 1 2-.9 1.3 1.3 0 1 0-2 1.5 1.3 1.3 0 0 1 0-.6z" opacity=".2"/><circle cx="1.4" cy="1.4" r="1.4" fill="url(#b)" transform="translate(141 186.9)"/><circle cx="1.3" cy="1.3" r="1.3" fill="#fbc02d" transform="translate(141.2 187)"/><path fill="#fff" d="M141.5 188.7a1.3 1.3 0 0 1 2.2-1 1.3 1.3 0 1 0-2 1.5 1.3 1.3 0 0 1-.2-.5z" opacity=".2"/><circle cx="1.4" cy="1.4" r="1.4" fill="url(#d)" transform="translate(141.4 188.8)"/><circle cx="1.3" cy="1.3" r="1.3" fill="#fdd835" transform="translate(141.5 189)"/><path fill="#fff" d="M141.8 190.6a1.3 1.3 0 0 1 2.2-.9 1.3 1.3 0 1 0-2 1.5 1.3 1.3 0 0 1-.2-.6z" opacity=".2"/><circle cx="1.4" cy="1.4" r="1.4" fill="url(#d)" transform="translate(136 188.8)"/><circle cx="1.3" cy="1.3" r="1.3" fill="#fdd835" transform="translate(136.1 189)"/><path fill="#fff" d="M136.4 190.6a1.3 1.3 0 0 1 2.2-.9 1.3 1.3 0 1 0-2 1.5 1.3 1.3 0 0 1-.2-.6z" opacity=".2"/><path fill="#fdb797" d="M226.6 254.3h6.3v8.6h-6.3zM248.2 254.3h6.3v8.6h-6.3z"/><path fill="#4d8af0" d="M219.8 184h41.5v14.8h-41.5z"/><path d="M219.8 184h41.5v14.8h-41.5z" opacity=".1"/><path d="M219.8 186.6s15.5 3.6 20.7 3.6 20.8-3.6 20.8-3.6v-2.2h-41.5z" opacity=".1"/><path fill="#3ad29f" d="M261.3 186.2s-15.5 3.6-20.8 3.6-20.7-3.6-20.7-3.6v-24.8a20.8 20.8 0 0 1 20.7-20.8 20.8 20.8 0 0 1 20.8 20.8z"/><path fill="#fdb797" d="M235.6 130.2h10v12.4a4 4 0 0 1-4 3.9h-2a4 4 0 0 1-4-4z"/><path fill="#4d8af0" d="M235.1 257.2l-11 2a1.8 1.8 0 0 1-2.1-1.4l-11.5-61.4a6 6 0 0 1 4.9-7.1l6.8-1.3a1.8 1.8 0 0 1 2.2 1.5l12.2 65.6a1.8 1.8 0 0 1-1.5 2.1zM246 257.2l11 2a1.8 1.8 0 0 0 2.1-1.4l11.6-62a5.5 5.5 0 0 0-4.4-6.4L259 188a1.8 1.8 0 0 0-2.2 1.5L244.5 255a1.8 1.8 0 0 0 1.5 2.1z"/><path d="M235.6 137.8a20.8 20.8 0 0 0 10 0v-7.1h-10z" opacity=".1"/><circle cx="21.7" cy="21.7" r="21.7" fill="#ffcf51" transform="translate(218.9 90.5)"/><circle cx="20.8" cy="20.8" r="20.8" fill="#fdb797" transform="translate(219.8 96.4)"/><ellipse cx="1.8" cy="3.4" fill="#fdb797" rx="1.8" ry="3.4" transform="translate(259.3 113.8)"/><ellipse cx="1.8" cy="3.4" fill="#fdb797" rx="1.8" ry="3.4" transform="translate(218.2 113.8)"/><path fill="#333" d="M228 259.3h3a5.1 5.1 0 0 1 5 5.1v2.1h-13v-2a5.1 5.1 0 0 1 5-5.2zM250.2 259.3h2.8a5.1 5.1 0 0 1 5.2 5.1v2.1H245v-2a5.1 5.1 0 0 1 5-5.2z"/><path d="M221.6 105.9s-.9 5.8 4 2.7 22.2-1.8 27.6 2.7 7.2.9 8.1 0-9.8-16-15.8-17.2C229.3 91 221.6 106 221.6 106z" opacity=".1"/><path fill="#ffcf51" d="M221.6 105.4s-.9 5.9 4 2.7 22.2-1.8 27.6 2.7 7.2 1 8.1 0-9.8-16-15.8-17.1c-16.2-3.2-23.9 11.7-23.9 11.7z"/><path fill="#ffcf51" d="M223.6 95.4c1.4-1.7 1.1-4.5 2.8-5.8 2.2-1.8 5.9.4 8.3-1.2 1.3-.8 1.8-2.5 2.8-3.7a6.2 6.2 0 0 1 8.4-1.1 15.7 15.7 0 0 0 1.4 1.2c2 1.1 4.3.2 6.4-.4a18 18 0 0 1 4.2-.5 3.7 3.7 0 0 1 2 .3 3.2 3.2 0 0 1 1.2 3l-.3 3.3a1.2 1.2 0 0 0 .3 1 2 2 0 0 0 .7.2 3.5 3.5 0 0 1 1.9 2.1 8.8 8.8 0 0 1-.8 8 6.4 6.4 0 0 0-.8 1.4 6 6 0 0 0-.2 1.6c-.1 2-1 4-2.7 4.8-2.2 1-4.8-.4-7-1.5-5-2.5-10.7-3.4-16.3-4a64.9 64.9 0 0 0-7.6-.4c-1.8 0-4.4.8-6.2 0a3.2 3.2 0 0 1-1.8-3.4c.2-2.5 2-3.2 3.3-5z"/><path fill="#3ad29f" d="M227.1 145.5l-11-3.5 22.2-15.4-6.8-9.4a212.1 212.1 0 0 0-32 22c2.2 13.6 20.3 22.2 20.3 22.2zM254.3 145.5l10.9-3.5-22.1-15.4 6.8-9.4a212.1 212.1 0 0 1 32 22c-2.2 13.6-20.3 22.2-20.3 22.2z"/><path d="M232 117.6s11.3-8.1 14-3.2-7.2 12.7-7.2 12.7z" opacity=".1"/><path fill="#fdb797" d="M231.5 117.2s11.3-8.2 14-3.2-7.2 12.6-7.2 12.6z"/><path d="M249.1 117.6s-11.3-8.1-14-3.2 7.3 12.7 7.3 12.7z" opacity=".1"/><path fill="#fdb797" d="M249.6 117.2s-11.3-8.2-14-3.2 7.2 12.6 7.2 12.6z"/><path fill="url(#g)" d="M751.2 473.9l-1-2.2-9.4 4a1.2 1.2 0 0 0-.7 1v10.2l2.7.4v-9.8z" transform="translate(-533.7 -323.3)"/><path fill="#f2f2f2" d="M217 150.5l-.7-1.6-8.9 3.7a1 1 0 0 0-.7 1v9.5h1.8v-9z"/><g fill="#0771b2" clip-path="url(#h)" transform="translate(206.7 149)"><path d="M7.2-1.8H9v6.1H7zM4.2-.5H6v6.1H4zM3.1 4.7L1.8 5l-.6-6.5h2z"/><path d="M-1.8 7.3V5.4h6v2zM-1.8 10V8h6v2zM-1.8 12.6v-2h6v2z"/></g><path fill="url(#i)" d="M575 454.3h-21.4v3.4h1.5l3 27.2h12.7l2.6-27.4h1.5z" transform="translate(-356.3 -292.9)"/><path fill="#0771b2" d="M214 191.4h-11.8l-2.9-28.6h17.2z"/><path fill="#0771b2" d="M198.2 162.3h19.6v1.9H198z"/><circle cx="4.9" cy="4.9" r="4.9" fill="url(#j)" transform="translate(203 170.6)"/><circle cx="4.5" cy="4.5" r="4.5" fill="#fff" transform="translate(203.5 171)"/><path fill="#0771b2" d="M227.8 70.3L207 59l18.3-34 34 18.5-11.4 20.8a14.8 14.8 0 0 1-20 6z"/><path fill="#0771b2" d="M256.1 49.2l-8-4.4 3.6-6.7a3.7 3.7 0 0 1 5-1.5l1.5.8a3.7 3.7 0 0 1 1.6 5.1z"/><path fill="#0771b2" d="M250.2 42.6l-8-4.4 3.6-6.7a3.7 3.7 0 0 1 5-1.5l1.6.8a3.7 3.7 0 0 1 1.5 5zM243.6 35.5l-8-4.4 3.8-7a3.4 3.4 0 0 1 4.5-1.4l2.2 1.2a3.4 3.4 0 0 1 1.3 4.5zM235.5 31l-10.4-5.6 12.5-22.8a3.7 3.7 0 0 1 5-1.6l2.4 1.3a5.4 5.4 0 0 1 2.2 7.4z"/><rect width="5.3" height="21.9" fill="#0771b2" stroke="#fff" stroke-miterlimit="10" rx="2.6" transform="rotate(-151.5 131.5 -1)"/><rect width="5.3" height="21.9" fill="#0771b2" stroke="#fff" stroke-miterlimit="10" rx="2.6" transform="rotate(-151.5 127.8 -3.8)"/><rect width="5.3" height="21.9" fill="#0771b2" stroke="#fff" stroke-miterlimit="10" rx="2.6" transform="rotate(-151.5 123.7 -7)"/><rect width="5.3" height="21.9" fill="#0771b2" stroke="#fff" stroke-miterlimit="10" rx="2.6" transform="rotate(-151.5 120.3 -15.8)"/><path fill="#0771b2" stroke="#fff" stroke-miterlimit="10" d="M222.3 59.6s6.8-4.3-.1-12.6l14-7.4s2.9-6.3-6.4-4.9-8.7 3.3-8.7 3.3"/></g></svg>