<svg xmlns="http://www.w3.org/2000/svg" width="40" height="40" viewBox="0 0 40 40"><defs><style>.a{fill:#3b5998;}.a,.b{fill-rule:evenodd;}.b{fill:#fff;}</style></defs><path class="a" d="M20,0A20,20,0,1,1,0,20,20,20,0,0,1,20,0Z"/><path class="b" d="M21.24,17.415V16.123a2.723,2.723,0,0,1,.029-.451.859.859,0,0,1,.132-.314.544.544,0,0,1,.332-.214,2.556,2.556,0,0,1,.611-.059h1.387V12.5H21.514a3.771,3.771,0,0,0-2.764.851,3.426,3.426,0,0,0-.84,2.507v1.556H16.25V20h1.66v7.5h3.33V20h2.217l.293-2.585Z"/></svg>