<svg xmlns="http://www.w3.org/2000/svg" xmlns:xlink="http://www.w3.org/1999/xlink" width="36.05" height="34.05" viewBox="0 0 36.05 34.05"><defs><style>.a{fill:none;stroke-linecap:round;stroke-linejoin:round;stroke-width:2.05px;stroke:url(#a);}</style><linearGradient id="a" y1="17.03" x2="36.05" y2="17.03" gradientUnits="userSpaceOnUse"><stop offset="0.26" stop-color="#1487cf"/><stop offset="1" stop-color="#ffd83a"/></linearGradient></defs><title>help</title><path class="a" d="M20.51,23.09c-2.36-1.07-4.2,1.47-4.92,3.32A16.57,16.57,0,0,1,6.65,14.76c2.15-.28,5.05-1.26,4.61-4a33.63,33.63,0,0,0-1.12-4.57C9.44,3.89,6.39,4.6,4.62,4.88c-3.22.51-3.37,3.69-3.54,6.34-.33,5.07.78,10.29,4,14.32s8.39,6.41,13.54,7.34c1.81.32,4.74.27,5.89-1.47a5.75,5.75,0,0,0,1-3.87,3.4,3.4,0,0,0-1.81-2.32A25,25,0,0,0,20.51,23.09ZM35,9a8,8,0,0,1-12.51,6.6L19,17l.88-4.37A8,8,0,1,1,35,9Z"/></svg>