<svg xmlns="http://www.w3.org/2000/svg" width="60" height="43.8" viewBox="0 0 60 43.8"><path d="M-1111.995,191.8v-7.505a5.654,5.654,0,0,1,3.116-5.054l7.98-3.99a3.8,3.8,0,0,0,2.109-3.4v-3.344a2.217,2.217,0,0,0-.646-1.558l-.266-.266a4.325,4.325,0,0,1-1.292-3.1V157.7a7.687,7.687,0,0,1,7.7-7.7h.608a7.687,7.687,0,0,1,7.7,7.7v5.89a4.325,4.325,0,0,1-1.292,3.1l-.266.266a2.217,2.217,0,0,0-.646,1.558v3.344a3.8,3.8,0,0,0,2.109,3.4l7.98,3.99a5.654,5.654,0,0,1,3.116,5.054V191.8m20-6.1v-5.332a4.017,4.017,0,0,0-2.214-3.591l-5.67-2.835a2.7,2.7,0,0,1-1.5-2.417v-2.376a1.575,1.575,0,0,1,.459-1.107l.189-.189a3.072,3.072,0,0,0,.918-2.2v-4.185a5.462,5.462,0,0,0-5.467-5.468h-.432a5.463,5.463,0,0,0-5.468,5.468v4.185a3.072,3.072,0,0,0,.918,2.2l.189.189a1.575,1.575,0,0,1,.459,1.107v2.376a2.7,2.7,0,0,1-1.5,2.417l-6.67,3.835" transform="translate(1112.995 -149)" fill="none" stroke="#1487cf" stroke-linecap="round" stroke-linejoin="round" stroke-width="2"/></svg>