<svg xmlns="http://www.w3.org/2000/svg" width="40" height="40" viewBox="0 0 40 40"><defs><style>.a{fill:#5851db;}.a,.b,.c{fill-rule:evenodd;}.b{fill:none;stroke:#fff;stroke-width:2px;}.c{fill:#fff;}</style></defs><path class="a" d="M20,0A20,20,0,1,1,0,20,20,20,0,0,1,20,0Z"/><path class="b" d="M17,13h6a4,4,0,0,1,4,4v6a4,4,0,0,1-4,4H17a4,4,0,0,1-4-4V17A4,4,0,0,1,17,13Z"/><path class="b" d="M20,17a3,3,0,1,1-3,3A3,3,0,0,1,20,17Z"/><path class="c" d="M23.5,15a.5.5,0,1,1-.5.5A.5.5,0,0,1,23.5,15Z"/></svg>