<svg xmlns="http://www.w3.org/2000/svg" xmlns:xlink="http://www.w3.org/1999/xlink" width="460" height="520" viewBox="0 0 460 520"><defs><style>.cls-1{fill:none;stroke:#ffd131;stroke-linecap:round;stroke-miterlimit:10;stroke-width:4.348px;}.cls-2{opacity:0.4;filter:url(#blur);}.cls-3{fill:#19427d;}.cls-4{fill:url(#linear-gradient);}.cls-5{fill:url(#grd_c);}.cls-6{fill:url(#grd_c-2);}.cls-7{fill:url(#grd);}.cls-8{fill:#2564c0;}.cls-9{fill:url(#grd-2);}.cls-10{fill:url(#grd_c-3);}.cls-11{fill:url(#grd_5);}.cls-12{fill:url(#grd_4);}.cls-13{fill:#2d79e8;}.cls-14{fill:#0c213e;}.cls-15{fill:url(#grd_6);}.cls-16{fill:url(#grd_c_4);}.cls-17{fill:#fff;}.cls-18{fill:#1487cf;}.cls-19{fill:url(#grd_12);}.cls-20,.cls-21{opacity:0.76;}.cls-20{fill:url(#linear-gradient-2);}.cls-22{fill:url(#linear-gradient-3);}.cls-23{fill:url(#linear-gradient-4);}</style><style type="text/css">@import url(../css/svg-anim.css);</style><filter id="blur" name="blur"><feGaussianBlur stdDeviation="5"/></filter><linearGradient id="linear-gradient" x1="102.444" y1="220.088" x2="272.742" y2="153.176" gradientUnits="userSpaceOnUse"><stop offset="0" stop-color="#19427d"/><stop offset="1" stop-color="#000d1c"/></linearGradient><linearGradient id="grd_c" x1="104.599" y1="221.55" x2="273.631" y2="155.136" gradientUnits="userSpaceOnUse"><stop offset="0" stop-color="#000d1c"/><stop offset="1" stop-color="#19427d"/></linearGradient><linearGradient id="grd_c-2" x1="74.639" y1="307.821" x2="386.213" y2="307.821" xlink:href="#grd_c"/><linearGradient id="grd" x1="153.609" y1="329.39" x2="338.675" y2="256.676" gradientUnits="userSpaceOnUse"><stop offset="0" stop-color="#002e63"/><stop offset="1" stop-color="#2564c0"/></linearGradient><linearGradient id="grd-2" x1="259.951" y1="323.433" x2="291.638" y2="304.311" xlink:href="#grd"/><linearGradient id="grd_c-3" x1="258.138" y1="303.702" x2="301.499" y2="303.702" xlink:href="#grd_c"/><linearGradient id="grd_5" x1="-144.861" y1="610.643" x2="-56.182" y2="575.8" gradientTransform="translate(-121.42 -212.44) rotate(-45)" gradientUnits="userSpaceOnUse"><stop offset="0" stop-color="#210a2f"/><stop offset="1" stop-color="#1e538b"/></linearGradient><linearGradient id="grd_4" x1="-146.911" y1="555.744" x2="-51.586" y2="651.069" gradientTransform="translate(-121.42 -212.44) rotate(-45)" gradientUnits="userSpaceOnUse"><stop offset="0" stop-color="#7123a3"/><stop offset="1" stop-color="#3697ff"/></linearGradient><linearGradient id="grd_6" x1="78.577" y1="193.523" x2="274.224" y2="193.523" gradientUnits="userSpaceOnUse"><stop offset="0" stop-color="#00408a"/><stop offset="1" stop-color="#2d7aeb"/></linearGradient><linearGradient id="grd_c_4" x1="152.134" y1="209.794" x2="226.536" y2="169.239" gradientUnits="userSpaceOnUse"><stop offset="0" stop-color="#ffd83a"/><stop offset="0.74" stop-color="#1487cf"/><stop offset="1" stop-color="#1487cf"/></linearGradient><linearGradient id="grd_12" x1="203.336" y1="177.154" x2="218.799" y2="177.154" gradientUnits="userSpaceOnUse"><stop offset="0" stop-color="#1487cf"/><stop offset="1" stop-color="#ffd83a"/></linearGradient><linearGradient id="linear-gradient-2" x1="143.076" y1="193.523" x2="338.723" y2="193.523" gradientUnits="userSpaceOnUse"><stop offset="0" stop-color="#3d008a"/><stop offset="1" stop-color="#882deb"/></linearGradient><linearGradient id="linear-gradient-3" x1="142.607" y1="178.614" x2="287.153" y2="178.614" gradientUnits="userSpaceOnUse"><stop offset="0" stop-color="#9431ff"/><stop offset="1" stop-color="#6a00ef"/></linearGradient><linearGradient id="linear-gradient-4" x1="237.854" y1="191.481" x2="261.73" y2="191.481" gradientUnits="userSpaceOnUse"><stop offset="0" stop-color="#25ec91"/><stop offset="1" stop-color="#56e9ec"/></linearGradient></defs><title>laptop</title><g id="floor"><path class="cls-1" d="M124.074,369c5.263,2.972,5.263,7.791,0,10.763s-13.8,2.972-19.058,0-5.263-7.791,0-10.763S118.811,366.026,124.074,369Zm247.314-11.825c4.131,2.333,4.131,6.116,0,8.449a16.865,16.865,0,0,1-14.961,0c-4.131-2.333-4.131-6.116,0-8.449A16.865,16.865,0,0,1,371.388,357.173Zm-237.524,79,22.92,9.072m-19.492,1.936,16.064-12.944"/><g class="cls-2"><path class="cls-3" d="M74.639,375.9,272.283,263.337a11.073,11.073,0,0,1,10.962.01L381.9,319.8a6.436,6.436,0,0,1-.012,11.215L194.277,437.874a11.072,11.072,0,0,1-10.947,0Z"/></g></g><g id="laptop"><path class="cls-4" d="M71.314,319.8V181.074a9.7,9.7,0,0,1,4.9-8.4L267.1,63.105c4.241-2.649,9.836,3.035,9.854,6.357L74.639,323.386l-2.174-1.45A2.569,2.569,0,0,1,71.314,319.8Z"/><path class="cls-5" d="M74.639,323.386V184.355a9.694,9.694,0,0,1,4.9-8.4L270.421,66.386A4.379,4.379,0,0,1,277,70.1l.729,140.4Z"/><path class="cls-6" d="M74.639,329.959v-6.573L283.245,219.835l99.583,48.157c4.367,2.5,4.97,16.016-.937,19.507L194.277,394.361a11.075,11.075,0,0,1-10.947,0L76.774,333.608A4.2,4.2,0,0,1,74.639,329.959Z"/><path class="cls-7" d="M74.639,323.386,272.283,210.818a11.073,11.073,0,0,1,10.962.011l98.658,56.45a6.435,6.435,0,0,1-.012,11.214L194.277,385.355a11.072,11.072,0,0,1-10.947,0Z"/><path class="cls-8" d="M245.97,360.733l10.975-6.557,11.032-6.459,22.15-12.764L312.4,322.407l11.181-6.195c3.747-2.031,7.476-4.094,11.239-6.1-3.641,2.216-7.317,4.371-10.975,6.559l-11.031,6.458L290.665,335.9,268.389,348.44l-11.181,6.2Z"/><path class="cls-9" d="M249.044,314.7l27.136-15.459a8.86,8.86,0,0,1,8.756,0l14.443,8.228a4.29,4.29,0,0,1,0,7.48l-27.136,15.459a8.86,8.86,0,0,1-8.756,0l-14.443-8.228A4.29,4.29,0,0,1,249.044,314.7Z"/><path class="cls-10" d="M258.272,309.406c3.53-2.093,7.059-4.187,10.613-6.238l5.329-3.08c.9-.5,1.748-1.049,2.719-1.493a9.16,9.16,0,0,1,3.059-.752,8.926,8.926,0,0,1,3.134.348,11.948,11.948,0,0,1,2.828,1.339l5.332,3.074,5.307,3.118,2.64,1.583a4.394,4.394,0,0,1,2.014,2.273,4.327,4.327,0,0,0-2.086-2.146l-2.708-1.464-5.389-2.975-5.363-3.02a9.453,9.453,0,0,0-5.677-1.608,8.654,8.654,0,0,0-2.893.685c-.9.4-1.787.963-2.683,1.449l-5.378,3C265.487,305.493,261.879,307.449,258.272,309.406Z"/><path class="cls-11" d="M140.928,316.886l-6.236,3.553a2.48,2.48,0,0,1-2.218,0l-6.236-3.553a.664.664,0,0,1,0-1.263l6.236-3.553a2.48,2.48,0,0,1,2.218,0l6.236,3.553A.664.664,0,0,1,140.928,316.886Zm11.531-7.832-6.236-3.553a2.48,2.48,0,0,0-2.218,0l-6.236,3.553a.664.664,0,0,0,0,1.263l6.236,3.553a2.48,2.48,0,0,0,2.218,0l6.236-3.553A.664.664,0,0,0,152.459,309.054Zm11.532-6.569-6.237-3.553a2.48,2.48,0,0,0-2.218,0l-6.236,3.553a.664.664,0,0,0,0,1.263l6.236,3.553a2.48,2.48,0,0,0,2.218,0l6.237-3.553A.664.664,0,0,0,163.991,302.485Zm11.531-6.569-6.237-3.553a2.48,2.48,0,0,0-2.218,0l-6.236,3.553a.664.664,0,0,0,0,1.263l6.236,3.553a2.48,2.48,0,0,0,2.218,0l6.237-3.553A.664.664,0,0,0,175.522,295.916Zm11.531-6.569-6.236-3.553a2.482,2.482,0,0,0-2.219,0l-6.236,3.553a.664.664,0,0,0,0,1.263l6.236,3.553a2.48,2.48,0,0,0,2.218,0l6.237-3.553A.664.664,0,0,0,187.053,289.347Zm11.531-6.569-6.236-3.553a2.48,2.48,0,0,0-2.218,0l-6.237,3.553a.664.664,0,0,0,0,1.263l6.236,3.553a2.482,2.482,0,0,0,2.219,0l6.236-3.553A.664.664,0,0,0,198.584,282.778Zm11.531-6.569-6.236-3.553a2.48,2.48,0,0,0-2.218,0l-6.237,3.553a.664.664,0,0,0,0,1.263l6.237,3.553a2.48,2.48,0,0,0,2.218,0l6.236-3.553A.664.664,0,0,0,210.115,276.209Zm11.531-6.569-6.236-3.553a2.48,2.48,0,0,0-2.218,0l-6.237,3.553a.664.664,0,0,0,0,1.263l6.237,3.553a2.48,2.48,0,0,0,2.218,0l6.236-3.553A.664.664,0,0,0,221.646,269.64Zm11.531-6.569-6.236-3.553a2.48,2.48,0,0,0-2.218,0l-6.236,3.553a.664.664,0,0,0,0,1.263l6.236,3.553a2.48,2.48,0,0,0,2.218,0l6.236-3.553A.664.664,0,0,0,233.177,263.071Zm11.531-6.569-6.236-3.553a2.48,2.48,0,0,0-2.218,0l-6.236,3.553a.664.664,0,0,0,0,1.263l6.236,3.553a2.48,2.48,0,0,0,2.218,0l6.236-3.553A.664.664,0,0,0,244.708,256.5Zm11.531-6.569L250,246.38a2.48,2.48,0,0,0-2.218,0l-6.236,3.553a.664.664,0,0,0,0,1.263l6.236,3.553a2.48,2.48,0,0,0,2.218,0l6.236-3.553A.664.664,0,0,0,256.239,249.933Zm11.532-6.569-6.237-3.553a2.48,2.48,0,0,0-2.218,0l-6.236,3.553a.664.664,0,0,0,0,1.263l6.236,3.553a2.48,2.48,0,0,0,2.218,0l6.237-3.553A.664.664,0,0,0,267.771,243.364Zm17.394-9.91-6.236-3.552a2.482,2.482,0,0,0-2.219,0l-12.1,6.893a.664.664,0,0,0,0,1.263l6.236,3.553a2.48,2.48,0,0,0,2.218,0l12.1-6.893A.665.665,0,0,0,285.165,233.454ZM183.618,339.942l-6.236-3.552a2.48,2.48,0,0,0-2.218,0l-6.236,3.552a.664.664,0,0,0,0,1.264l6.236,3.553a2.48,2.48,0,0,0,2.218,0l6.236-3.553A.664.664,0,0,0,183.618,339.942Zm11.531-6.569-6.236-3.552a2.48,2.48,0,0,0-2.218,0l-6.236,3.552a.664.664,0,0,0,0,1.264l6.236,3.553a2.48,2.48,0,0,0,2.218,0l6.236-3.553A.664.664,0,0,0,195.149,333.373Zm11.532-6.569-6.237-3.552a2.48,2.48,0,0,0-2.218,0L191.99,326.8a.664.664,0,0,0,0,1.264l6.236,3.553a2.487,2.487,0,0,0,2.218,0l6.237-3.553A.665.665,0,0,0,206.681,326.8Zm11.531-6.569-6.236-3.552a2.482,2.482,0,0,0-2.219,0l-6.236,3.552a.665.665,0,0,0,0,1.264l6.236,3.553a2.487,2.487,0,0,0,2.218,0l6.237-3.553A.665.665,0,0,0,218.212,320.235ZM287.4,280.821l-6.236-3.552a2.48,2.48,0,0,0-2.218,0l-6.236,3.552a.664.664,0,0,0,0,1.264l6.236,3.552a2.48,2.48,0,0,0,2.218,0l6.236-3.552A.664.664,0,0,0,287.4,280.821Zm11.532-6.569-6.237-3.552a2.48,2.48,0,0,0-2.218,0l-6.236,3.552a.664.664,0,0,0,0,1.264l6.236,3.552a2.48,2.48,0,0,0,2.218,0l6.237-3.552A.665.665,0,0,0,298.93,274.252Zm11.531-6.569-6.236-3.553a2.489,2.489,0,0,0-2.219,0l-6.236,3.553a.665.665,0,0,0,0,1.264l6.236,3.552a2.48,2.48,0,0,0,2.218,0l6.237-3.552A.665.665,0,0,0,310.461,267.683Zm6.475-9.3-1.31-.746a2.48,2.48,0,0,0-2.218,0l-2.127,1.212a.664.664,0,0,0,0,1.264l1.309.746a2.48,2.48,0,0,0,2.218,0l2.128-1.212A.665.665,0,0,0,316.936,258.381Zm4.976,2.835-1.309-.746a2.482,2.482,0,0,0-2.219,0l-2.127,1.212a.664.664,0,0,0,0,1.264l1.309.745a2.48,2.48,0,0,0,2.218,0l2.128-1.212A.664.664,0,0,0,321.912,261.216Zm5.737-3.269-1.309-.745a2.482,2.482,0,0,0-2.219,0l-2.127,1.212a.664.664,0,0,0,0,1.263l1.309.746a2.48,2.48,0,0,0,2.218,0l2.128-1.212A.665.665,0,0,0,327.649,257.947ZM316.1,264.525l-1.309-.746a2.48,2.48,0,0,0-2.218,0l-2.128,1.212a.665.665,0,0,0,0,1.264l1.309.746a2.489,2.489,0,0,0,2.219,0l2.127-1.213A.664.664,0,0,0,316.1,264.525Zm-26.5-20.174,6.236-3.553a.664.664,0,0,0,0-1.264l-6.236-3.552a2.48,2.48,0,0,0-2.218,0l-6.236,3.552a.664.664,0,0,0,0,1.264l6.236,3.553A2.48,2.48,0,0,0,289.6,244.351ZM278.07,250.92l6.236-3.553a.664.664,0,0,0,0-1.264l-6.236-3.552a2.48,2.48,0,0,0-2.218,0l-6.236,3.552a.664.664,0,0,0,0,1.264l6.236,3.553A2.48,2.48,0,0,0,278.07,250.92Zm-11.531,6.569,6.236-3.553a.664.664,0,0,0,0-1.264l-6.236-3.552a2.48,2.48,0,0,0-2.218,0l-6.237,3.552a.665.665,0,0,0,0,1.264l6.237,3.553A2.48,2.48,0,0,0,266.539,257.489Zm-11.531,6.569,6.236-3.553a.664.664,0,0,0,0-1.264l-6.236-3.552a2.48,2.48,0,0,0-2.218,0l-6.237,3.552a.665.665,0,0,0,0,1.264l6.237,3.553A2.48,2.48,0,0,0,255.008,264.058Zm-11.531,6.569,6.236-3.553a.665.665,0,0,0,0-1.264l-6.236-3.552a2.48,2.48,0,0,0-2.218,0l-6.237,3.552a.665.665,0,0,0,0,1.264l6.236,3.553A2.482,2.482,0,0,0,243.477,270.627ZM231.945,277.2l6.237-3.553a.665.665,0,0,0,0-1.264l-6.236-3.552a2.482,2.482,0,0,0-2.219,0l-6.236,3.552a.665.665,0,0,0,0,1.264l6.236,3.553A2.48,2.48,0,0,0,231.945,277.2Zm-11.531,6.569,6.237-3.553a.665.665,0,0,0,0-1.264l-6.237-3.552a2.48,2.48,0,0,0-2.218,0l-6.236,3.553a.664.664,0,0,0,0,1.263l6.236,3.553A2.48,2.48,0,0,0,220.414,283.765Zm-11.531,6.569,6.236-3.553a.664.664,0,0,0,0-1.264l-6.236-3.552a2.48,2.48,0,0,0-2.218,0l-6.236,3.553a.664.664,0,0,0,0,1.263l6.236,3.553A2.48,2.48,0,0,0,208.883,290.334ZM197.352,296.9l6.236-3.553a.664.664,0,0,0,0-1.264l-6.236-3.552a2.48,2.48,0,0,0-2.218,0l-6.236,3.553a.664.664,0,0,0,0,1.263l6.236,3.553A2.48,2.48,0,0,0,197.352,296.9Zm-11.531,6.569,6.236-3.553a.664.664,0,0,0,0-1.264l-6.236-3.552a2.48,2.48,0,0,0-2.218,0l-6.236,3.553a.664.664,0,0,0,0,1.263l6.236,3.553A2.48,2.48,0,0,0,185.821,303.472Zm-11.531,6.569,6.236-3.553a.664.664,0,0,0,0-1.264l-6.236-3.552a2.48,2.48,0,0,0-2.218,0l-6.237,3.553a.664.664,0,0,0,0,1.263l6.237,3.553A2.48,2.48,0,0,0,174.29,310.041Zm-11.531,6.569L169,313.057a.664.664,0,0,0,0-1.263l-6.236-3.553a2.48,2.48,0,0,0-2.218,0l-6.237,3.553a.664.664,0,0,0,0,1.263l6.237,3.553A2.48,2.48,0,0,0,162.759,316.61Zm-17.395,9.909,12.1-6.893a.664.664,0,0,0,0-1.263l-6.236-3.553a2.48,2.48,0,0,0-2.218,0l-12.1,6.893a.664.664,0,0,0,0,1.263l6.236,3.553A2.48,2.48,0,0,0,145.364,326.519ZM284.353,259.5l22.157-12.622a.665.665,0,0,0,0-1.264l-6.236-3.552a2.48,2.48,0,0,0-2.218,0L275.9,254.684a.664.664,0,0,0,0,1.263l6.236,3.553A2.48,2.48,0,0,0,284.353,259.5Zm-11.477,6.538,6.236-3.552a.664.664,0,0,0,0-1.264l-6.236-3.552a2.48,2.48,0,0,0-2.218,0l-6.237,3.552a.665.665,0,0,0,0,1.264l6.237,3.552A2.48,2.48,0,0,0,272.876,266.038Zm-11.531,6.569,6.236-3.552a.665.665,0,0,0,0-1.264l-6.236-3.552a2.48,2.48,0,0,0-2.218,0l-6.237,3.552a.665.665,0,0,0,0,1.264l6.236,3.552A2.482,2.482,0,0,0,261.345,272.607Zm-11.532,6.57,6.237-3.553a.665.665,0,0,0,0-1.264l-6.236-3.552a2.482,2.482,0,0,0-2.219,0l-6.236,3.552a.665.665,0,0,0,0,1.264l6.236,3.553A2.487,2.487,0,0,0,249.813,279.177Zm-11.531,6.569,6.237-3.553a.665.665,0,0,0,0-1.264l-6.237-3.552a2.48,2.48,0,0,0-2.218,0l-6.236,3.552a.664.664,0,0,0,0,1.264l6.236,3.553A2.487,2.487,0,0,0,238.282,285.746Zm-11.531,6.569,6.236-3.553a.664.664,0,0,0,0-1.264l-6.236-3.552a2.48,2.48,0,0,0-2.218,0L218.3,287.5a.664.664,0,0,0,0,1.264l6.236,3.553A2.487,2.487,0,0,0,226.751,292.315Zm-11.531,6.569,6.236-3.553a.664.664,0,0,0,0-1.264l-6.236-3.552a2.48,2.48,0,0,0-2.218,0l-6.236,3.552a.664.664,0,0,0,0,1.264L213,298.884A2.48,2.48,0,0,0,215.22,298.884Zm-11.531,6.569,6.236-3.553a.664.664,0,0,0,0-1.264l-6.236-3.552a2.48,2.48,0,0,0-2.218,0l-6.236,3.552a.664.664,0,0,0,0,1.264l6.236,3.553A2.48,2.48,0,0,0,203.689,305.453Zm-11.531,6.569,6.236-3.553a.664.664,0,0,0,0-1.264l-6.236-3.552a2.48,2.48,0,0,0-2.218,0l-6.237,3.552a.665.665,0,0,0,0,1.264l6.237,3.553A2.48,2.48,0,0,0,192.158,312.022Zm-11.531,6.569,6.236-3.553a.664.664,0,0,0,0-1.264l-6.236-3.552a2.48,2.48,0,0,0-2.218,0l-6.237,3.552a.665.665,0,0,0,0,1.264l6.237,3.553A2.48,2.48,0,0,0,180.627,318.591ZM156.037,332.6l19.4-11.054a.664.664,0,0,0,0-1.263l-6.236-3.553a2.48,2.48,0,0,0-2.218,0l-19.4,11.054a.664.664,0,0,0,0,1.263l6.236,3.553A2.48,2.48,0,0,0,156.037,332.6ZM290.2,268.328l26.98-15.37a.664.664,0,0,0,0-1.264l-6.236-3.552a2.48,2.48,0,0,0-2.218,0l-26.98,15.37a.664.664,0,0,0,0,1.263l6.236,3.553A2.48,2.48,0,0,0,290.2,268.328Zm-12.267,6.988,6.236-3.552a.664.664,0,0,0,0-1.264l-6.236-3.553a2.48,2.48,0,0,0-2.218,0L269.48,270.5a.665.665,0,0,0,0,1.264l6.237,3.552A2.48,2.48,0,0,0,277.935,275.316ZM266.4,281.885l6.236-3.552a.665.665,0,0,0,0-1.264l-6.236-3.553a2.48,2.48,0,0,0-2.218,0l-6.237,3.553a.665.665,0,0,0,0,1.264l6.236,3.552A2.482,2.482,0,0,0,266.4,281.885Zm-11.531,6.569,6.236-3.552a.665.665,0,0,0,0-1.264l-6.236-3.553a2.48,2.48,0,0,0-2.218,0l-6.237,3.553a.665.665,0,0,0,0,1.264l6.236,3.552A2.482,2.482,0,0,0,254.873,288.454Zm-11.532,6.569,6.237-3.552a.665.665,0,0,0,0-1.264l-6.236-3.553a2.482,2.482,0,0,0-2.219,0l-6.236,3.553a.665.665,0,0,0,0,1.264l6.236,3.552A2.48,2.48,0,0,0,243.341,295.023Zm-11.531,6.569,6.237-3.552a.665.665,0,0,0,0-1.264l-6.237-3.553a2.48,2.48,0,0,0-2.218,0l-6.236,3.553a.664.664,0,0,0,0,1.264l6.236,3.552A2.48,2.48,0,0,0,231.81,301.592Zm-11.531,6.569,6.236-3.552a.664.664,0,0,0,0-1.264l-6.236-3.553a2.48,2.48,0,0,0-2.218,0l-6.236,3.553a.664.664,0,0,0,0,1.264l6.236,3.552A2.48,2.48,0,0,0,220.279,308.161Zm-11.531,6.569,6.236-3.552a.664.664,0,0,0,0-1.264l-6.236-3.553a2.48,2.48,0,0,0-2.218,0l-6.236,3.553a.664.664,0,0,0,0,1.264l6.236,3.552A2.48,2.48,0,0,0,208.748,314.73ZM197.217,321.3l6.236-3.552a.664.664,0,0,0,0-1.264l-6.236-3.553a2.48,2.48,0,0,0-2.218,0l-6.236,3.553a.664.664,0,0,0,0,1.264L195,321.3A2.48,2.48,0,0,0,197.217,321.3Zm-30.507,17.38,25.645-14.61a.665.665,0,0,0,0-1.264l-6.236-3.552a2.48,2.48,0,0,0-2.218,0l-25.646,14.609a.665.665,0,0,0,0,1.264l6.236,3.553A2.482,2.482,0,0,0,166.71,338.679Zm-36.454-29.136-2.017-1.149a2.48,2.48,0,0,0-2.218,0l-6.236,3.553a.664.664,0,0,0,0,1.263l2.016,1.149a2.48,2.48,0,0,0,2.218,0l6.237-3.553A.664.664,0,0,0,130.256,309.543Zm11.1-6.321-2.017-1.149a2.48,2.48,0,0,0-2.218,0l-6.236,3.553a.664.664,0,0,0,0,1.264l2.016,1.148a2.482,2.482,0,0,0,2.219,0l6.236-3.552A.665.665,0,0,0,141.351,303.222Zm11.1-6.32-2.017-1.149a2.48,2.48,0,0,0-2.218,0l-6.236,3.552a.664.664,0,0,0,0,1.264l2.016,1.149a2.482,2.482,0,0,0,2.219,0l6.236-3.553A.664.664,0,0,0,152.446,296.9Zm11.1-6.321-2.016-1.149a2.482,2.482,0,0,0-2.219,0l-6.236,3.553a.664.664,0,0,0,0,1.263l2.017,1.149a2.48,2.48,0,0,0,2.218,0l6.236-3.552A.664.664,0,0,0,163.541,290.581Zm11.1-6.321-2.016-1.148a2.48,2.48,0,0,0-2.218,0l-6.237,3.552a.665.665,0,0,0,0,1.264l2.017,1.149a2.48,2.48,0,0,0,2.218,0l6.236-3.553A.664.664,0,0,0,174.636,284.26Zm11.1-6.32-2.016-1.149a2.48,2.48,0,0,0-2.218,0l-6.237,3.553a.664.664,0,0,0,0,1.263l2.017,1.149a2.48,2.48,0,0,0,2.218,0l6.236-3.553A.664.664,0,0,0,185.731,277.94Zm11.1-6.321-2.016-1.149a2.48,2.48,0,0,0-2.218,0l-6.236,3.553a.664.664,0,0,0,0,1.264l2.016,1.148a2.48,2.48,0,0,0,2.218,0l6.236-3.552A.664.664,0,0,0,196.826,271.619Zm11.1-6.321-2.017-1.148a2.48,2.48,0,0,0-2.218,0l-6.236,3.552a.664.664,0,0,0,0,1.264l2.016,1.149a2.48,2.48,0,0,0,2.218,0l6.237-3.553A.665.665,0,0,0,207.922,265.3Zm11.1-6.32L217,257.829a2.48,2.48,0,0,0-2.218,0l-6.236,3.553a.664.664,0,0,0,0,1.263l2.016,1.149a2.48,2.48,0,0,0,2.218,0l6.237-3.553A.664.664,0,0,0,219.017,258.978Zm11.1-6.321-2.017-1.149a2.48,2.48,0,0,0-2.218,0l-6.236,3.553a.664.664,0,0,0,0,1.264l2.016,1.148a2.482,2.482,0,0,0,2.219,0l6.236-3.552A.665.665,0,0,0,230.112,252.657Zm11.1-6.321-2.017-1.148a2.48,2.48,0,0,0-2.218,0l-6.236,3.552a.664.664,0,0,0,0,1.264l2.016,1.149a2.482,2.482,0,0,0,2.219,0l6.236-3.553A.665.665,0,0,0,241.207,246.336Zm11.1-6.32-2.016-1.149a2.482,2.482,0,0,0-2.219,0l-6.236,3.553a.664.664,0,0,0,0,1.263l2.017,1.149a2.48,2.48,0,0,0,2.218,0l6.236-3.553A.664.664,0,0,0,252.3,240.016Zm11.1-6.321-2.016-1.149a2.48,2.48,0,0,0-2.218,0l-6.237,3.553a.665.665,0,0,0,0,1.264l2.017,1.149a2.487,2.487,0,0,0,2.218,0l6.236-3.553A.664.664,0,0,0,263.4,233.7Zm11.1-6.32-2.016-1.149a2.48,2.48,0,0,0-2.218,0l-6.237,3.552a.665.665,0,0,0,0,1.264l2.017,1.149a2.48,2.48,0,0,0,2.218,0l6.236-3.553A.664.664,0,0,0,274.492,227.375Zm1.375,60.015-6.236-3.552a2.48,2.48,0,0,0-2.218,0l-52.361,29.828a.665.665,0,0,0,0,1.264l6.236,3.553a2.489,2.489,0,0,0,2.219,0l52.36-29.829A.664.664,0,0,0,275.867,287.39Z"/><path class="cls-12" d="M140.928,315.807l-6.236,3.552a2.48,2.48,0,0,1-2.218,0l-6.236-3.552a.664.664,0,0,1,0-1.264l6.236-3.553a2.48,2.48,0,0,1,2.218,0l6.236,3.553A.664.664,0,0,1,140.928,315.807Zm11.531-7.833-6.236-3.553a2.48,2.48,0,0,0-2.218,0l-6.236,3.553a.664.664,0,0,0,0,1.264l6.236,3.552a2.48,2.48,0,0,0,2.218,0l6.236-3.552A.664.664,0,0,0,152.459,307.974Zm11.532-6.569-6.237-3.553a2.48,2.48,0,0,0-2.218,0L149.3,301.4a.664.664,0,0,0,0,1.264l6.236,3.552a2.48,2.48,0,0,0,2.218,0l6.237-3.552A.665.665,0,0,0,163.991,301.4Zm11.531-6.569-6.237-3.553a2.48,2.48,0,0,0-2.218,0l-6.236,3.553a.664.664,0,0,0,0,1.264l6.236,3.552a2.48,2.48,0,0,0,2.218,0l6.237-3.552A.665.665,0,0,0,175.522,294.836Zm11.531-6.569-6.236-3.553a2.482,2.482,0,0,0-2.219,0l-6.236,3.553a.665.665,0,0,0,0,1.264l6.236,3.552a2.48,2.48,0,0,0,2.218,0l6.237-3.552A.665.665,0,0,0,187.053,288.267Zm11.531-6.569-6.236-3.553a2.48,2.48,0,0,0-2.218,0l-6.237,3.553a.665.665,0,0,0,0,1.264l6.236,3.552a2.482,2.482,0,0,0,2.219,0l6.236-3.552A.665.665,0,0,0,198.584,281.7Zm11.531-6.569-6.236-3.553a2.48,2.48,0,0,0-2.218,0l-6.237,3.553a.665.665,0,0,0,0,1.264l6.237,3.552a2.48,2.48,0,0,0,2.218,0l6.236-3.553A.664.664,0,0,0,210.115,275.129Zm11.531-6.569-6.236-3.553a2.48,2.48,0,0,0-2.218,0l-6.237,3.553a.665.665,0,0,0,0,1.264l6.237,3.552a2.48,2.48,0,0,0,2.218,0l6.236-3.553A.664.664,0,0,0,221.646,268.56Zm11.531-6.569-6.236-3.553a2.48,2.48,0,0,0-2.218,0l-6.236,3.553a.664.664,0,0,0,0,1.264l6.236,3.552a2.48,2.48,0,0,0,2.218,0l6.236-3.553A.664.664,0,0,0,233.177,261.991Zm11.531-6.569-6.236-3.553a2.48,2.48,0,0,0-2.218,0l-6.236,3.553a.664.664,0,0,0,0,1.264l6.236,3.552a2.48,2.48,0,0,0,2.218,0l6.236-3.553A.664.664,0,0,0,244.708,255.422Zm11.531-6.569L250,245.3a2.48,2.48,0,0,0-2.218,0l-6.236,3.553a.664.664,0,0,0,0,1.264l6.236,3.552a2.48,2.48,0,0,0,2.218,0l6.236-3.553A.664.664,0,0,0,256.239,248.853Zm11.532-6.569-6.237-3.553a2.48,2.48,0,0,0-2.218,0l-6.236,3.553a.664.664,0,0,0,0,1.263l6.236,3.553a2.48,2.48,0,0,0,2.218,0l6.237-3.553A.664.664,0,0,0,267.771,242.284Zm17.394-9.909-6.236-3.553a2.482,2.482,0,0,0-2.219,0l-12.1,6.893a.664.664,0,0,0,0,1.263l6.236,3.553a2.48,2.48,0,0,0,2.218,0l12.1-6.893A.664.664,0,0,0,285.165,232.375ZM183.618,338.863l-6.236-3.553a2.48,2.48,0,0,0-2.218,0l-6.236,3.553a.664.664,0,0,0,0,1.263l6.236,3.553a2.48,2.48,0,0,0,2.218,0l6.236-3.553A.664.664,0,0,0,183.618,338.863Zm11.531-6.57-6.236-3.552a2.48,2.48,0,0,0-2.218,0l-6.236,3.553a.664.664,0,0,0,0,1.263l6.236,3.553a2.48,2.48,0,0,0,2.218,0l6.236-3.553A.664.664,0,0,0,195.149,332.293Zm11.532-6.569-6.237-3.552a2.48,2.48,0,0,0-2.218,0l-6.236,3.553a.664.664,0,0,0,0,1.263l6.236,3.553a2.48,2.48,0,0,0,2.218,0l6.237-3.553A.665.665,0,0,0,206.681,325.724Zm11.531-6.569-6.236-3.552a2.482,2.482,0,0,0-2.219,0l-6.236,3.553a.664.664,0,0,0,0,1.263l6.236,3.553a2.48,2.48,0,0,0,2.218,0l6.237-3.553A.665.665,0,0,0,218.212,319.155ZM287.4,279.741l-6.236-3.552a2.48,2.48,0,0,0-2.218,0l-6.236,3.552a.664.664,0,0,0,0,1.264l6.236,3.553a2.48,2.48,0,0,0,2.218,0l6.236-3.553A.664.664,0,0,0,287.4,279.741Zm11.532-6.569-6.237-3.552a2.48,2.48,0,0,0-2.218,0l-6.236,3.552a.664.664,0,0,0,0,1.264l6.236,3.553a2.48,2.48,0,0,0,2.218,0l6.237-3.553A.665.665,0,0,0,298.93,273.172Zm11.531-6.569-6.236-3.552a2.482,2.482,0,0,0-2.219,0L295.77,266.6a.665.665,0,0,0,0,1.264l6.236,3.553a2.48,2.48,0,0,0,2.218,0l6.237-3.553A.665.665,0,0,0,310.461,266.6Zm6.475-9.3-1.31-.746a2.48,2.48,0,0,0-2.218,0l-2.127,1.212a.664.664,0,0,0,0,1.264l1.309.746a2.48,2.48,0,0,0,2.218,0l2.128-1.212A.665.665,0,0,0,316.936,257.3Zm4.976,2.835-1.309-.746a2.482,2.482,0,0,0-2.219,0l-2.127,1.212a.664.664,0,0,0,0,1.264l1.309.746a2.48,2.48,0,0,0,2.218,0l2.128-1.212A.665.665,0,0,0,321.912,260.136Zm5.737-3.268-1.309-.746a2.482,2.482,0,0,0-2.219,0l-2.127,1.212a.664.664,0,0,0,0,1.264l1.309.745a2.48,2.48,0,0,0,2.218,0l2.128-1.212A.664.664,0,0,0,327.649,256.868ZM316.1,263.445l-1.309-.746a2.48,2.48,0,0,0-2.218,0l-2.128,1.212a.665.665,0,0,0,0,1.264l1.309.746a2.482,2.482,0,0,0,2.219,0l2.127-1.212A.664.664,0,0,0,316.1,263.445Zm-26.5-20.174,6.236-3.553a.664.664,0,0,0,0-1.263L289.6,234.9a2.48,2.48,0,0,0-2.218,0l-6.236,3.553a.664.664,0,0,0,0,1.263l6.236,3.553A2.48,2.48,0,0,0,289.6,243.271ZM278.07,249.84l6.236-3.553a.664.664,0,0,0,0-1.263l-6.236-3.553a2.48,2.48,0,0,0-2.218,0l-6.236,3.553a.664.664,0,0,0,0,1.263l6.236,3.553A2.48,2.48,0,0,0,278.07,249.84Zm-11.531,6.569,6.236-3.553a.664.664,0,0,0,0-1.263l-6.236-3.553a2.48,2.48,0,0,0-2.218,0l-6.237,3.553a.664.664,0,0,0,0,1.263l6.237,3.553A2.48,2.48,0,0,0,266.539,256.409Zm-11.531,6.569,6.236-3.553a.664.664,0,0,0,0-1.263l-6.236-3.553a2.48,2.48,0,0,0-2.218,0l-6.237,3.553a.664.664,0,0,0,0,1.263l6.237,3.553A2.48,2.48,0,0,0,255.008,262.978Zm-11.531,6.569,6.236-3.553a.664.664,0,0,0,0-1.263l-6.236-3.553a2.48,2.48,0,0,0-2.218,0l-6.237,3.553a.664.664,0,0,0,0,1.263l6.236,3.553A2.482,2.482,0,0,0,243.477,269.547Zm-11.532,6.569,6.237-3.553a.664.664,0,0,0,0-1.263l-6.236-3.553a2.482,2.482,0,0,0-2.219,0l-6.236,3.553a.664.664,0,0,0,0,1.263l6.236,3.553A2.48,2.48,0,0,0,231.945,276.116Zm-11.531,6.569,6.237-3.553a.664.664,0,0,0,0-1.263l-6.237-3.553a2.48,2.48,0,0,0-2.218,0l-6.236,3.553a.664.664,0,0,0,0,1.263l6.236,3.553A2.48,2.48,0,0,0,220.414,282.685Zm-11.531,6.569,6.236-3.553a.664.664,0,0,0,0-1.263l-6.236-3.553a2.48,2.48,0,0,0-2.218,0l-6.236,3.553a.664.664,0,0,0,0,1.263l6.236,3.553A2.48,2.48,0,0,0,208.883,289.254Zm-11.531,6.569,6.236-3.553a.664.664,0,0,0,0-1.263l-6.236-3.553a2.48,2.48,0,0,0-2.218,0l-6.236,3.553a.664.664,0,0,0,0,1.263l6.236,3.553A2.48,2.48,0,0,0,197.352,295.823Zm-11.531,6.569,6.236-3.553a.664.664,0,0,0,0-1.263l-6.236-3.553a2.48,2.48,0,0,0-2.218,0l-6.236,3.553a.664.664,0,0,0,0,1.263l6.236,3.553A2.48,2.48,0,0,0,185.821,302.392Zm-11.531,6.569,6.236-3.553a.664.664,0,0,0,0-1.263l-6.236-3.553a2.48,2.48,0,0,0-2.218,0l-6.237,3.553a.664.664,0,0,0,0,1.263l6.237,3.553A2.48,2.48,0,0,0,174.29,308.961Zm-11.531,6.569L169,311.977a.664.664,0,0,0,0-1.263l-6.236-3.553a2.48,2.48,0,0,0-2.218,0l-6.237,3.553a.664.664,0,0,0,0,1.263l6.237,3.553A2.48,2.48,0,0,0,162.759,315.53Zm-17.395,9.909,12.1-6.893a.664.664,0,0,0,0-1.263l-6.236-3.553a2.48,2.48,0,0,0-2.218,0l-12.1,6.893a.665.665,0,0,0,0,1.264l6.236,3.552A2.48,2.48,0,0,0,145.364,325.439ZM284.353,258.42,306.51,245.8a.665.665,0,0,0,0-1.264l-6.236-3.552a2.48,2.48,0,0,0-2.218,0L275.9,253.6a.664.664,0,0,0,0,1.264l6.236,3.552A2.48,2.48,0,0,0,284.353,258.42Zm-11.477,6.539,6.236-3.553a.664.664,0,0,0,0-1.264l-6.236-3.552a2.48,2.48,0,0,0-2.218,0l-6.237,3.552a.665.665,0,0,0,0,1.264l6.237,3.553A2.48,2.48,0,0,0,272.876,264.959Zm-11.531,6.569,6.236-3.553a.665.665,0,0,0,0-1.264l-6.236-3.552a2.48,2.48,0,0,0-2.218,0l-6.237,3.553a.664.664,0,0,0,0,1.263l6.236,3.553A2.482,2.482,0,0,0,261.345,271.528ZM249.813,278.1l6.237-3.553a.665.665,0,0,0,0-1.264l-6.236-3.552a2.482,2.482,0,0,0-2.219,0l-6.236,3.553a.664.664,0,0,0,0,1.263L247.6,278.1A2.48,2.48,0,0,0,249.813,278.1Zm-11.531,6.569,6.237-3.553a.665.665,0,0,0,0-1.264l-6.237-3.552a2.48,2.48,0,0,0-2.218,0l-6.236,3.553a.664.664,0,0,0,0,1.263l6.236,3.553A2.48,2.48,0,0,0,238.282,284.666Zm-11.531,6.569,6.236-3.553a.664.664,0,0,0,0-1.264l-6.236-3.552a2.48,2.48,0,0,0-2.218,0l-6.236,3.553a.664.664,0,0,0,0,1.263l6.236,3.553A2.48,2.48,0,0,0,226.751,291.235ZM215.22,297.8l6.236-3.553a.664.664,0,0,0,0-1.264l-6.236-3.552a2.48,2.48,0,0,0-2.218,0l-6.236,3.553a.664.664,0,0,0,0,1.263L213,297.8A2.48,2.48,0,0,0,215.22,297.8Zm-11.531,6.569,6.236-3.553a.664.664,0,0,0,0-1.263L203.689,296a2.48,2.48,0,0,0-2.218,0l-6.236,3.553a.664.664,0,0,0,0,1.263l6.236,3.553A2.48,2.48,0,0,0,203.689,304.373Zm-11.531,6.569,6.236-3.553a.664.664,0,0,0,0-1.263l-6.236-3.553a2.48,2.48,0,0,0-2.218,0l-6.237,3.553a.664.664,0,0,0,0,1.263l6.237,3.553A2.48,2.48,0,0,0,192.158,310.942Zm-11.531,6.569,6.236-3.553a.664.664,0,0,0,0-1.263l-6.236-3.553a2.48,2.48,0,0,0-2.218,0l-6.237,3.553a.664.664,0,0,0,0,1.263l6.237,3.553A2.48,2.48,0,0,0,180.627,317.511Zm-24.59,14.008,19.4-11.054a.664.664,0,0,0,0-1.263l-6.236-3.553a2.48,2.48,0,0,0-2.218,0l-19.4,11.054a.664.664,0,0,0,0,1.263l6.236,3.553A2.48,2.48,0,0,0,156.037,331.519ZM290.2,267.248l26.98-15.37a.664.664,0,0,0,0-1.264l-6.236-3.552a2.48,2.48,0,0,0-2.218,0l-26.98,15.37a.664.664,0,0,0,0,1.264l6.236,3.552A2.48,2.48,0,0,0,290.2,267.248Zm-12.267,6.988,6.236-3.552a.664.664,0,0,0,0-1.264l-6.236-3.552a2.48,2.48,0,0,0-2.218,0l-6.237,3.552a.665.665,0,0,0,0,1.264l6.237,3.552A2.48,2.48,0,0,0,277.935,274.236ZM266.4,280.805l6.236-3.552a.665.665,0,0,0,0-1.264l-6.236-3.552a2.48,2.48,0,0,0-2.218,0l-6.237,3.552a.665.665,0,0,0,0,1.264l6.236,3.552A2.482,2.482,0,0,0,266.4,280.805Zm-11.531,6.569,6.236-3.552a.665.665,0,0,0,0-1.264l-6.236-3.552a2.48,2.48,0,0,0-2.218,0l-6.237,3.552a.665.665,0,0,0,0,1.264l6.236,3.552A2.482,2.482,0,0,0,254.873,287.374Zm-11.532,6.57,6.237-3.553a.665.665,0,0,0,0-1.264l-6.236-3.552a2.482,2.482,0,0,0-2.219,0l-6.236,3.552a.665.665,0,0,0,0,1.264l6.236,3.553A2.487,2.487,0,0,0,243.341,293.944Zm-11.531,6.569,6.237-3.553a.665.665,0,0,0,0-1.264l-6.237-3.552a2.48,2.48,0,0,0-2.218,0l-6.236,3.552a.664.664,0,0,0,0,1.264l6.236,3.553A2.487,2.487,0,0,0,231.81,300.513Zm-11.531,6.569,6.236-3.553a.664.664,0,0,0,0-1.264l-6.236-3.552a2.48,2.48,0,0,0-2.218,0l-6.236,3.552a.664.664,0,0,0,0,1.264l6.236,3.553A2.487,2.487,0,0,0,220.279,307.082Zm-11.531,6.569,6.236-3.553a.664.664,0,0,0,0-1.264l-6.236-3.552a2.48,2.48,0,0,0-2.218,0l-6.236,3.552a.664.664,0,0,0,0,1.264l6.236,3.553A2.48,2.48,0,0,0,208.748,313.651Zm-11.531,6.569,6.236-3.553a.664.664,0,0,0,0-1.264l-6.236-3.552a2.48,2.48,0,0,0-2.218,0l-6.236,3.552a.664.664,0,0,0,0,1.264L195,320.22A2.48,2.48,0,0,0,197.217,320.22ZM166.71,337.6l25.645-14.61a.664.664,0,0,0,0-1.263l-6.236-3.553a2.48,2.48,0,0,0-2.218,0l-25.646,14.61a.664.664,0,0,0,0,1.263l6.236,3.553A2.482,2.482,0,0,0,166.71,337.6Zm-36.454-29.136-2.017-1.149a2.48,2.48,0,0,0-2.218,0l-6.236,3.553a.664.664,0,0,0,0,1.264l2.016,1.148a2.48,2.48,0,0,0,2.218,0l6.237-3.552A.665.665,0,0,0,130.256,308.463Zm11.1-6.321-2.017-1.148a2.48,2.48,0,0,0-2.218,0l-6.236,3.552a.664.664,0,0,0,0,1.264l2.016,1.149a2.482,2.482,0,0,0,2.219,0l6.236-3.553A.665.665,0,0,0,141.351,302.142Zm11.1-6.32-2.017-1.149a2.48,2.48,0,0,0-2.218,0l-6.236,3.553a.664.664,0,0,0,0,1.263l2.016,1.149a2.482,2.482,0,0,0,2.219,0l6.236-3.553A.664.664,0,0,0,152.446,295.822Zm11.1-6.321-2.016-1.149a2.482,2.482,0,0,0-2.219,0L153.07,291.9a.665.665,0,0,0,0,1.264l2.017,1.148a2.48,2.48,0,0,0,2.218,0l6.236-3.552A.664.664,0,0,0,163.541,289.5Zm11.1-6.32-2.016-1.149a2.48,2.48,0,0,0-2.218,0l-6.237,3.552a.665.665,0,0,0,0,1.264L166.182,288a2.48,2.48,0,0,0,2.218,0l6.236-3.553A.664.664,0,0,0,174.636,283.181Zm11.1-6.321-2.016-1.149a2.48,2.48,0,0,0-2.218,0l-6.237,3.553a.664.664,0,0,0,0,1.263l2.017,1.149a2.48,2.48,0,0,0,2.218,0l6.236-3.552A.664.664,0,0,0,185.731,276.86Zm11.1-6.321-2.016-1.148a2.48,2.48,0,0,0-2.218,0l-6.236,3.552a.664.664,0,0,0,0,1.264l2.016,1.149a2.48,2.48,0,0,0,2.218,0l6.236-3.553A.664.664,0,0,0,196.826,270.539Zm11.1-6.32-2.017-1.149a2.48,2.48,0,0,0-2.218,0l-6.236,3.553a.664.664,0,0,0,0,1.263l2.016,1.149a2.48,2.48,0,0,0,2.218,0l6.237-3.553A.664.664,0,0,0,207.922,264.219Zm11.1-6.321L217,256.749a2.48,2.48,0,0,0-2.218,0l-6.236,3.553a.664.664,0,0,0,0,1.264l2.016,1.148a2.48,2.48,0,0,0,2.218,0l6.237-3.552A.665.665,0,0,0,219.017,257.9Zm11.1-6.321-2.017-1.148a2.48,2.48,0,0,0-2.218,0l-6.236,3.552a.664.664,0,0,0,0,1.264l2.016,1.149a2.482,2.482,0,0,0,2.219,0l6.236-3.553A.665.665,0,0,0,230.112,251.577Zm11.1-6.32-2.017-1.149a2.48,2.48,0,0,0-2.218,0l-6.236,3.553a.664.664,0,0,0,0,1.263l2.016,1.149a2.482,2.482,0,0,0,2.219,0l6.236-3.553A.664.664,0,0,0,241.207,245.257Zm11.1-6.321-2.016-1.149a2.482,2.482,0,0,0-2.219,0l-6.236,3.553a.665.665,0,0,0,0,1.264l2.017,1.148a2.48,2.48,0,0,0,2.218,0L252.3,240.2A.664.664,0,0,0,252.3,238.936Zm11.1-6.321-2.016-1.148a2.48,2.48,0,0,0-2.218,0l-6.237,3.552a.665.665,0,0,0,0,1.264l2.017,1.149a2.48,2.48,0,0,0,2.218,0l6.236-3.553A.664.664,0,0,0,263.4,232.615Zm11.1-6.32-2.016-1.149a2.48,2.48,0,0,0-2.218,0l-6.237,3.553a.664.664,0,0,0,0,1.263l2.017,1.149a2.48,2.48,0,0,0,2.218,0l6.236-3.553A.664.664,0,0,0,274.492,226.3Zm1.375,60.015-6.236-3.552a2.48,2.48,0,0,0-2.218,0l-52.361,29.829a.664.664,0,0,0,0,1.263l6.236,3.553a2.482,2.482,0,0,0,2.219,0l52.36-29.829A.664.664,0,0,0,275.867,286.31Z"/><path class="cls-13" d="M294.236,225.964c1.648.812,3.261,1.684,4.893,2.525l4.835,2.623c3.223,1.75,6.4,3.574,9.584,5.4,3.167,1.846,6.333,3.7,9.457,5.616l4.684,2.885c1.541,1,3.1,1.96,4.626,2.985-1.648-.811-3.261-1.684-4.893-2.523l-4.836-2.623c-3.222-1.751-6.4-3.574-9.582-5.4-3.167-1.848-6.333-3.7-9.457-5.618l-4.684-2.885C297.322,227.952,295.761,226.988,294.236,225.964Z"/><path class="cls-14" d="M111.676,326.356c1.647.812,3.261,1.684,4.892,2.524L121.4,331.5c3.223,1.75,6.4,3.574,9.583,5.4,3.167,1.847,6.333,3.695,9.457,5.617l4.684,2.885c1.542,1,3.1,1.96,4.627,2.984-1.649-.811-3.262-1.683-4.893-2.523l-4.836-2.623c-3.223-1.75-6.4-3.574-9.583-5.4-3.166-1.848-6.333-3.7-9.456-5.618l-4.684-2.885C114.761,328.343,113.2,327.38,111.676,326.356Z"/><path class="cls-15" d="M79.607,180.415,271.148,71.78a2.054,2.054,0,0,1,3.076,1.763l-.446,130.741a2.018,2.018,0,0,1-1.023,1.745L81.659,315.263a2.053,2.053,0,0,1-3.082-1.753V182.171A2.021,2.021,0,0,1,79.607,180.415Z"/><g id="logo"><path class="cls-16" d="M221.694,156.458,156.87,193.884a11.783,11.783,0,0,0-5.335,9.241l.046,16.4c.01,3.389,2.421,4.763,5.37,3.06l64.824-37.426a11.783,11.783,0,0,0,5.335-9.24l-.047-16.4c-.009-3.388-2.42-4.762-5.369-3.06"/><path class="cls-17" d="M170.957,196.883a6.428,6.428,0,0,0-2.918,5.049c.005,1.857,1.321,2.607,2.937,1.673a6.432,6.432,0,0,0,2.913-5.051c-.005-1.851-1.321-2.6-2.932-1.671m44.094-25.494-.274.157a.553.553,0,0,0-.24.342l-.693,3.308c-.042.2.076.314.242.218l1.675-.967a.512.512,0,0,0,.24-.5l-.714-2.5c-.028-.108-.124-.132-.236-.067m-22.067,19.357c1-.579,1.773-1.305,1.357-2.059-.286-.722-2.123-.013-2.788.014-1.185.049-1.986-.93-1.386-2.761a6.015,6.015,0,0,1,2.724-3.316,4.459,4.459,0,0,1,2.739-.676c.123.015.145.187.06.372l-.474,1.019a.521.521,0,0,1-.2.228.234.234,0,0,1-.13.035,3.137,3.137,0,0,0-1.756.471,4.238,4.238,0,0,0-.605.424c-.706.592-1.459,1.711-.879,2.22.366.325,1.3-.065,1.817-.119.713-.073,1.522-.2,1.99.274,1.038,1.04-.069,3.829-1.647,5.122a6.524,6.524,0,0,1-.892.617,5.212,5.212,0,0,1-3.3.788c-.118-.018-.14-.184-.06-.36l.378-.84a.557.557,0,0,1,.206-.243.287.287,0,0,1,.051-.023,15.429,15.429,0,0,0,2.794-1.187M159.31,203.663c-.139.08-.246.019-.247-.141l0-1.138a.529.529,0,0,1,.245-.425l2.623-1.514c1.434-.828,2.717-.367,2.861,1.188a5.941,5.941,0,0,1-2.72,5.051l-1.188.686a.551.551,0,0,0-.246.425l.009,3.2a.539.539,0,0,1-.245.425l-.99.571c-.139.081-.252.022-.253-.137l-.013-4.908a.551.551,0,0,1,.25-.429l2.6-1.5a2.911,2.911,0,0,0,1.324-2.064c.072-.905-.518-1.3-1.257-.876l-2.746,1.585m18.517-2.306c-.14.08-.247.019-.247-.141l-.027-9.515a.529.529,0,0,1,.245-.425l.99-.571c.139-.081.247-.02.247.14l.022,7.805c0,.16.114.224.253.144l3.259-1.882c.14-.08.252-.022.253.138l0,1.138a.545.545,0,0,1-.251.428l-4.747,2.741m7.878-4.549c-.133.077-.246.019-.247-.141l-.027-9.515a.543.543,0,0,1,.246-.425l.99-.571c.139-.081.252-.023.252.137l.027,9.515a.538.538,0,0,1-.25.428l-.991.572m20.85-13.642a3.767,3.767,0,0,0,1.712-2.957l-.018-6.23a.53.53,0,0,1,.245-.425l.991-.572c.139-.08.252-.022.252.138l.018,6.23a7.038,7.038,0,0,1-3.19,5.52,4,4,0,0,1-.424.213c-1.611.69-2.783-.3-2.788-2.172l-.017-6.095a.541.541,0,0,1,.25-.429l.99-.571c.134-.078.247-.019.247.14l.018,6.182c0,.934.562,1.468,1.36,1.192a2.087,2.087,0,0,0,.354-.164m-35.574,22.143c-2.436,1.406-4.417.277-4.425-2.521a9.7,9.7,0,0,1,4.4-7.615c2.43-1.4,4.417-.27,4.425,2.522a9.7,9.7,0,0,1-4.4,7.614M211,182.206l2.434-11.391a.523.523,0,0,1,.235-.339l2.489-1.437c.107-.062.2-.037.236.067l2.4,8.238a.508.508,0,0,1-.234.5l-1.028.593c-.112.065-.209.041-.242-.064l-.714-2.47c-.033-.1-.129-.135-.242-.07l-2.8,1.616a.563.563,0,0,0-.24.348l-.7,3.29a.526.526,0,0,1-.235.339l-1.354.781m10.7-25.065-64.824,37.426a10.451,10.451,0,0,0-4.743,8.215l.046,16.4c.009,3.02,2.146,4.238,4.774,2.72l64.824-37.425a10.457,10.457,0,0,0,4.743-8.215l-.047-16.4c-.008-3.019-2.145-4.237-4.773-2.72"/><path class="cls-18" d="M192.891,182.624a6.015,6.015,0,0,0-2.724,3.316c-.6,1.831.2,2.81,1.386,2.761.665-.027,2.5-.736,2.788-.014.416.754-.356,1.48-1.357,2.059a15.429,15.429,0,0,1-2.794,1.187.287.287,0,0,0-.051.023.557.557,0,0,0-.206.243l-.378.84c-.08.176-.058.342.06.36a5.212,5.212,0,0,0,3.3-.788,6.524,6.524,0,0,0,.892-.617c1.578-1.293,2.685-4.082,1.647-5.122-.468-.475-1.277-.347-1.99-.274-.52.054-1.451.444-1.817.119-.58-.509.173-1.628.879-2.22a4.238,4.238,0,0,1,.605-.424,3.137,3.137,0,0,1,1.756-.471.234.234,0,0,0,.13-.035.521.521,0,0,0,.2-.228l.474-1.019c.085-.185.063-.357-.06-.372a4.459,4.459,0,0,0-2.739.676m-30.963,17.821-2.623,1.514a.529.529,0,0,0-.245.425l0,1.138c0,.16.108.221.247.141l2.746-1.585c.739-.427,1.329-.029,1.257.876a2.911,2.911,0,0,1-1.324,2.064l-2.6,1.5a.551.551,0,0,0-.25.429l.013,4.908c0,.159.114.218.253.137l.99-.571a.539.539,0,0,0,.245-.425l-.009-3.2a.551.551,0,0,1,.246-.425l1.188-.686a5.941,5.941,0,0,0,2.72-5.051c-.144-1.555-1.427-2.016-2.861-1.188m16.86-9.74-.99.571a.529.529,0,0,0-.245.425l.027,9.515c0,.16.107.221.247.141l4.747-2.741a.545.545,0,0,0,.251-.428l0-1.138c0-.16-.113-.218-.253-.138l-3.259,1.882c-.139.08-.252.016-.253-.144l-.022-7.805c0-.16-.108-.221-.247-.14m7.879-4.549-.99.571a.543.543,0,0,0-.246.425l.027,9.515c0,.16.114.218.247.141l.991-.572a.538.538,0,0,0,.25-.428l-.027-9.515c0-.16-.113-.218-.252-.137m-15.691,17.449c-1.616.934-2.932.184-2.937-1.673a6.428,6.428,0,0,1,2.918-5.049c1.611-.93,2.927-.18,2.932,1.671a6.432,6.432,0,0,1-2.913,5.051m-.024-8.432a9.7,9.7,0,0,0-4.4,7.615c.008,2.8,1.989,3.927,4.425,2.521a9.7,9.7,0,0,0,4.4-7.614c-.008-2.792-2-3.925-4.425-2.522"/><path class="cls-19" d="M209.485,172.982c.139-.08.252-.022.252.138l.018,6.23a7.038,7.038,0,0,1-3.19,5.52,4,4,0,0,1-.424.213c-1.611.69-2.783-.3-2.788-2.172l-.017-6.095a.541.541,0,0,1,.25-.429l.99-.571c.134-.078.247-.019.247.14l.018,6.182c0,.934.562,1.468,1.36,1.192a2.087,2.087,0,0,0,.354-.164,3.767,3.767,0,0,0,1.712-2.957l-.018-6.23a.53.53,0,0,1,.245-.425l.991-.572m4.6,2.432,1.675-.967a.512.512,0,0,0,.24-.5l-.714-2.5c-.028-.108-.124-.132-.236-.067l-.274.157a.553.553,0,0,0-.24.342l-.693,3.308c-.042.2.076.314.242.218m2.068-6.375c.107-.062.2-.037.236.067l2.4,8.238a.508.508,0,0,1-.234.5l-1.028.593c-.112.065-.209.041-.242-.064l-.714-2.47c-.033-.1-.129-.135-.242-.07l-2.8,1.616a.563.563,0,0,0-.24.348l-.7,3.29a.526.526,0,0,1-.235.339l-1.354.781,2.434-11.391a.523.523,0,0,1,.235-.339l2.489-1.437"/></g><g id="screenSplit"><path class="cls-20" d="M144.106,180.415,335.648,71.78a2.053,2.053,0,0,1,3.075,1.763l-.446,130.741a2.018,2.018,0,0,1-1.023,1.745l-191.1,109.234a2.053,2.053,0,0,1-3.082-1.753V182.171A2.021,2.021,0,0,1,144.106,180.415Z"/><g class="cls-21"><path class="cls-22" d="M143.076,257.75l-.264-30.221-.152-30.222-.053-15.11a2.5,2.5,0,0,1,.989-2.011c.345-.243.579-.345.863-.516l.821-.467,3.283-1.869,6.566-3.738,26.263-14.952,52.637-29.71,26.363-14.778,26.419-14.678-26.156,15.141-26.213,15.042-52.514,29.927-26.312,14.867-6.578,3.716-3.289,1.859-.822.464c-.257.151-.594.322-.762.446a1.555,1.555,0,0,0-.62,1.257l-.053,15.11-.151,30.222Z"/></g><path class="cls-23" d="M251.52,180.787l-8.76,5.057a10.807,10.807,0,0,0-4.906,8.5l.04,14.086c.008,3.126,2.218,4.385,4.938,2.815l8.76-5.058a10.806,10.806,0,0,0,4.9-8.494l-.04-14.086c-.009-3.126-2.219-4.385-4.932-2.818m-8.75,8.322,8.759-5.058A1.472,1.472,0,0,1,253,183.9a1.439,1.439,0,0,1,.617,1.341l.04,14.086a4.178,4.178,0,0,1-.608,2.049,4.3,4.3,0,0,1-1.466,1.552l-8.76,5.057a1.5,1.5,0,0,1-1.477.148,1.461,1.461,0,0,1-.611-1.345L240.7,192.7a4.542,4.542,0,0,1,2.075-3.593m13.981-17.39L248,176.772a3.116,3.116,0,0,0-1.413,2.455c0,.9.637,1.264,1.422.81l8.753-5.054a1.482,1.482,0,0,1,1.477-.154,1.438,1.438,0,0,1,.618,1.341l.04,14.086c0,.9.637,1.271,1.422.817a3.12,3.12,0,0,0,1.413-2.454l-.04-14.086c-.009-3.125-2.219-4.385-4.939-2.814"/></g><path class="cls-8" d="M136.611,140.752c2.561-1.589,5.157-3.117,7.734-4.677l7.79-4.577c5.2-3.042,10.447-6,15.668-9,5.264-2.927,10.5-5.9,15.791-8.783l7.939-4.314c2.666-1.4,5.314-2.84,8-4.214-2.561,1.589-5.156,3.117-7.733,4.678l-7.791,4.578c-5.2,3.039-10.445,6-15.668,9-5.265,2.925-10.5,5.9-15.792,8.782l-7.939,4.315C141.94,137.941,139.293,139.377,136.611,140.752Z"/></g></svg>