<svg xmlns="http://www.w3.org/2000/svg" width="90" height="32.1" viewBox="0 0 90 32.1"><defs><style>.a{fill:#ed1c24;}.a,.b{fill-rule:evenodd;}.b{fill:#f8951d;}</style></defs><path class="a" d="M87.4,12.3a.52.52,0,0,0-.2-.4.6.6,0,0,0-.4-.1h-.6v1.6h.3v-.6h.3l.2.6h.4l-.3-.7A.536.536,0,0,0,87.4,12.3Zm-.5.1h-.4V12h.4c.1,0,.1.1.1.2S87,12.4,86.9,12.4Z"/><path class="a" d="M86.8,10.8a1.8,1.8,0,1,0,1.7,1.8A1.774,1.774,0,0,0,86.8,10.8Zm0,3.1a1.347,1.347,0,0,1-1.3-1.4,1.415,1.415,0,0,1,1.3-1.4,1.4,1.4,0,0,1,0,2.8Z"/><path class="a" d="M54.2,8.2c0-3.1,1.5-5.2,3.6-5.2a5.289,5.289,0,0,1,2.5.7l.5-3a3.63,3.63,0,0,1-.7-.3L59,.1A5.283,5.283,0,0,0,57.7,0c-3.8,0-6.4,3.5-6.4,8.5,0,3.7,1.9,6,5,6a8.082,8.082,0,0,0,2.5-.4l.5-3.2a4.946,4.946,0,0,1-2.4.7C55.2,11.6,54.2,10.3,54.2,8.2Z"/><path class="a" d="M51.4,2.8h-.3c-.9,0-1.5.5-2.3,1.8l.3-1.7H46.5L44.8,14.2h2.8c1-6.9,1.3-8.1,2.6-8.1h.2a27.064,27.064,0,0,1,1-3.3Z"/><path class="a" d="M33.9,5.6h1.4l.4-2.8H34.2l.3-1.7H31.7L30.5,8.8l-.1.9-.2,1.1a3.751,3.751,0,0,0-.1,1c0,1.6.8,2.5,2.2,2.5a4.767,4.767,0,0,0,2-.4l.4-2.5a1.719,1.719,0,0,1-.8.1c-.7,0-1-.3-1-.8v-.5Z"/><path class="a" d="M23.3,6.5a3.53,3.53,0,0,0,2.1,3.2c1.1.6,1.3.7,1.3,1.2,0,.7-.5,1-1.6,1a5.869,5.869,0,0,1-2.5-.5L22.2,14h.1l.5.1c.2,0,.4.1.7.1a10.364,10.364,0,0,0,1.6.1c3,0,4.3-1.2,4.3-3.8a3.248,3.248,0,0,0-2-3.2c-1.2-.6-1.3-.7-1.3-1.2,0-.6.5-.9,1.4-.9a15.029,15.029,0,0,1,2,.2L30,2.9a21.052,21.052,0,0,0-2.5-.2C24.4,2.6,23.3,4.4,23.3,6.5Z"/><path class="a" d="M82.8.3l-.6,4a3.069,3.069,0,0,0-2.7-1.5C77,2.8,74.9,6,74.9,9.7c0,2.8,1.4,4.7,3.4,4.7a3.307,3.307,0,0,0,2.6-1.3l-.1,1.1h2.7L85.7.3H82.8ZM79.2,11.5c-1,0-1.5-.7-1.5-2.2,0-2.2.9-3.8,2.2-3.8,1,0,1.5.8,1.5,2.2C81.5,10,80.6,11.5,79.2,11.5Z"/><path class="a" d="M40.7,2.6c-2.9,0-5,2.9-5,6.8,0,3.3,1.7,5.1,4.8,5.1a7.4,7.4,0,0,0,2.9-.5l.5-2.8a6.19,6.19,0,0,1-2.9.7c-1.6,0-2.5-.7-2.5-2V9.5h5.6a10.439,10.439,0,0,0,.4-2.8C44.5,4.2,43,2.6,40.7,2.6Zm1.2,4.6H38.8c.3-1.3.9-2,1.8-2,.8,0,1.3.5,1.3,1.5Z"/><path class="a" d="M9.7.3,7,8.9,6.8.3h-4L.5,14.2H3.2L4.9,3.6l.2,10.6h2L10.7,3.5,9.1,14.2h2.8L14.1.3Z"/><path class="a" d="M18.6,2.6a11.617,11.617,0,0,0-3.4.6l-.4,2.5.2-.1.4-.1a8.751,8.751,0,0,1,2.4-.3c1.3,0,1.8.3,1.8,1a1.952,1.952,0,0,1-.1.7,4.484,4.484,0,0,1-1.1.1c-3.1,0-5,1.6-5,4.4,0,1.8,1.1,3.1,2.6,3.1a3.365,3.365,0,0,0,3-1.4l-.1,1.2h2.3v-.7l.1-.6.1-.7.6-4a11.879,11.879,0,0,0,.2-2.2C22.4,3.8,21.1,2.6,18.6,2.6ZM17.2,12c-.6,0-1-.4-1-1.2,0-1.1.8-1.7,2.4-1.7h.6C19.2,10.8,18.3,12,17.2,12Z"/><path class="a" d="M65.1,2.6a12.186,12.186,0,0,0-3.4.6l-.4,2.5.2-.1H62a8.26,8.26,0,0,1,2.4-.3c1.3,0,1.8.3,1.8,1a1.952,1.952,0,0,1-.1.7H64.9c-3.1,0-5,1.6-5,4.4,0,1.8,1.1,3.1,2.6,3.1a3.365,3.365,0,0,0,3-1.4l-.1,1.2h2.4V14l.1-.4L68,13l.1-.7.6-4a11.879,11.879,0,0,0,.2-2.2C68.9,3.8,67.6,2.6,65.1,2.6ZM63.7,12c-.6,0-1-.4-1-1.2,0-1.1.8-1.7,2.4-1.7h.6C65.7,10.8,64.9,12,63.7,12Z"/><path class="a" d="M75.7,2.8h-.3c-.9,0-1.5.5-2.3,1.8l.3-1.7H70.8L69,14.2h2.8c1-6.9,1.3-8.1,2.6-8.1h.2a25.274,25.274,0,0,1,1.1-3.3Z"/><path class="b" d="M62.5,20.2c-3,0-5,2.7-5,6.7,0,2.8,1.2,5.2,4.1,5.2s5-2.1,5-6.8C66.6,22.4,65.2,20.2,62.5,20.2Zm-.7,9.1c-.9,0-1.5-1-1.5-2.5,0-1.8.8-3.8,2.1-3.8,1,0,1.4,1.1,1.4,2.3C63.8,27.7,63,29.3,61.8,29.3Z"/><path class="b" d="M52.3,25.6c0-3.1,1.4-5.2,3.4-5.2a4.5,4.5,0,0,1,2.4.8l.4-3a3.287,3.287,0,0,1-.6-.3l-1.1-.3a4.121,4.121,0,0,0-1.2-.1c-3.5,0-6,3.5-6,8.5,0,3.7,1.8,6,4.6,6a6.958,6.958,0,0,0,2.3-.4l.5-3.2a4.616,4.616,0,0,1-2.3.7C53.2,29,52.3,27.7,52.3,25.6Z"/><path class="b" d="M40.9,20.2h-.3c-.9,0-1.4.5-2.2,1.8l.2-1.7H36.2L34.6,31.6h2.6c1-6.9,1.2-8.1,2.5-8.1h.2c.3-1.3.7-2.3,1-3.3Z"/><path class="b" d="M74.9,17.6l-.6,4A2.886,2.886,0,0,0,71.8,20c-2.3,0-4.3,3.2-4.3,6.9,0,2.8,1.3,4.7,3.2,4.7a3.128,3.128,0,0,0,2.5-1.3L73,31.5h2.5l2-13.9ZM71.6,28.9c-.9,0-1.4-.7-1.4-2.2,0-2.2.9-3.8,2.1-3.8.9,0,1.4.8,1.4,2.2C73.7,27.3,72.8,28.9,71.6,28.9Z"/><path class="b" d="M13.5,20.1c-2.7,0-4.6,2.9-4.6,6.7,0,3.3,1.5,5.1,4.5,5.1a6.461,6.461,0,0,0,2.7-.5l.4-2.8a5.443,5.443,0,0,1-2.7.7c-1.5,0-2.3-.7-2.3-2v-.4h5.3a15.755,15.755,0,0,0,.3-2.8C17.1,21.7,15.7,20.1,13.5,20.1Zm1.1,4.6H11.7c.2-1.3.8-2,1.7-2,.8,0,1.3.5,1.3,1.5A.749.749,0,0,0,14.6,24.7Z"/><path class="b" d="M45,20.1c-2.7,0-4.6,2.9-4.6,6.7,0,3.3,1.5,5.1,4.5,5.1a6.461,6.461,0,0,0,2.7-.5l.4-2.8a5.547,5.547,0,0,1-2.8.7c-1.5,0-2.3-.7-2.3-2v-.4h5.3a15.755,15.755,0,0,0,.3-2.8C48.6,21.7,47.2,20.1,45,20.1Zm1.1,4.6H43.2c.2-1.3.8-2,1.7-2,.8,0,1.3.5,1.3,1.5A.749.749,0,0,0,46.1,24.7Z"/><path class="b" d="M81.9,20.1c-2.7,0-4.6,2.9-4.6,6.7,0,3.3,1.5,5.1,4.5,5.1a6.461,6.461,0,0,0,2.7-.5l.4-2.8a5.547,5.547,0,0,1-2.8.7c-1.5,0-2.3-.7-2.3-2v-.4h5.3a15.755,15.755,0,0,0,.3-2.8C85.5,21.7,84.1,20.1,81.9,20.1ZM83,24.7H80.1c.2-1.3.8-2,1.7-2,.8,0,1.3.5,1.3,1.5A.749.749,0,0,0,83,24.7Z"/><path class="b" d="M6,20.1a3.393,3.393,0,0,1,2.2.7L8.9,18a5.535,5.535,0,0,0-3.1-.6c-2.2,0-4.5,1.1-4.5,4.8,0,4,3.9,3.2,3.9,5.4,0,1.5-1.3,1.7-2.1,1.7a4.147,4.147,0,0,1-2.5-.8L0,31.2a8.364,8.364,0,0,0,3.1.8C5.4,32,8,30.9,8,27c0-4.3-3.9-3.6-3.9-5.6C4.1,20.3,5,20.1,6,20.1Z"/><path class="b" d="M17.7,26.8c0,2.8,1.4,5.1,3.7,5.1a6.973,6.973,0,0,0,2.4-.4l.4-2.9a3.743,3.743,0,0,1-1.8.5c-1.2,0-1.9-1.1-1.9-2.4,0-2.3,1-3.6,2.4-3.6a3.226,3.226,0,0,1,1.8.6l.6-2.7a5.211,5.211,0,0,0-2.5-.8C19.8,20.1,17.7,23.1,17.7,26.8Z"/><path class="b" d="M32.2,20.3l-.8,5.2c-.2,1.7-.9,3.1-2,3.1-.8,0-1.1-.6-1.1-1.3a9.852,9.852,0,0,1,.2-1.7l.8-5.3H26.5l-.7,5.2a11.478,11.478,0,0,0-.2,2.4c0,2.2.9,3.9,2.5,3.9,1.4,0,2.3-.8,3.1-2.1h0L31,31.5h2.5c.1-1,.2-2,.3-2.9L35,20.3Z"/><path class="b" d="M86.1,29.6h.6v1.8h.5V29.6h.6v-.5H86.1Z"/><path class="b" d="M89.4,29.1,89,30.9h0l-.4-1.8H88v2.3h.4V29.5h0l.4,1.9h.4l.4-1.9h0v1.9H90V29.1Z"/></svg>