<svg xmlns="http://www.w3.org/2000/svg" xmlns:xlink="http://www.w3.org/1999/xlink" width="474" height="520" viewBox="0 0 474 520"><defs><style>.cls-1{fill:none;stroke:#ffd131;stroke-linecap:round;stroke-miterlimit:10;stroke-width:4.358px;}.cls-2{opacity:0.35;filter:url(#blur);}.cls-3{fill:#19427d;}.cls-4{fill:url(#linear-gradient);}.cls-5{fill:url(#linear-gradient-2);}.cls-6{fill:url(#linear-gradient-3);}.cls-11,.cls-7{fill:#fff;}.cls-7{opacity:0.9;}.cls-8{fill:url(#linear-gradient-4);}.cls-9{fill:url(#linear-gradient-5);}.cls-10{fill:url(#linear-gradient-6);}.cls-11{opacity:0.9;isolation:isolate;}.cls-12{fill:url(#linear-gradient-7);}.cls-13{fill:url(#linear-gradient-8);}.cls-14{fill:url(#linear-gradient-9);}</style><style type="text/css">@import url(svg-anim.css);</style><filter id="blur" name="blur"><feGaussianBlur stdDeviation="5"/></filter><linearGradient id="linear-gradient" x1="-1878.696" y1="188.008" x2="-1774.46" y2="188.008" gradientTransform="matrix(-1, 0, 0, 1, -1652.61, 0)" gradientUnits="userSpaceOnUse"><stop offset="0" stop-color="#96acc2"/><stop offset="1" stop-color="#b2c3d4"/></linearGradient><linearGradient id="linear-gradient-2" x1="-1870.139" y1="223.001" x2="-1772.083" y2="158.902" gradientTransform="matrix(-1, 0, 0, 1, -1652.61, 0)" gradientUnits="userSpaceOnUse"><stop offset="0" stop-color="#b8cce0"/><stop offset="1" stop-color="#e6ecf2"/></linearGradient><linearGradient id="linear-gradient-3" x1="-1851.932" y1="227.386" x2="-1778.466" y2="143.312" gradientTransform="matrix(-1, 0, 0, 1, -1652.61, 0)" gradientUnits="userSpaceOnUse"><stop offset="0" stop-color="#0072bd"/><stop offset="1" stop-color="#0099fd"/></linearGradient><linearGradient id="linear-gradient-4" x1="-2006.99" y1="270.335" x2="-1902.754" y2="270.335" xlink:href="#linear-gradient"/><linearGradient id="linear-gradient-5" x1="-1998.434" y1="305.328" x2="-1900.377" y2="241.229" xlink:href="#linear-gradient-2"/><linearGradient id="linear-gradient-6" x1="338.361" y1="297.971" x2="258.1" y2="250.032" gradientUnits="userSpaceOnUse"><stop offset="0" stop-color="#006fa6"/><stop offset="1" stop-color="#08c"/></linearGradient><linearGradient id="linear-gradient-7" x1="-1915.411" y1="290.913" x2="-1811.175" y2="290.913" xlink:href="#linear-gradient"/><linearGradient id="linear-gradient-8" x1="-1906.855" y1="325.906" x2="-1808.798" y2="261.807" xlink:href="#linear-gradient-2"/><linearGradient id="linear-gradient-9" x1="-1888.648" y1="330.291" x2="-1815.181" y2="246.217" gradientTransform="matrix(-1, 0, 0, 1, -1652.61, 0)" gradientUnits="userSpaceOnUse"><stop offset="0" stop-color="#753ba8"/><stop offset="1" stop-color="#9069ae"/></linearGradient></defs><title>msgs</title><g id="floor"><path class="cls-1" d="M385.922,341.9c5.242,3,5.242,7.857,0,10.854s-13.743,3-18.985,0-5.243-7.856,0-10.854S380.679,338.9,385.922,341.9ZM135.479,329.973c4.116,2.353,4.116,6.167,0,8.52a16.614,16.614,0,0,1-14.9,0c-4.116-2.353-4.116-6.167,0-8.52A16.614,16.614,0,0,1,135.479,329.973ZM281.3,348.83l4.432-11.357m-12.149,4.411,19.866,2.534m40.9,74.365,22.831-9.148m-19.416-1.952,16,13.052M103.53,259.568l16.07-6.438m-13.666-1.375,11.263,9.188"/><g class="cls-2"><path class="cls-3" d="M223.043,275.325l-74.253-42.82a10.26,10.26,0,0,0-10.253,0l-11.032,6.362a6.076,6.076,0,0,0,0,10.53l74.253,42.82a10.26,10.26,0,0,0,10.253,0l11.032-6.362A6.076,6.076,0,0,0,223.043,275.325Z"/></g><g class="cls-2"><path class="cls-3" d="M351.338,357.652l-74.253-42.82a10.262,10.262,0,0,0-10.254,0L255.8,321.194a6.076,6.076,0,0,0,0,10.53l74.253,42.82a10.262,10.262,0,0,0,10.254,0l11.032-6.362A6.077,6.077,0,0,0,351.338,357.652Z"/></g><g class="cls-2"><path class="cls-3" d="M259.758,378.231,185.505,335.41a10.265,10.265,0,0,0-10.253,0l-11.032,6.362a6.076,6.076,0,0,0,0,10.53l74.253,42.82a10.26,10.26,0,0,0,10.253,0l11.032-6.362A6.075,6.075,0,0,0,259.758,378.231Z"/></g></g><g id="msgs"><g id="messenger"><path class="cls-4" d="M226.087,248.86l-.411-77.222a26.222,26.222,0,0,0-13.08-22.491l-64.581-36.322c-7.971-4.9-15.794-5.982-26.165,0V204.85a26.2,26.2,0,0,0,13.082,22.63l73.179,39.8C218.67,265.291,226.087,260.436,226.087,248.86Z"/><path class="cls-5" d="M202.09,268.565A17.64,17.64,0,0,0,214.5,263.4a17.251,17.251,0,0,0,5.047-12.357l-.411-77.223a26.218,26.218,0,0,0-13.079-22.49l-66.761-38.5a17.43,17.43,0,0,0-26.165,15.087V204.85a26.2,26.2,0,0,0,13.082,22.63l67.17,38.737A17.465,17.465,0,0,0,202.09,268.565Z"/><path class="cls-6" d="M201.693,158.868l-66.76-38.5a8.722,8.722,0,0,0-13.083,7.544V204.85a17.418,17.418,0,0,0,8.721,15.087l67.171,38.736a8.721,8.721,0,0,0,13.082-7.589l-.411-77.222A17.417,17.417,0,0,0,201.693,158.868Z"/><path class="cls-7" d="M190.6,192.619l-22.25-1.28-.818-9.082L135.1,186.423l22.3,1.734.769,8.628,32.438-4.166"/></g><g id="telegram"><path class="cls-8" d="M354.381,331.187l-.411-77.222a26.222,26.222,0,0,0-13.08-22.491l-64.58-36.322c-7.971-4.9-15.794-5.982-26.165,0v92.026a26.2,26.2,0,0,0,13.082,22.63l73.179,39.8C346.965,347.618,354.381,342.763,354.381,331.187Z"/><path class="cls-9" d="M330.384,350.892a17.64,17.64,0,0,0,12.408-5.17,17.256,17.256,0,0,0,5.048-12.357l-.411-77.223a26.221,26.221,0,0,0-13.08-22.49l-66.761-38.5a17.43,17.43,0,0,0-26.165,15.087v76.938a26.2,26.2,0,0,0,13.082,22.63l67.171,38.737A17.458,17.458,0,0,0,330.384,350.892Z"/><path class="cls-10" d="M329.987,241.2l-66.76-38.5a8.721,8.721,0,0,0-13.082,7.544v76.938a17.417,17.417,0,0,0,8.72,15.087L326.036,341a8.721,8.721,0,0,0,13.082-7.59l-.411-77.222A17.415,17.415,0,0,0,329.987,241.2Z"/><path id="Path_2301" data-name="Path 2301" class="cls-11" d="M307.729,258.088a17.1,17.1,0,0,1-.805,3.881c-3.027,9.607-6.541,19.054-9.92,28.542a15.738,15.738,0,0,1-1.635,3.466,2.46,2.46,0,0,1-4.24.393,11.175,11.175,0,0,1-2-2.971c-1.332-2.695-2.691-5.383-3.9-8.13a9.091,9.091,0,0,0-4.709-4.84c-3.006-1.365-5.995-2.776-9-4.157a7.862,7.862,0,0,1-2.5-1.758,2.593,2.593,0,0,1,.283-4.23,8.342,8.342,0,0,1,2.749-1.349q14.668-5.16,29.353-10.283a16.1,16.1,0,0,1,3.781-.871,2.047,2.047,0,0,1,2.537,2.311Z"/></g><g id="viber"><path class="cls-12" d="M262.8,351.765l-.411-77.222a26.222,26.222,0,0,0-13.08-22.491l-64.58-36.322c-7.972-4.9-15.794-5.982-26.165,0v92.026a26.2,26.2,0,0,0,13.081,22.631l73.18,39.8C255.385,368.2,262.8,363.341,262.8,351.765Z"/><path class="cls-13" d="M238.805,371.47a17.64,17.64,0,0,0,12.408-5.17,17.249,17.249,0,0,0,5.047-12.357l-.41-77.222a26.222,26.222,0,0,0-13.08-22.491l-66.761-38.5a17.43,17.43,0,0,0-26.165,15.087v76.938a26.2,26.2,0,0,0,13.082,22.631L230.1,369.122A17.458,17.458,0,0,0,238.805,371.47Z"/><path class="cls-14" d="M238.408,261.773l-66.76-38.5a8.721,8.721,0,0,0-13.082,7.543v76.939a17.417,17.417,0,0,0,8.72,15.086l67.171,38.737a8.721,8.721,0,0,0,13.082-7.59l-.411-77.222A17.417,17.417,0,0,0,238.408,261.773Z"/><path class="cls-7" d="M207.364,296.272c-1.712-.583,1.449-3.166.024-4.867-.559-.666-2.37-.9-2.6-1.674-.3-1,1.107-1.318,1.838-1.254,5.9.518,5.183,9.308.739,7.8m4.82,2.736c-1.885-.642.546-2.479.949-3.085a5.569,5.569,0,0,0,.721-5.168c-.79-1.968-2.738-3.141-4.513-4.094-.519-.278-1.787-.538-1.928-1.215-.229-1.1,1.242-1.145,1.963-1.073,3.512.349,7.819,4.468,8.011,7.953.128,2.321-2.139,7.725-5.2,6.682m-15.571,14.516c-2.933-1-6.291-5.154-8.188-7.55a29.616,29.616,0,0,1-6.319-14.891c-.485-4.125-.165-9.114,1.888-12.358,1.888-2.984,7.434-3.29,10.992-3.13,4.2.189,4.7,4.357,4.673,7.7-.045,5.008-3.872,3.461-7.366,4.644-4.486,1.518-3.267,7.933-.4,11.469,3.768,4.649,5.994,2.093,10.252,1.964,2.686-.082,4.355,1.709,5.944,3.921,1.045,1.456,2.894,3.791,2.227,5.363-.877,2.065-4.5,2.544-6.474,2.951a13.592,13.592,0,0,1-7.227-.079M217.354,302c-1.985-.676,1.929-4.288,2.388-5.109a8.279,8.279,0,0,0,.891-6.791,11.365,11.365,0,0,0-5.465-5.983c-.855-.473-3.955-1.223-4.408-1.914-.6-.915-.285-1.556,1-1.68,1.925-.185,5.371,1.867,6.984,2.964a12.469,12.469,0,0,1,5.227,6.983,9.639,9.639,0,0,1-1.388,7.2c-.887,1.523-2.749,5.171-5.226,4.328"/></g></g></svg>