<svg xmlns="http://www.w3.org/2000/svg" xmlns:xlink="http://www.w3.org/1999/xlink" width="100" height="64" viewBox="0 0 100 64"><defs><style>.a,.c,.d,.e,.f,.g,.h,.i,.j,.k,.l{fill:none;}.b{clip-path:url(#a);}.c{stroke:#00aeff;stroke-width:20px;}.c,.d,.e,.f,.g,.h,.i,.j,.k,.l{stroke-miterlimit:10;}.d{stroke:#00a4ff;}.d,.h{stroke-width:10px;}.e,.j{stroke:#009aff;}.e,.i{stroke-width:12px;}.f{stroke:#00a5ff;stroke-width:6px;}.g{stroke:#009bff;stroke-width:9px;}.h{stroke:#008eff;}.i{stroke:#007dff;}.j{stroke-width:16px;}.k{stroke:#008cff;stroke-width:17px;}.l{stroke:#0076f5;stroke-width:8px;}.m{fill:#0000c2;opacity:0.15;isolation:isolate;}.n{fill:#fc0;}</style><clipPath id="a"><circle class="a" cx="49.295" cy="31.998" r="31.998"/></clipPath></defs><title>planet</title><g class="b"><line class="c" x1="18.102" y1="16.65" x2="59.828" y2="-1.063"/><line class="d" x1="15.797" y1="24.87" x2="67.342" y2="2.99"/><line class="e" x1="14.46" y1="31.955" x2="73.368" y2="6.95"/><line class="f" x1="16.283" y1="36.25" x2="75.191" y2="11.245"/><line class="g" x1="17.976" y1="40.239" x2="76.884" y2="15.234"/><line class="h" x1="19.669" y1="44.228" x2="78.578" y2="19.223"/><line class="i" x1="22.274" y1="50.364" x2="81.182" y2="25.359"/><line class="j" x1="25.66" y1="58.341" x2="84.569" y2="33.336"/><line class="k" x1="33.379" y1="66.29" x2="84.924" y2="44.41"/><line class="l" x1="41.283" y1="71.263" x2="83.01" y2="53.551"/></g><path class="m" d="M78.75,19.5A32,32,0,0,1,35.152,60.7,32,32,0,0,0,59.063,1.527,31.928,31.928,0,0,1,78.75,19.5Z"/><path class="n" d="M73.633,11.211c.6.707,1.182,1.454,1.733,2.219,8.3-1.618,13.99-1.368,15.052,1.134s-2.712,6.769-9.654,11.623a155.676,155.676,0,0,1-27.377,14.6C42,45.619,31.265,48.973,23.165,50.47,15.238,51.945,9.832,51.638,8.8,49.208s2.494-6.527,9.056-11.2c-.184-.943-.316-1.887-.413-2.831C5.6,42.5-1.326,49.228.213,52.855s11.186,3.325,24.7-.124A208.612,208.612,0,0,0,54.169,42.625a210.767,210.767,0,0,0,26.989-13.65c12.234-7.466,19.418-14.362,17.849-18.056S87.5,7.606,73.633,11.211Z"/></svg>