<svg xmlns="http://www.w3.org/2000/svg" xmlns:xlink="http://www.w3.org/1999/xlink" viewBox="0 0 972 1376"><defs><style>.cls-1{fill:#1efeff;}.cls-2,.cls-3,.cls-4,.cls-5{fill:none;stroke:#1efeff;stroke-miterlimit:10;}.cls-3,.cls-5{stroke-width:6px;}.cls-3{stroke-dasharray:80.86 89.84;}.cls-4{stroke-width:10px;stroke-dasharray:28.58 200.05;}.cls-6,.cls-7{opacity:0.8;}.cls-6{fill:url(#radial-gradient);}.cls-7{fill:url(#radial-gradient-2);}</style><style type="text/css">@import url(../css/svg-anim.css);</style><radialGradient id="radial-gradient" cx="789" cy="669.84" r="129.51" gradientUnits="userSpaceOnUse"><stop offset="0" stop-color="#1efeff"/><stop offset="0.8" stop-color="#1efeff" stop-opacity="0"/></radialGradient><radialGradient id="radial-gradient-2" cx="195.05" cy="623.35" r="129.51" xlink:href="#radial-gradient"/></defs><g id="spacegirl"><g id="r-hand"><image width="245" height="410" transform="translate(585 297.67)" xlink:href="spacegirl_l-hand.png"/><g id="spin-2"><circle class="cls-1" cx="789" cy="669.84" r="7.41"/><circle class="cls-2" cx="789" cy="669.84" r="57.75"/><g id="spinEl-5"><circle class="cls-3" cx="789" cy="669.84" r="81.5"/></g><path id="spinEl-4" class="cls-2" d="M707.28,653.62l16.13,3.21m131.05,26,16.14,3.2m-29.54,48.7-10.3-12.83m-94-117,10.3,12.83"/><path id="spinEl-3" class="cls-2" d="M777.18,667.51l-10.56-2.1m34.21,6.8,10.55,2.1m-8.09,13.35-6.74-8.4m-21.84-27.19,6.74,8.39m7.81-2.65.23-10.76m-1,45.63.23-10.77m.26-29.48a17.41,17.41,0,1,0,17.41,17.41A17.4,17.4,0,0,0,789,652.43Z"/><g id="spinEl-2"><circle class="cls-4" cx="789" cy="669.84" r="109.16"/></g><path id="spinEl-1" class="cls-5" d="M789.81,636.34v-14m11.41,16.31L806,625.51m5.14,19.23,9-10.72m-1.75,19.83,12.12-7m-8.42,18,13.78-2.43m-14.09,14.07L835.56,679m-18,8.4,12.12,7m-19.84,1.72,9,10.72m-19.23-5.16,4.79,13.14m-16.3-11.42v14M776.65,701l-4.78,13.15m-14.14-8.52,9-10.71m-7.25-9.12-12.12,7m8.42-18L742,677.24m14.08-14.07-13.78-2.43m18-8.4-12.11-7m19.83-1.72-9-10.72m19.23,5.16-4.79-13.15"/><circle id="glow" class="cls-6" cx="789" cy="669.84" r="129.51"/></g></g><image id="body" width="281" height="1214" transform="translate(374 81)" xlink:href="spacegirl_body.png"/><g id="l-hand"><image width="314" height="350" transform="translate(141.67 301)" xlink:href="spacegirl_r-hand.png"/><g id="spin-1"><circle class="cls-1" cx="195.05" cy="623.35" r="7.41"/><circle class="cls-2" cx="195.05" cy="623.35" r="57.75"/><g id="spinEl-5-2" data-name="spinEl-5"><circle class="cls-3" cx="195.05" cy="623.35" r="81.5"/></g><path id="spinEl-4-2" data-name="spinEl-4" class="cls-2" d="M113.33,607.13l16.13,3.21m131,26,16.13,3.21m-29.53,48.69-10.3-12.82m-93.95-117,10.3,12.83"/><path id="spinEl-3-2" data-name="spinEl-3" class="cls-2" d="M183.22,621l-10.55-2.1m34.2,6.8,10.56,2.1m-8.09,13.34-6.74-8.39m-21.84-27.2,6.74,8.4m7.81-2.65.23-10.77m-1,45.63.23-10.76m.26-29.49a17.42,17.42,0,1,0,17.41,17.42A17.42,17.42,0,0,0,195.05,605.93Z"/><g id="spinEl-2-2" data-name="spinEl-2"><circle class="cls-4" cx="195.05" cy="623.35" r="109.16"/></g><path id="spinEl-1-2" data-name="spinEl-1" class="cls-5" d="M195.86,589.85v-14m11.41,16.31L212.05,579m5.14,19.23,9-10.72m-1.75,19.83,12.12-7m-8.42,18L241.92,616M227.83,630l13.78,2.43m-18,8.4,12.11,7m-19.83,1.73,9,10.72m-19.23-5.17,4.79,13.15m-16.3-11.43v14M182.7,654.54l-4.78,13.15m-14.14-8.51,9-10.72m-7.25-9.11-12.12,7m8.42-18-13.78,2.43m14.09-14.06-13.78-2.43m18-8.41-12.11-7m19.83-1.73-9-10.71m19.23,5.16-4.79-13.15"/><circle id="glow-2" data-name="glow" class="cls-7" cx="195.05" cy="623.35" r="129.51"/></g></g></g></svg>