<svg xmlns="http://www.w3.org/2000/svg" xmlns:xlink="http://www.w3.org/1999/xlink" width="100" height="200" viewBox="0 0 100 200"><defs><style>.cls-1,.cls-13,.cls-14,.cls-15,.cls-3,.cls-9{fill:none;}.cls-2{fill:#c4e0ff;}.cls-11,.cls-2,.cls-20,.cls-21,.cls-9{stroke:#384656;}.cls-11,.cls-13,.cls-14,.cls-15,.cls-2,.cls-3,.cls-9{stroke-miterlimit:10;}.cls-15,.cls-3{stroke:#fc0;}.cls-13,.cls-14,.cls-15,.cls-20,.cls-21,.cls-3{stroke-linecap:round;}.cls-4{fill:#7aa0cc;}.cls-5{fill:#384656;}.cls-6{fill:#7fa6d3;}.cls-7{fill:#a2c4eb;}.cls-8{fill:#0071bc;}.cls-14,.cls-8{opacity:0.1;}.cls-9{stroke-width:2px;}.cls-10,.cls-23{fill:#fff;}.cls-10,.cls-13{opacity:0.2;}.cls-11{fill:#4779b3;}.cls-12{fill:#33b3e5;}.cls-13{stroke:#fff;stroke-width:0.25px;}.cls-14{stroke:#0071bc;stroke-width:4px;}.cls-15{stroke-width:0.5px;stroke-dasharray:4 8;}.cls-16,.cls-20{fill:#fc0;}.cls-17,.cls-21{fill:#f7c200;}.cls-18{clip-path:url(#clip-path);}.cls-19{fill:#e3b200;}.cls-20,.cls-21{stroke-linejoin:round;}.cls-22{opacity:0.3;}

#planet {
	animation: rotation 4s linear infinite;
	transform-origin: 49px 46px;
}

#strike_l,
#strike_r {
	animation: strike 4s linear infinite;
}

#exhaust_l {
	transform-origin: 29px 171px;
}

#exhaust_m {
	transform-origin: 50px 164px;
}

#exhaust_r {
	transform-origin: 71px 171px;
}

#exhaust_l,
#exhaust_m,
#exhaust_r {
	animation: exhaust 0.2s ease infinite alternate;
}

#explosion_l,
#explosion_r {
	animation: explosion 0.4s ease infinite;
}

#explosion_l {
	transform-origin: 38px 67px;
}

#explosion_r {
	transform-origin: 61px 67px;
}

#spaceship {
	animation: spaceship 0.8s ease-in-out infinite alternate;
}

#gun_l,
#gun_r {
	animation: guns 0.1s ease infinite alternate;
}

@keyframes guns {
	to {
	    transform: translateY(-2px);
	}
}

@keyframes spaceship {
	to {
	    transform: translateY(-5px);
	}
}

@keyframes rotation {
	to {
	    transform: rotate(360deg);
	}
}

@keyframes strike {
	to {
	    stroke-dashoffset: -200;
	}
}

@keyframes exhaust {
	to {
	    transform: scale(1.2);
	}
}

@keyframes explosion {
	from {
		opacity: 1;
		transform: translateY(0) scale(0);
	}
	to {
		opacity: 0;
	    transform: translateY(-10px) scale(2);
	}
}

</style><clipPath id="clip-path"><polygon class="cls-1" points="50 70.82 37.04 66.39 26.93 48.22 28.53 41.1 36.86 30.03 43.38 27.45 49.97 28.37 56.9 26.58 63.15 30.14 70.59 41.81 67.14 60.92 57.07 69.49 50 70.82 50 70.82"/></clipPath></defs><g id="spaceship"><g id="gun_l"><path class="cls-2" d="M38.22,135.72l-1.47,11.35h3.43l-1.47-11.35A.25.25,0,0,0,38.22,135.72Z"/><line class="cls-3" x1="37.4" y1="136.97" x2="39.53" y2="136.97"/><line class="cls-3" x1="37.4" y1="138.45" x2="39.53" y2="138.45"/></g><g id="gun_r"><path class="cls-2" d="M61.29,135.72l-1.47,11.35h3.43l-1.47-11.35A.25.25,0,0,0,61.29,135.72Z"/><line class="cls-3" x1="60.47" y1="136.97" x2="62.6" y2="136.97"/><line class="cls-3" x1="60.47" y1="138.45" x2="62.6" y2="138.45"/></g><rect class="cls-4" x="27.5" y="143.57" width="44" height="7"/><path class="cls-5" d="M71,144.07v6H28v-6H71m1-1H27v8H72v-8Z"/><circle class="cls-2" cx="38.46" cy="147.07" r="1.41"/><circle class="cls-2" cx="61.54" cy="147.07" r="1.41"/><path class="cls-6" d="M27.31,169.49a1.65,1.65,0,0,1-1.64-1.65V165.7h6.66v2.14a1.65,1.65,0,0,1-1.64,1.65Z"/><path class="cls-5" d="M31.83,166.2v1.64A1.14,1.14,0,0,1,30.69,169H27.31a1.14,1.14,0,0,1-1.14-1.15V166.2h5.66m1-1H25.17v2.64A2.14,2.14,0,0,0,27.31,170h3.38a2.14,2.14,0,0,0,2.14-2.15V165.2Z"/><path class="cls-7" d="M25.5,167.07a2.5,2.5,0,0,1-2.5-2.5v-35a6,6,0,0,1,12,0v35a2.5,2.5,0,0,1-2.5,2.5Z"/><path class="cls-5" d="M29,124.07a5.5,5.5,0,0,1,5.5,5.5v35a2,2,0,0,1-2,2h-7a2,2,0,0,1-2-2v-35a5.5,5.5,0,0,1,5.5-5.5h0m0-1a6.51,6.51,0,0,0-6.5,6.5v35a3,3,0,0,0,3,3h7a3,3,0,0,0,3-3v-35a6.51,6.51,0,0,0-6.5-6.5Z"/><path class="cls-8" d="M25.5,166.57h0a2,2,0,0,1-2-2V148.83a65.29,65.29,0,0,0,5.07,12.53A3.52,3.52,0,0,1,25.5,166.57Z"/><line class="cls-9" x1="23.5" y1="136.07" x2="34.5" y2="136.07"/><line class="cls-9" x1="23.5" y1="139.07" x2="34.5" y2="139.07"/><line class="cls-9" x1="23.5" y1="156.07" x2="34.5" y2="156.07"/><line class="cls-9" x1="23.5" y1="159.07" x2="34.5" y2="159.07"/><path class="cls-10" d="M34.5,129.57v35l-1.48-34a5.5,5.5,0,0,0-5.5-5.5h-1a5.52,5.52,0,0,0-.71.05,5.5,5.5,0,0,1,8.73,4.45Z"/><path class="cls-6" d="M69.31,169.49a1.65,1.65,0,0,1-1.64-1.65V165.7h6.66v2.14a1.65,1.65,0,0,1-1.64,1.65Z"/><path class="cls-5" d="M73.83,166.2v1.64A1.14,1.14,0,0,1,72.69,169H69.31a1.14,1.14,0,0,1-1.14-1.15V166.2h5.66m1-1H67.17v2.64A2.14,2.14,0,0,0,69.31,170h3.38a2.14,2.14,0,0,0,2.14-2.15V165.2Z"/><path class="cls-7" d="M67.5,167.07a2.5,2.5,0,0,1-2.5-2.5v-35a6,6,0,0,1,12,0v35a2.5,2.5,0,0,1-2.5,2.5Z"/><path class="cls-5" d="M71,124.07a5.5,5.5,0,0,1,5.5,5.5v35a2,2,0,0,1-2,2h-7a2,2,0,0,1-2-2v-35a5.5,5.5,0,0,1,5.5-5.5m0-1a6.51,6.51,0,0,0-6.5,6.5v35a3,3,0,0,0,3,3h7a3,3,0,0,0,3-3v-35a6.51,6.51,0,0,0-6.5-6.5Z"/><line class="cls-9" x1="65.5" y1="136.07" x2="76.5" y2="136.07"/><path class="cls-8" d="M67.5,166.57h0a2,2,0,0,1-2-2V148.83a65.29,65.29,0,0,0,5.07,12.53A3.52,3.52,0,0,1,67.5,166.57Z"/><line class="cls-9" x1="65.5" y1="139.07" x2="76.5" y2="139.07"/><line class="cls-9" x1="65.5" y1="156.07" x2="76.5" y2="156.07"/><line class="cls-9" x1="65.5" y1="159.07" x2="76.5" y2="159.07"/><path class="cls-10" d="M76.5,129.57v35l-1.48-34a5.5,5.5,0,0,0-5.5-5.5h-1a5.52,5.52,0,0,0-.71.05,5.5,5.5,0,0,1,8.73,4.45Z"/><path class="cls-11" d="M47,159.07h6a0,0,0,0,1,0,0v2a1,1,0,0,1-1,1H48a1,1,0,0,1-1-1v-2A0,0,0,0,1,47,159.07Z"/><path class="cls-6" d="M46,160.57a2.5,2.5,0,0,1-2.5-2.5v-2.5h13v2.5a2.5,2.5,0,0,1-2.5,2.5Z"/><path class="cls-5" d="M56,156.07v2a2,2,0,0,1-2,2H46a2,2,0,0,1-2-2v-2H56m1-1H43v3a3,3,0,0,0,3,3h8a3,3,0,0,0,3-3v-3Z"/><path class="cls-7" d="M42.18,158.57a2.49,2.49,0,0,1-2.48-2.84L46,110.05a4,4,0,0,1,8,0l6.31,45.68a2.49,2.49,0,0,1-2.48,2.84Z"/><path class="cls-5" d="M50,107.07a3.52,3.52,0,0,1,3.49,3L59.8,155.8a2,2,0,0,1-2,2.27H42.18a2,2,0,0,1-2-2.27l6.31-45.69a3.52,3.52,0,0,1,3.49-3m0-1A4.54,4.54,0,0,0,45.52,110l-6.31,45.68a3,3,0,0,0,3,3.41H57.82a3,3,0,0,0,3-3.41L54.48,110A4.54,4.54,0,0,0,50,106.07Z"/><circle class="cls-2" cx="50" cy="124.26" r="1.41"/><path class="cls-8" d="M54.72,158.07H42.18a2,2,0,0,1-2-2.27l4.13-29.92A60.31,60.31,0,0,0,54.72,158.07Z"/><path class="cls-12" d="M50,117.7A2.21,2.21,0,0,1,47.86,115l1-3.83a1.19,1.19,0,0,1,1.17-1,1.2,1.2,0,0,1,1.18,1l1,3.78A2.21,2.21,0,0,1,50,117.7Z"/><path class="cls-5" d="M50,110.65a.69.69,0,0,1,.68.59l1,3.84a1.7,1.7,0,1,1-3.3,0l1-3.84a.69.69,0,0,1,.68-.59m0-1A1.69,1.69,0,0,0,48.34,111l-1,3.79a2.71,2.71,0,1,0,5.24,0l-1-3.79A1.69,1.69,0,0,0,50,109.65Z"/><path class="cls-8" d="M51.56,116.19a1.71,1.71,0,0,1-3.21-1.12l.38-1.52a2.7,2.7,0,0,0,2.71,2.65Z"/><line class="cls-13" x1="50.44" y1="111.9" x2="51.12" y2="114.58"/><line class="cls-14" x1="49" y1="154.49" x2="49" y2="145.07"/><path class="cls-2" d="M50,155.49a2,2,0,0,1-2-2v-9.42a2,2,0,0,1,4,0v9.42A2,2,0,0,1,50,155.49Z"/><circle class="cls-2" cx="50" cy="130.1" r="1.41"/><circle class="cls-2" cx="50" cy="135.95" r="1.41"/><path class="cls-10" d="M59.8,155.8l-7.56-45.23a3.67,3.67,0,0,0-3.63-3.17h-.12a3.48,3.48,0,0,1,1.51-.34,3.52,3.52,0,0,1,3.49,3Z"/><line id="strike_l" class="cls-15" x1="38.46" y1="133.54" x2="38.46" y2="57.41"/><line id="strike_r" class="cls-15" x1="61.54" y1="133.54" x2="61.54" y2="57.41"/><g id="exhaust_r"><path class="cls-16" d="M67.78,178.93l-.14,0a.51.51,0,0,1-.36-.49c.1-4.09,2-6.93,3.72-6.93s3.62,2.84,3.72,6.93a.5.5,0,0,1-.35.48l-.15,0a.49.49,0,0,1-.42-.23,3.33,3.33,0,0,0-3.43-1.57,3.36,3.36,0,0,0-2.16,1.56A.51.51,0,0,1,67.78,178.93Z"/><path class="cls-5" d="M71,172c1.32,0,3.13,2.58,3.22,6.44a4,4,0,0,0-3.3-1.85,3.47,3.47,0,0,0-.64.06,3.88,3.88,0,0,0-2.5,1.79c.09-3.86,1.9-6.44,3.22-6.44m0-1c-2.19,0-4.12,3.39-4.22,7.41a1,1,0,0,0,.72,1,1.35,1.35,0,0,0,.28,0,1,1,0,0,0,.86-.48,2.83,2.83,0,0,1,1.82-1.33,2.45,2.45,0,0,1,.46,0,3.06,3.06,0,0,1,2.47,1.4,1,1,0,0,0,.83.45,1,1,0,0,0,.3-.05,1,1,0,0,0,.7-1c-.1-4-2-7.41-4.22-7.41Z"/></g><g id="exhaust_m"><path class="cls-16" d="M46.78,172.06a.34.34,0,0,1-.14,0,.5.5,0,0,1-.36-.49c.1-4.08,2-6.92,3.72-6.92s3.62,2.84,3.72,6.92a.51.51,0,0,1-.35.49.39.39,0,0,1-.15,0,.51.51,0,0,1-.42-.22,3.54,3.54,0,0,0-2.88-1.62,2.56,2.56,0,0,0-.55.05,3.39,3.39,0,0,0-2.16,1.55A.49.49,0,0,1,46.78,172.06Z"/><path class="cls-5" d="M50,165.13c1.32,0,3.13,2.58,3.22,6.43a4,4,0,0,0-3.3-1.84,2.78,2.78,0,0,0-.64.06,3.91,3.91,0,0,0-2.5,1.78c.09-3.85,1.9-6.43,3.22-6.43m0-1c-2.19,0-4.12,3.39-4.22,7.41a1,1,0,0,0,.72,1,.9.9,0,0,0,.28,0,1,1,0,0,0,.86-.48,2.82,2.82,0,0,1,1.82-1.32,2.45,2.45,0,0,1,.46,0,3,3,0,0,1,2.47,1.4,1,1,0,0,0,.83.44,1,1,0,0,0,.3,0,1,1,0,0,0,.7-1c-.1-4-2-7.41-4.22-7.41Z"/></g><g id="exhaust_l"><path class="cls-16" d="M25.78,178.93l-.14,0a.51.51,0,0,1-.36-.49c.1-4.09,2-6.93,3.72-6.93s3.62,2.84,3.72,6.93a.5.5,0,0,1-.35.48l-.15,0a.49.49,0,0,1-.42-.23,3.33,3.33,0,0,0-3.43-1.57,3.36,3.36,0,0,0-2.16,1.56A.51.51,0,0,1,25.78,178.93Z"/><path class="cls-5" d="M29,172c1.32,0,3.13,2.58,3.22,6.44a4,4,0,0,0-3.3-1.85,3.47,3.47,0,0,0-.64.06,3.88,3.88,0,0,0-2.5,1.79c.09-3.86,1.9-6.44,3.22-6.44m0-1c-2.19,0-4.12,3.39-4.22,7.41a1,1,0,0,0,.72,1,1.35,1.35,0,0,0,.28,0,1,1,0,0,0,.86-.48,2.83,2.83,0,0,1,1.82-1.33,2.45,2.45,0,0,1,.46,0,3.06,3.06,0,0,1,2.47,1.4,1,1,0,0,0,.83.45,1,1,0,0,0,.3-.05,1,1,0,0,0,.7-1c-.1-4-2-7.41-4.22-7.41Z"/></g></g><g id="planet"><path class="cls-16" d="M50,71.32a.44.44,0,0,1-.16,0l-13-4.44a.47.47,0,0,1-.27-.23L26.5,48.46a.47.47,0,0,1-.06-.35L28,41a.37.37,0,0,1,.09-.19l8.33-11.07a.5.5,0,0,1,.22-.16L43.2,27a.57.57,0,0,1,.18,0h.07l6.49.9,6.84-1.77h.12a.54.54,0,0,1,.25.06L63.4,29.7a.46.46,0,0,1,.17.17L71,41.54a.56.56,0,0,1,.07.36L67.64,61a.48.48,0,0,1-.17.29L57.4,69.87a.7.7,0,0,1-.23.11l-7.08,1.34Z"/><path class="cls-5" d="M56.9,26.58l6.25,3.56,7.44,11.67L67.14,60.92,57.07,69.49,50,70.82,37,66.39,26.93,48.22l1.6-7.12L36.86,30l6.52-2.57,6.59.91,6.93-1.79m0-1-.25,0-6.74,1.74-6.39-.89h-.14a1,1,0,0,0-.37.07L36.49,29.1a1,1,0,0,0-.43.33L27.73,40.5a.89.89,0,0,0-.18.38L26,48a1,1,0,0,0,.1.71L36.17,66.87a1,1,0,0,0,.55.46l13,4.44a.86.86,0,0,0,.32,0h.19l7.07-1.34a1,1,0,0,0,.46-.22l10.07-8.57a1,1,0,0,0,.34-.58L71.58,42a1.06,1.06,0,0,0-.14-.72L64,29.6a.9.9,0,0,0-.34-.33L57.4,25.71a1,1,0,0,0-.5-.13Z"/><path class="cls-17" d="M57.88,68.8l-.81.68L50,70.82,37,66.39,26.93,48.22l.75-3.32A88,88,0,0,0,57.88,68.8Z"/><polygon class="cls-10" points="70.59 41.81 67.14 60.92 67.59 44.81 60.15 33.14 53.9 29.58 46.97 29.36 40.38 30.45 34.92 32.61 36.86 30.03 43.38 27.45 49.97 28.36 56.9 26.58 63.15 30.14 70.59 41.81"/><g class="cls-18"><circle class="cls-19" cx="62.42" cy="61.34" r="6.14"/><circle class="cls-19" cx="41.4" cy="46.49" r="4.33"/><circle class="cls-19" cx="36.81" cy="65.51" r="3.72"/><circle class="cls-19" cx="64.03" cy="30.63" r="7.58"/></g><path class="cls-20" d="M54.68,31.66h0S50.6,25.57,50.1,21.57H47.43c-.5,4-4.58,10.09-4.58,10.09h0"/><path class="cls-20" d="M48.76,31.14h0S45,28,44.05,25.58l-1.78.47c.33,2.6-1.39,7.15-1.39,7.15h0"/><path class="cls-21" d="M31.11,50.9h0s-2.52,5.41-5.1,7.47l1.12,1.82c3-1.37,9-1.19,9-1.19h0"/><path class="cls-20" d="M66.28,52h0s4.1-1.87,6.56-1.76l.28-1.64c-2.36-.72-5.59-3.85-5.59-3.85h0"/></g><g id="explosion_l" class="cls-22"><circle class="cls-23" cx="38.46" cy="67.38" r="5.78"/></g><g id="explosion_r" class="cls-22"><circle class="cls-23" cx="61.54" cy="67.38" r="5.78"/></g></svg>