<svg xmlns="http://www.w3.org/2000/svg" width="400" height="259.127" viewBox="0 0 400 259.127"><defs><style>.a,.d{fill:none;}.b{fill:#fff;}.c{fill:#1f85c7;}.d{stroke:#384656;stroke-linecap:round;stroke-linejoin:round;stroke-width:3.213px;}.e{fill:#fc0;}.f{fill:#33b3e5;}.g{fill:#f1f5f8;}.h{font-size:20.548px;fill:#374656;font-family:Consolas-Bold, Consolas;font-weight:700;}</style></defs><title>temp</title><path class="a" d="M26.257,30.735C53.016-3.349,90.585-4.932,129.537,6.089c19.106,5.406,37.84,12.189,56.868,17.727,23.356,6.8,47.778,6.813,71.764,9.615,33.6,3.924,68.031,14.3,96.315,33.22,29.856,19.968,54.919,55.672,42.066,92.971-14.064,40.811-62.194,65.453-99.458,80.688-63.477,25.951-141.42,24.91-204.367-2.2C14.471,204.416-32.219,105.215,26.257,30.735Z"/><path class="b" d="M104.82,147c-9.417,0-38.183-4.833-47.972-7v-21.53c9.789-2.168,38.555-7,47.972-7,17.109,0,24.358,9.382,27.058,14.516a7.01,7.01,0,0,1,0,6.5C129.178,137.613,121.929,147,104.82,147Z"/><path class="c" d="M103.608,145.981c-8.663,0-35.128-4.446-44.134-6.44V119.73c9-2,35.471-6.441,44.134-6.441,15.741,0,22.41,8.631,24.895,13.355a6.447,6.447,0,0,1,0,5.982C126.018,137.35,119.349,145.981,103.608,145.981Z"/><path class="d" d="M104.82,147c-9.417,0-38.183-4.833-47.972-7v-21.53c9.789-2.168,38.555-7,47.972-7,17.109,0,24.358,9.382,27.058,14.516a7.01,7.01,0,0,1,0,6.5C129.178,137.613,121.929,147,104.82,147Z"/><rect class="b" x="47.964" y="122.121" width="8.884" height="14.214"/><rect class="e" x="46.598" y="123.838" width="8.173" height="13.077"/><rect class="d" x="47.964" y="122.121" width="8.884" height="14.214"/><circle class="b" cx="104.819" cy="129.229" r="7.107"/><circle class="f" cx="103.958" cy="130.663" r="6.538"/><circle class="d" cx="104.819" cy="129.229" r="7.107"/><path class="b" d="M79.941,113.814c-.257-1.577-1.911-10.76-10.421-16.376C58.565,90.209,46.429,95.611,45.7,95.95c9.259.244,16.482,5.431,17.864,11.909a13.533,13.533,0,0,1-1.489,8.932Z"/><path class="e" d="M77.423,114.276a22.874,22.874,0,0,0-9.587-15.065c-10.076-6.651-21.243-1.682-21.913-1.37,8.519.225,15.164,4.994,16.436,10.957a12.46,12.46,0,0,1-1.37,8.218Z"/><path class="d" d="M79.941,113.814c-.257-1.577-1.911-10.76-10.421-16.376C58.565,90.209,46.429,95.611,45.7,95.95c9.259.244,16.482,5.431,17.864,11.909a13.533,13.533,0,0,1-1.489,8.932Z"/><path class="b" d="M62.076,141.665a13.536,13.536,0,0,1,1.489,8.932c-1.381,6.482-8.6,11.665-17.864,11.91.727.338,12.862,5.74,23.818-1.489,8.51-5.616,10.164-14.8,10.421-16.375Z"/><path class="e" d="M60.988,143.737a12.454,12.454,0,0,1,1.37,8.218c-1.271,5.963-7.916,10.732-16.436,10.957.67.312,11.835,5.281,21.913-1.37a22.879,22.879,0,0,0,9.588-15.065Z"/><path class="d" d="M62.076,141.665a13.536,13.536,0,0,1,1.489,8.932c-1.381,6.482-8.6,11.665-17.864,11.91.727.338,12.862,5.74,23.818-1.489,8.51-5.616,10.164-14.8,10.421-16.375Z"/><path class="b" d="M28.415,134.559c6.38-.15,10.66-3.137,10.66-5.33s-4.28-5.182-10.66-5.331a6.154,6.154,0,0,1,0,10.661Z"/><path class="e" d="M27.694,134.706c5.869-.137,9.807-2.886,9.807-4.9s-3.938-4.766-9.807-4.9a5.662,5.662,0,0,1,0,9.808Z"/><path class="d" d="M28.415,134.559c6.38-.15,10.66-3.137,10.66-5.33s-4.28-5.182-10.66-5.331a6.154,6.154,0,0,1,0,10.661Z"/><path class="g" d="M69.762,127.876v-1.171a.29.29,0,0,1,.285-.293H75a.293.293,0,0,1,.286.293v3.155a1.546,1.546,0,0,0,1.308,1.572A1.476,1.476,0,0,0,78.2,130.1h0c.005-.05.007-.1.007-.152V126.7a.291.291,0,0,1,.286-.293h1.15a.291.291,0,0,1,.286.293v3.1a3.321,3.321,0,0,1-2.868,3.375,3.209,3.209,0,0,1-3.5-3.231V128.46a.291.291,0,0,0-.286-.293H70.045A.29.29,0,0,1,69.762,127.876Z"/><circle class="e" cx="173.371" cy="129.341" r="6.849"/><circle class="e" cx="214.467" cy="129.341" r="6.849"/><circle class="e" cx="255.563" cy="129.341" r="6.849"/><circle class="e" cx="296.658" cy="129.341" r="6.849"/><circle class="e" cx="351.452" cy="129.341" r="20.548"/><text class="h" transform="translate(340.155 134.71)">x2</text></svg>