<svg xmlns="http://www.w3.org/2000/svg" width="56.528" height="32" viewBox="0 0 56.528 32"><defs><style>.a{fill:#faa61a;}.a,.b{fill-rule:evenodd;}.b{fill:#0058a0;}</style></defs><path class="a" d="M1.7,4.2,5.6,5.9l.3,4.3h.3l3.5-6V3.9h-8Z"/><path class="b" d="M29.1,9.4H26.7l-1.5,9.5h2.4Z"/><path class="b" d="M19.2,18.9l.6-3.7,1.8,3.7h3.1L22.2,15a3.08,3.08,0,0,0,2.5-2.6c.3-1.6-.4-3-2.7-3H18.3l-1.5,9.5Zm1.2-7.6h.7a1.03,1.03,0,0,1,1.1,1.2,1.482,1.482,0,0,1-1.4,1.2H20Z"/><path class="b" d="M38.8,18.9l1.5-9.5H37.8l-1.5,9.5Z"/><path class="b" d="M46.3,16.8H43.4l.3-1.6h2.7l.4-2.1H44l.2-1.6h3l.3-2.1H42.1l-1.5,9.5H46Z"/><path class="b" d="M13.5,11.5h3l.3-2.1H11.4L9.9,18.9h5.4l.3-2.1H12.7l.3-1.6h2.7l.4-2.1H13.3Z"/><path class="b" d="M32.5,15.2h2.7l.3-2.1H32.8l.3-1.6h3l.3-2.1H31l-1.5,9.5h2.4Z"/><path class="b" d="M52.1,9.4H48.9l-1.5,9.5h3.2a5.95,5.95,0,0,0,5.9-4.7C56.7,12.3,55.9,9.4,52.1,9.4Zm1.8,4.7a3.125,3.125,0,0,1-3.1,2.8h-.7l.8-5.3h.5C53.4,11.5,54.1,12.8,53.9,14.1Z"/><path class="b" d="M14.1,0C11.1,4.9,8,9.9,5,15L4.5,8.1H0v.3c1.4.2,1.8,1,2,2.9l.8,7.6H6.1C9.2,12.5,12.4,6.2,15.6,0Z"/><path class="b" d="M20.2,24.2a2.36,2.36,0,0,0-1.6.7l.5-3.7H17.5l-1.2,8.3h1.6l.1-.6a1.6,1.6,0,0,0,1.4.8A2.982,2.982,0,0,0,22.1,27C22.3,25.4,21.5,24.2,20.2,24.2Zm.2,2.7a1.287,1.287,0,0,1-1.2,1.2.947.947,0,0,1-.9-1.2,1.287,1.287,0,0,1,1.2-1.2A.947.947,0,0,1,20.4,26.9Z"/><path class="b" d="M24.9,26.9l-.8-2.6H22.2l1.6,4.4-2,3.3h1.8l4.8-7.7H26.6Z"/><path class="b" d="M39.6,21.1l-2.5,8.3h2.2l2.6-8.3Z"/><path class="b" d="M36,21.1l-3,5.4h0l-.2-5.4H28.9v.4c1.3,0,1.5.2,1.7,1.2l.8,6.8h2.4l4.8-8.3H36Z"/><path class="b" d="M55.3,21.1h-3l-4.5,8.3h2.5l.6-1.2h2.8l.1,1.2H56Zm-3.7,5.5,1.7-3.9.2,3.9Z"/><path class="b" d="M46.1,24.6l-.5-.3c-.7-.4-1-.7-.8-1.2a1.175,1.175,0,0,1,1-.4,3.148,3.148,0,0,1,1.8.8l1.2-1.4a5.1,5.1,0,0,0-3-1c-1.7,0-2.8.7-3.2,1.7-.6,1.5,0,2.3,1.3,3.2l.4.3c.9.5,1.3.8,1,1.3a1.016,1.016,0,0,1-1,.5,3.794,3.794,0,0,1-2.4-.8l-1.1,1.6a6.856,6.856,0,0,0,3.4,1,3.2,3.2,0,0,0,3.4-2.1C48.1,26.6,47.7,25.6,46.1,24.6Z"/></svg>